<mxfile host="65bd71144e">
    <diagram id="f106602c-feb2-e66a-4537-3a34d633f6aa" name="Page-1">
        <mxGraphModel dx="1293" dy="807" grid="1" gridSize="10" guides="1" tooltips="1" connect="1" arrows="1" fold="1" page="1" pageScale="1" pageWidth="1169" pageHeight="827" background="none" math="0" shadow="0">
            <root>
                <mxCell id="0"/>
                <mxCell id="1" parent="0"/>
                <mxCell id="1023" value="ユーザー" style="points=[[0,0,0],[0.25,0,0],[0.5,0,0],[0.75,0,0],[1,0,0],[1,0.25,0],[1,0.5,0],[1,0.75,0],[1,1,0],[0.75,1,0],[0.5,1,0],[0.25,1,0],[0,1,0],[0,0.75,0],[0,0.5,0],[0,0.25,0]];rounded=1;absoluteArcSize=1;arcSize=2;html=1;strokeColor=none;gradientColor=none;shadow=0;dashed=0;fontSize=12;fontColor=#9E9E9E;align=left;verticalAlign=top;spacing=10;spacingTop=-4;" parent="1" vertex="1">
                    <mxGeometry x="40" y="80" width="190" height="660" as="geometry"/>
                </mxCell>
                <mxCell id="14" value="&lt;b&gt;Google&amp;nbsp;&lt;/b&gt;Cloud Platform" style="strokeColor=none;shadow=0;gradientColor=none;fontSize=14;align=left;spacing=10;fontColor=#717171;9E9E9E;verticalAlign=top;spacingTop=-4;fontStyle=0;spacingLeft=40;html=1;fillColor=#FFFFFF;" parent="1" vertex="1">
                    <mxGeometry x="280" y="84" width="600" height="660" as="geometry"/>
                </mxCell>
                <mxCell id="1004" value="" style="strokeColor=#dddddd;shadow=1;strokeWidth=1;rounded=1;absoluteArcSize=1;arcSize=2;fillColor=#FFFFFF;" parent="14" vertex="1">
                    <mxGeometry x="50" y="536" width="230" height="65" as="geometry"/>
                </mxCell>
                <mxCell id="1005" value="Cloud&#10;Functions" style="dashed=0;connectable=0;html=1;fillColor=#5184F3;strokeColor=none;shape=mxgraph.gcp2.hexIcon;prIcon=cloud_functions;part=1;labelPosition=right;verticalLabelPosition=middle;align=left;verticalAlign=middle;spacingLeft=5;fontColor=#999999;fontSize=12;" parent="1004" vertex="1">
                    <mxGeometry y="0.5" width="44" height="39" relative="1" as="geometry">
                        <mxPoint x="5" y="-19.5" as="offset"/>
                    </mxGeometry>
                </mxCell>
                <mxCell id="1009" value="" style="strokeColor=#dddddd;shadow=1;strokeWidth=1;rounded=1;absoluteArcSize=1;arcSize=2;fillColor=#FFFFFF;" parent="14" vertex="1">
                    <mxGeometry x="50" y="236" width="410" height="224" as="geometry"/>
                </mxCell>
                <mxCell id="1010" value="Firebase Hosting" style="dashed=0;connectable=0;html=1;fillColor=#5184F3;strokeColor=none;shape=mxgraph.gcp2.firebase;part=1;labelPosition=right;verticalLabelPosition=middle;align=left;verticalAlign=middle;spacingLeft=5;fontColor=#999999;fontSize=12;" parent="1009" vertex="1">
                    <mxGeometry width="32.4" height="45" relative="1" as="geometry">
                        <mxPoint x="5" y="7" as="offset"/>
                    </mxGeometry>
                </mxCell>
                <mxCell id="_0M5Wq5q9TD21tJrrO1c-1050" value="" style="shape=image;verticalLabelPosition=bottom;labelBackgroundColor=#ffffff;verticalAlign=top;aspect=fixed;imageAspect=0;image=data:image/png,iVBORw0KGgoAAAANSUhEUgAAAgAAAAIACAMAAADDpiTIAAADAFBMVEUAAAAAAAAAAAAAAAAAAAAAAAAAAAAAAAAAAAAAAAAAAAAAAAAAAAAAAAAAAAAAAAAAAAAAAAAAAAAAAAAAAAAAAAAAAAAAAAAAAAAAAAAAAAAAAAAAAAAAAAAAAAAAAAAAAAAAAAAAAAAAAAAAAAAAAAAAAAAAAAAAAAAAAAAAAAAAAAAAAAAAAAAAAAAAAAAAAAAAAAAAAAAAAAAAAAAAAAAAAAAAAAAAAAAAAAAAAAAAAAAAAAAAAAAAAAAAAAAAAAAAAAAAAAAAAAAAAAAAAAAAAAAAAAAAAAAAAAAAAAAAAAAAAAAAAAAAAAAAAAAAAAAAAAAAAAAAAAAAAAAAAAAAAAAAAAAAAAAAAAAAAAAAAAAAAAAAAAAAAAAAAAAAAAAAAAAAAAAAAAAAAAAAAAAAAAAAAAAAAAAAAAAAAAAAAAAAAAAAAAAAAAAAAAAAAAAAAAAAAAAAAAAAAAAAAAAAAAAAAAAAAAAAAAAAAAAAAAAAAAAAAAAAAAAAAAAAAAAAAAAAAAAAAAAAAAAAAAAAAAAAAAAAAAAAAAAAAAAAAAAAAAAAAAAAAAAAAAAAAAAAAAAAAAAAAAAAAAAAAAAAAAAAAAAAAAAAAAAAAAAAAAAAAAAAAAAAAAAAAAAAAAAAAAAAAAAAAAAAAAAAAAAAAAAAAAAAAAAAAAAAAAAAAAAAAAAAAAAAAAAAAAAAAAAAAAAAAAAAAAAAAAAAAAAAAAAAAAAAAAAAAAAAAAAAAAAAAAAAAAAAAAAAAAAAAAAAAAAAAAAAAAAAAAAAAAAAAAAAAAAAAAAAAAAAAAAAAAAAAAAAAAAAAAAAAAAAAAAAAAAAAAAAAAAAAAAAAAAAAAAAAAAAAAAAAAAAAAAAAAAAAAAAAAAAAAAAAAAAAAAAAAAAAAAAAAAAAAAAAAAAAAAAAAAAAAAAAAAAAAAAAAAAAAAAAAAAAAAAAAAAAAAAAAAAAAAAAAAAAAAAAAAAAAAAAAAAAAAAAAAAAAAAAAAAAAAAAAAAAAAAAACzMPSIAAAA/3RSTlMABRszSVhnd4eWpbXEzM7d6O7w++PNyLuyqpyLeVNBLx0KEDBQcI+kvdTq8dW6oIRqTjQUQ5Cw0KmFYj4CJVJ6osrzm28VBjJjk8PyjlsBKWH6uRkORH22qCsM/KxuCIPtrh8kuPfXRwkHRdn2tx4RX/T+yygTXrP5kTwabL/giCxVgCED/ZTrpmbaF5l2Eu/4TW1o7K+dIiqnhgvn1kon6Tk9zy3bP9KN3kINBIL1JuUYI7TiOtFlx5LfsUihHA8W08Dk3HhamHVdQNiVflxgiUzBvCC+yTh8e0+KwqOff+ZGLjtUaYGea6tycXQ2jOE1SzFRWVc3xq3FVnOaZJf4qAM1AAAjvklEQVR42u2daWAV1fmHT0AIKBBIZJMdypZABUERvUhAiAoatgRki8iiRJDlli1QhYRERJGwihIQUNACMSyKoKIgoCiodaFaFVvE+lfrhrZ1aet/mp27zL3znpkz8zvn3nm+8IVMfvO+T2bunTkLY9FDTJWqF1SrHluj5oUX1apdJy6ubr14rYSEesVcHFe/QcNGjS9p0rR6s+YtWrZCh3URRus2v2nbrn2HjokaD0mdOv/20i5dL+uGju9imirdu1x+RY94rr4HE1/7yp5XXV0FfTIuHHh6XdM7uU+Sxc7707fBtf2690efmYsRKdddf8OAgUJb70vdhjfe1CsVfZIuuqQOGnxtjyG29f489YZe2nUY+mxd/EhLHz6ingO9P8/FN3cZ6V4KpGDUBU1qj3a0+RUkjhnbwoM+/egmo/kttRIgza9g3K3Vx6OrEK1MGDtxErT5Fdx24+2T0cWINjLvaDcF3Xdfpt45dhq6JtHD9BlXzER3PBjv75rOQlcmGpg9Z+48dK9DEpc13/1qYCcLfn8X5gM/nbsXLkJXKVKZnD0X+4mfSqecxehaRR656ckS3vdDkVern/saUSRV71mC7ikvk+5t7n4cEEPa0vrobprjvtj70bWLAKou64tupHlGN8zORRdQadLGdkT30CpxDyxHV1FZJizMR7dPBCuSF6ErqSKp6Y1l/8pPp9ZK9wMhH6NWSfWo3zq3rXYHGtPplrMG3TDxLMmZjq6rIozPUuiRDw99sxaga6sAE5Y5Ma4PxIplLdH1lZw2a73oJtnLvAcnoGssMSOT89ANsp+8xuvQdZaUh5Ij53tfWOYtc0eVBzPo4Sj4669g5nr3G4E//bPUeNUvjIEL09A1l4iCWPtmc0nLkn7ue6IyYpZuQDcDw8ZH0KWXgmb3oRuBo9EmdPXhzJqIbgKUIcuie8r58hui7LNfMONWRe9HAc+czejyy0CPLehGgHj0MXTpJSFvWTQOGmqdFUUPfowY1y/qpplnu1d/PwZsRXfEUSY0RBdcOob0zER3xTFi+kXoiA9rbHsc3RiHqPoEutSSMvoP0TBuMCZW3tndcLbvQLfHdrYqOs3LIbzLdqI7ZCuF7p+/EXc/im6SjSyqgy6vAox+shDdJ7uYU4Qurhr02YXulC30b4QurDJM7Ydulg10340uq0rcuQfdL8HE5LhP/rnY3B3dMqHsdb/88ZIQG0ETilc6u5J3hPBUpLwkLnQv/+Z4eh+6dUKoUgtdSGWJiNtAuvvi3wKNC9D9s0hq0yiZ72cXz6i96GhGMrqAyjMuHd1EC1Tpgy5fBDA6Ft1G0+yL0ilfommv6H4k+91Xv4I4oOKD4dxn0WWLIJ57CN1ObgqeRxctohh4EN1QTvb8Dl2yCCNhKbqlXIy8G12wyGOhQk8Fd+SjqxWJvJCC7iuVOe7Hf1toOArdWRqr3Jd/NvE7JTYiikWXKYLZ+CK6u4akXo4uUkTzXC90gw1IuRldoginbht0i8NScCe6QBFPPZmHCaW5g3/sp+/V6DaH5NABdHGigiJZpxC3boAuTZRQJOecgenu6A+nKJJxlNB09/WPc0yVz4DDL6GLElVMvQPd8ABauzP/nWWqXN8F0tz7v9MkXYZuug+Tj6DLEYUskWeYWMpF6GJEJUdlmTOS2xhdiijlmBwbkXouRBciauk4G938Etz3vzj6SDB39GV0EaKaufDtRl6J8L1+Zec4uP873PGfYF6F9r9qX/T5Rz3e14D93+uu/oFnxQlY/6efRJ+8SzH1UCvLFrr7vsjBydYYAV5Hn7hLOUMh64uvQp+2SyV/APT/jqjf9FUm9jve/1n56HN28WGI0zuOtY7iPd+lpK6zswZTb0WfsEsADRxdPeAN9Om6BHG5g/2/w13/VULedKz/45egz9VFh75ODRLMcLf/kJOTDm06+QL6RF1C0N6R/v8RfZouIbnKgf5PGIg+S5eQzNxke/8z3TlgMlPf9qcB96BP0SUsb9nc/7fdMaByk2fvxPEX16BP0MWAuvfb2H/PO+jTczHkChsFeBV9ci4E5tjW/4cmoc/NhUB8S5v6X+iuAqQGnW3aWeAW9Im5ELHngWDVIejzciGSNM2G/rdyZ4Gow7s23ASaoE/KhQPxN4EW7g1AJcYdFtz/wtroU3LhIlmwAA+gT8iFE7HvBE7NRJ+PCyfbMkQK0Bl9Oi7cPCmw/zPQJ+PCz7xBwvo/PRF9Mi4m+JMwAdxRQGrSTFD/t7oTwdXk6VZC+p/qjgJRleFCBJiDPg0Xs0wdL6D/O3ejT8PFNPcKEOBG9Em4WMD6xjK73JdAKvOe5ffC7lIgapNtsf/vuxNB1Oa+GGsCuLtBq85qS/3PRsd3scpmK6tGxLiLwanPny0IMBYd3sU6Aw+b7v9O9y1gJNDEtAAfoKO7iGCm2UtA2jh0dBU5+eADHw4aP71wVP91WwbXeEqGPXU+MimAuxwoN6evD5yTE/NoE/iqiiYvAa3z0cEVw/txG91CZgw+Bk5m7hLwJLqgihEXeiD25BzsGxVTl4DlSeiKqkWjsMNvmsdDw71lQoCe6IqWk/jOCzmxsbE9/zJxAzpKOP5k8Mz9cegOm32Xc/c/DatsOe/8fqTP+8yW2e1lvSzlG+7k/ldoPv7HgRLMBRt9PHhke0a2nMuUrDcs6Kh8ZL66vPOEMs+gS6q9d51+tE96oJPpcNa4pMnQgNU5BdiPrqh2YchFT2PAn6l1GOIxLmlbaMIphIQ+eKagS3o83FimT+uh4wWQSKjpa9iI13AJ8Dd0RTuGv2eNPIoO6E9dQk1vwkbswyXAe+CC5hndU9vItWShAgJon3L0/3F0QdcaRvwMHdEPFQS4mUOAMeiCVjPOuBad0RcVBBhi+Kiikmnw2aAtjUP2l2m0igoCaDlkAWqgo46mTGd4E53SByUEOEPdTSQD/gI7iZSzETrmeZQQgHJjLeUqdFAtnpRzmDwjltQQoBZRAPy2UDQBJFq6SA0BtDaEmIw9io5JFoBdgQ5agSICvE6qant0TLoAC2R5JKyIAPGUNWMOFaFj0gWQ4ONKGYoIoL1CyNkFHVLjEICNQEctQxUB3iXklGFVaLoAVfLRWUtRRQDvXsOYW9EZS6ALIMHAhRJUEUD7P8OYz6IjlsAhQOpEdNgSlBHg4lyDlJlSPFzhEICNl2E3c2UEMFxFvho6YCk8ArDV6LSaSgJ8bpDyInTAUrgESB2KjquSAEmTw4ZcDp2+UAmXAOwU/iagjgAGYwOro+OVwScA+wKdVyUBvgwb8gg6XhmcAqQ2RAdWSIBJh8JkXJCHjlcGpwBsMXoZBoUE0GaEyfh3dLhyeAWAr2alkgATw2SU4TFwCdwCeMB7GqgkwJDpISP2QmergFsA1gv7DlMlAbQ3Q0Z8GR2tAn4B2FfQwEoJMCZkxAPoaBWYEMBzGhlYKQGKQg0LuV+S7wCmBGC7pgIDKyWA1jVEwqXoYJWYEYB9DQyslgCh3gfI8R6gBFMCeAbgAqslwJpC3YCj5Jlwa0oANgh3AmoJEGInoWboWOcxJwCLhQVWTICeugGxa9j4YVKAXNiyBooJUEcvn0ei2bYmBWAjV4ACKyaAd49OvqroVD6YFYD1BgVWTADdF0Ko2ulhWoDCPpjAqgmgt6PoXehQPpgWgA3C3ARUE2Bc8ODgAjkGg5VhXgA2HBJYNQG094PivY2O5IsFAQohr7SVE6B3ULwsdCRfLAjAziIuZcoJMDQo3m3oSL5YEYDlAAIrJ0BR4HpBVdCJ/LAkQMozzgdWTgBtS0A6OWYEVWBJANbC+bWk1RPg5YB096AD+WFNAHaL44HVE+DOgHSAy2YYLAqQ8oTTgdUToK//FjetpRkMVIpFAdhlTi91qp4A2jd+4R5Bx/HHqgBsvcOBFRSgn184+OKw/lgWIPMlZwMrKID/6wDgaCo9LAvAvhntaGAFBYjz+4NBvUcPgXUB2FuOBlZQAO2w798LOkwAAgTI7ORkYBUFWOmTTYa1AX0RIAB738mbgIoCXOqT7UF0mABECMC+dTCwigI09Mn2GDpMAEIEmOzg1ncqChB/fleODNk2YhQiANvi3E1ARQG0xZXR3kdHCUSMAKydY4GVFOA3ldHwiywFIEiAVvc5FVhJAf5aGe1zdJRABAnA9jn1ikNJAW6tjIbfIyYAUQKwGxwKrKQAlc8CPciZ9boIE6DVNmcCKymAt2LBuAnoJEEIE4Cd8DoSWEkBtPnlybqigwQhTgBW05HAagqwujyZNGtDVUIRoIAmwM7nnAispgDtypNJNC+8HIoAXbbSDNjhxE1ATQFGlCeTZXnI81AE+Oox4la4yxwIrKYA5V8DPDPRQYIgCUDdDTvtO/sDqylAXkZpsMXoHMHQBEg4RzOgu/03ATUF0MruorejYwRDE0DbOJnw/4q5xPbAigrwt9JgMuy5EwBRAK0JTYBDF9sdWFEB/lwazNnRcySoAuRdTfiPxaTbfRNQVIAHS4N9iY4RDFUAbfsomgF/sTmwogKU7SQr37dAugDaPTQB7L4JKCrAsdJgUmwV6Q9dAO9BmgHf2xtYUQHmeUr+ONApdKALoB2dTvi/zO7HnYoKoC0ozvUDOoQOHAIYboVZTuujdgZWVYCSZSL+gQ6hA48AfhMcwvChnYFVFeCfxbl+jw6hA5cAG2bTDLjQxsCqClCyTkhPdAgduATwGdsWltkb7AusqgBZTMIRoRqvANq/aAbYOPBFVQGuLM41Ah1CB04B1uwh/P9ibrYtsKoCHGESDgnWuAXQ5tIE6FbXrsCqCnCyOJeNd0bT8AqgDaYZkG1XYFUFKC60x+n1lIi5+ARImkYzwK73HqoKoE1me9AR9OAWQOuQSviR4pvAZnsCKyvAKdYCHUEPfgG0L2iXAJtWRFVWgB9Zc3QEPUwIUNSLZsAYWwIrK8BBKZ8EmxFA+ymX8EOM9bdlbyxlBfgXG4yOoIcZAbRXaZcAW/qgrADVWVt0BD1MCbCCOFPkVhsCKytALGR7BUNMCaDViSH8GGPDbBgBo6wA6x1cRoUDcwL4LHkRlhniAysrQE0p3wWZFYA6U2St8MDKCnAh+xkdQQ+TAmgvZZIEqJIvOrCyAjzF3kVH0MOsANpbtEuA8K8+ygrQgf2EjqCHaQHyHqUZIPoduLIC/CLjrAALAmhxtJkiC/LFBlZWgPrM4Z0VaJgXQHuWdgnYLzawsgJ0Yo6tpciDBQG8t5MESL1TaGBlBdjO7kZH0MOCANrFrUkGTBsoMrCyApyRckCQJQG0S0gCiJ0Vr6wA+WwNOoIelgTQvicJkNpBYGBlBShi8i0QpFkV4Axtpsh4gTcBhQVAbLZuiDUBtIdJAohcJF1hAZzdXo2IRQG0f5MESG0oLLDCAsi2WUgpVgVYQpspsrivqMAKCyDZjoFlWBVAa0QSgI0VFVhhASahI+hhWQBtBkkAzzuCAissQBE6gh7WBYinzRQRdRNQWABht0GRWBdA60ybKfIVLZARygrQlwl9IioKAQJon5EE8JwWElhZAdaweHQEPUQIMJM2U2SXkP1ylBXgqIyLxIkRQDvtIRnwtYjAygoQF4Evgyr5D0kAzwABgZUVYCM7ho6ghxgBViwiGbBJwE1AWQEeY0+gI+ghRgCtPm2mSKz1wMoKcIAdQEfQQ5AA2nCSALnvWQ6srADvMJFvxYUhSoCEy0gGzLL8OFRZAZ5ic9ER9BAlgNYpg2RAb6uBlRXgQnYlOoIewgTQ1pMEKOxjMbCyAkTW3EAd8uYTDsXYIIs3AWUFqOHY/tpciBNAm9KKZMBwa4GVFaApexIdQQ+BAmiXkwQotDZDSlkBPmP90BH0EClAXnOSAWctDY5UVoBX2GvoCHqIFEB7bifJAEtLpSgrwNvsEXQEPYQKoP2XJEBhfQuBlRXgG/YjOoIeYgXQHiEZ0MLC+FhlBTjFJqAj6CFYgDPLSQbcYj6wsgK0YtPREfQQLIDWniRAivkXY6oKMJCx1IhYLdyIbJIBP5i+CagqQMnOkTatn20J4QIkHiYZsN5sYFUF+IlFxo4hxjxPEiDT7HopqgqwtjhXI3QIHcQLoL1GMuAbk1MlVRVgWXGumugQOtggQHxLkgFvmQusqgAfFOf6AB1CBxsE0BqSZopkdjQVWFUBSq6Lf0SH0MEOAbTqpEvAj6ZuAqoKcHVxrnR0CB1sEWDmBJIB35oJrKoA44tzzUKH0MEWAbRapD1FMjuZCKyoAKNLhk3vRKfQwR4BtK9Il4AtJm4CigrwdGkwCdcJs0mAFSNJBpjYQkFRAQaUBpNwZoBNAmjvFVIEaLWN+8CKClD2jqQ9OkYwdglQ+r3XmH15vMdVVIA3SoNJuGuQbQIMqUoy4Fne4yoqQLXSYG+iYwRjmwDEmSLcNwFFBbiuNJiEY4LsE0C7lHQJOOHlO6qaAnjLRkvORucIxkYBEn4kGfA631HVFOBoebJ66CBB2CiAdnIyRYACvnUT1BTgT+XJGqCDBGGnANqNpEtAd66bgJoCHC9Pdgk6SBC2CpD3OMmA4zzH3KykAG3Lk8k3OchWAYgzRQrieI7ZTEUBKuZM7UAHCcJeASovfeHhugkk9ldQgG7lybqhgwRhswDeC0gGXMtzzBfUE+BoZTTploqzWQBtN2mmSNrTPMfsqpwAF1VG64yOEojdAmjJpEtAOs9NYLfRbmXSCVCjMtof0FECsV0A7W8kA7iWTzH6ZCGdAP+sjPZHdJRA7Bdgs/GHtmJaH+U4pNdgIQLpBFhUGe0sOkog9gugjSFdAt7mOeSx8KvRyCZA0fnBEbmybRrggADaTSQDXuA5ZDulBDjtk03UzimicEKA/JYUAQ7x3ATCL0kmmwDf+mRrgg4TgBMCEPcU4boJnAw32kA2AXz31vs3OkwAjgig7acIwC7kOWRPhQQ45ZPtFDpMAM4IMHMvRYDZPI/Jwi1OLJkAiX7h6qLj+OOMANoA0p4iXXkO+UzoFeolE2CuXzjJlox2SACtH0UAdjPPIUOvUC+ZAG/4heuNjuOPUwIUbaII0I1nEZXQk08kE2CHX7hP0XH8cUoA7QBpuuCHPId8L9Qh5RJgnv9TqxS5NhB1TACtKUUA9iXPIb9WQoABAeneRQfywzkB5p2lCMB3ExikggCBX1gtLpcuGOcE0HqkUAyoxnPIX/S/XMglwCcB6a5GB/LDQQG0JykCsDE8h/xCfgESAsdFZkq1jbyTAiR8QxGgfyLHIWeuk16ABkHx7kJH8sVJAbSNpOmCXO0bmmr1CHazMCjeG+hIvjgqgN9rsdA8z3PIwbILsCMonlRTRJ0VgDZTZBjPNtvxL8otwMzMoHgemdYMdlYAbTtppsgcnkPODf55mQR4Suf8uF572ozDAmg1KQKwtTyHrCa1AKusCm4zTgtAmymygGca9ZLDMguwS+f0+nMvjGMfTgugHZ1OMWAwzyEflliA53RPz8qmSYJxXADttxQB2AieQ/5DXgH0pzD0RMc6j/MCaB9SBGgZz3HEMwFXFYkE0J/GJtErYYAAdbsRfif7leeQn8sqQJH+IimeM+hglQAEKN08w5DUO3kOeVBSAX4OcXb/jw5WCUIAn6lyYaiSz3HE7/yeL8gjwJwQJ/cJOlglEAHyXyT8Vlad55CvSynA6FB3uxhplguDCKD/CieQ1KEcR/R2l1GAu0Ke3MfoaBVgBNCup1wCxg/kOOL2AgkFaBvy3K5BR6sAJEDSeIoBXXgO6fOmURYBvItDnlqrmehw5YAE0DqQbgI8C6rkfSqdAA3CnBvXwCcbQQmg+5IkiHU8fycdK1+8yiJAuH1T/oEOVw5MgKJdhN/MxvIc8hbJBMirEubMUngGPdgITADtJ8pMEc8RjiMmVGxRIIkAR8KeGtfSePaBE0CLpVwCFvMsqdIjRioBPgt7ZifQ8coACrBiK8UArl/eWyYBEg6Hv7hxrY1oG0ABtMcoM0U8pzmOWD5fVA4BJhqc2UfogKUgBdByKJeAXVM5jlj2wUIOAeYYnFgLdMBSoAIknKMY8DXPIb+SRoCkVkYnVgcdsQSoANpGyp4ingEcRyyaIIsA/zU8sS/QEUvACqB9RLkEbOK5CRxJlUSALYbndUiGlQLAAuRdTTEglueQq+UQYArhWTfX2pg2ARZA2z6KEMBTi+OISdOkEOABwnnNR4fU8AJo91AuAbN4ZlQ3TJVAgIQFlPPaiI4pgQDedEqlevMccoYEAjSinBX7DzqmBALQZooU9uE5pwewNS3hIOGkGOu2Ap1TAgECx3Trs3UexxHxA+6OkRbGZOy36KAyCKBdQymVXEsrGfE15ZSK+QEdVAoBEg8TQhTWRpeKg6mziQIwnodctiCDANqtlFKd5bkJgCHd1UrJRkeVQgDtX5Ra5aBrReccWYBC9EthOQRYs4cQI6UHuFZk+pD7z9jL4KxyCKC3zkswLYaAi0WFNPWtnOngFwKSCKC72FcQT2JrReXiGMrJVACeJyqLAPHTCEFSnsAWi8jfefrP1iVAw8oiAG2myA8q3ASSDnEJwO6FppVGgBDL/gawHlosGgspJ+LDWZ59k4UjjwBFvQhRMl9CFovEkJacArCLkHHlEYA2U+Q66W8CtEWwfIEOC5BIAO1VSrXeQlaLQN4ibgGgz4NlEoA0UySzI7BaBL7k7z+7AJhXJgG02pQv0FtGA8tliLeNCQHYT7jAUgmg/ZVSrW9x1TLmCjP9Z+m4wHIJQJopktkJVy5DKCegA24TEbkEoO0pIvFN4CJz/Qd+EZBMANpTlHawchnxKSW+Hg1RiWUTYPQ+QqBW21DlMsBoQnBozqEeB8omgBZHmSmyT6IF933wXmdaAPYUKLN0AmjPUsr1LKhc4XmYEj0Eg0AvBeUTwHs7IZKUN4EhEywIgFozSD4BtItbEzKdgL5C0+d1Qu7Q3M+zLqo4JBRAu4RSr9ch5QrHTMrAxjBgBr3KKEDQFjB6FByD1CsMl1rrPxsF2UVCSgHOLCek6i7ZTSCRcyBQMPsRsZMIwf7ueKp7KfU6jqhXaFZb7T/LRYx2GU0YigfY7DibUK+07wD1CskTlOEsBuxABCfs4FTT+VRL7ifU6xOZbgLdCYENuVnO4DwLtIiC9FpVkuV2yXkNeZFnYVxB1DBM1RoyK3MGoV7y3ATmUUa0EgBMFNtueO9aCilpfktCvZBjqfxoIqb/LOWk89nfNMhUeB+mpqSNpT7HZAvkjOWvgBXcAQhvsEZPb1RVPyPU6xB6dnUZ1QhRifzsfPorwq5nMx+2LkPfvYR6vY1K58tQcf1nVXg2TRbE8TAGXLcGV9fTlJWWJFhtc5Klt4CBrAacwc9podKsBPh4nv8Q6rUcvw/zGyL7z7dBgiie+7fuJ64Ff8E+apk0iFCwrtCIxZzMJKTkgGtZVGHUuiPoersgB765YZ9CQsHaYzN6d4jtP2N/xpzI0Y/2+WxxcGrGUBkGXw8n1Gv2BmhE/smgRsTA1sFIeCa53RurXq1xfOISaE3PM48y0wq6B+Nuykq3nHyDXTREKp6g3GAfBgZcKb7/yiyG5AjrCfWaXRcWL9mO/vOtjR3h5M0nFOxDVLoNlLFLJhjEs0tOhHOMMlOkMSgcaZ1rM0iwk4A0XE6o12HMp1YrM0HC48HNF5aOvOaEglVDJDtKXhScn1NJ6LrLw3NphIKNcT5XnpBhYKGYgS67RBjvwchY/0THY5E2PTRPMrrsEvEIoV6O7xRVh7L3tQUKbkOXXR5IM0VudTbTpEX29p+xrZC3QnLSnlCvYeMcjWR9Iogh/dBll4hmhHrNcTKQmHHg4Um9Al12eSDNFFnrXJ7vbPwGeJ7Z36HrLg+UjaWq5DuVZsU5J/rPWBv3kXAlrxHqNdipMKS17UUAmTEsJ/EtCfUa4UyWK53qP2OXoOsuDw0JM0UWOLJr7H2UR5OCyHDfDFdSnVCvXx3IMekH5/rP2HjgwHzJ6LvYuFypQ+3PYTSZTjCfyDA4Uw6OEGaKTLP9LZqoiaBkHF+iR16+IpSrus0ZOgtYCoQT8NaCErFipHG1bL4JTLFhFLARMR3QhZeG+oQ9RcbbueLiQIKC4lkOmqIvIR8QytXFvl+fZ8socGMGQedoysS8FsbVSrVvPN3LmP4zdrs7V6ScHoRhGOvsmtR4Lar/jF2PLrw0UFZkXWXPr55ImatqF5ilhCUk4UfjYnmO2PGbO1KWMbcP+ZbHBnFysnGxFtuw4N7ultD+s1x3eEg5NxKq1Vb4bx1oaktIkRS474XKyHvcuFge0cubDjmI7j9jh2XcJwXBdsJ0wV1ix9LkvYLufgkt70aXXhKOE4oldnplW3Tvy+iFXQ1FGrwXGNfKI3JT9t7ozldw1tmx79KymzBTZJO4mwBpKztn+BGzt5R0JBNq9YCoX/YCZdlip+juzhcqhbCxVO57Yn7VGOdHAIRjJWzxXqnY3N+4VA+tEPGb1hJeQTvKBe41oATK3KzeAn7PCMELgboGiOIm40oJWG1Lwv4zdtA1QKPtKTLIaqXuzEA3W5fbXQOK6Uz4cD7c2q+QtP/uXaCM/caFiqlj5RdcJOP1v4x0wAZj0jHwlHGhWlj40tTY5kVgLHFOlvWckQwgzBQxP5LmY+QAIGMeOoouvwT0M65TYW2Tx76HsmMNksXu22Ft0kPGdWoxxNShF6L7a8we2MYC8nCA8JjWzOLrXsp+RXBmN0DXHw9hpH4K/x9KwmB0b2lkXImuP5x5Z43L1Ib3JjDze3RnqeTegG4AHMpMkZ58h9xQFd1XDvrloTuA5knjImW+xHPAbUI3grSdZtH+UDDhG+MiXcdxEzjQDd1STh6P9mFiGwkP7N8iH+1LWR//h2ZvJ3QLwHxrXKPMjsRjZcn++EePnY3QLcBCmSnyI2mppUlz0L00R+5CdA+wbN9pXKMmhOPsJnyckJRXovujYE3jCmUa3yjrtES30QKf4jZPlADvHYQKGX1hTlbv458vVX5BdwHJ04S5++3CHiFBiaf/4ShciO4CEsIm3q3CrbW12dYtwByiWjQPEyLsKbIv9E3gnWHo5glhE/XbbgSSeNi4PlkhftabJdvkD7OkoTbRlYDGxuUpiNP9yfwP0X0TyNLo3WSkmnF1Tnh1fq7+XnTThDKrB7oRKPJfNK5O8FJb3ix5x36bIyPLa6J6kcBQ45kiBccCfmYzZVdS1fhNtL4fvN64Ns39/zom7kE3yxamRen64knjjWtz3Of/T+0i09IPIkkdG52fBTsYN3Tn+ZW2ekDWfneIdSLXSFKHVcaV2VF+E0hYGGmf/vwpjI3GpUSKdhlX5trS/9nxMnSHbOeHaJw48ovxTJFDTxf/+V8q88RPURTGRuEogVjjuqR7O55D98YhZp1G98NxViwyLkuzyL77+5I6J+qeCTwWDRd3DoaNQXfEaXLQJZeNldvRLXGWhHPoisvG5Jzo+jC4kbCnSJSxdy66KY7yEbreErIyDt0VB8m7Gl1uCcl42fZ9teVhWwG63DIyOyt6tp+8B11sOdkUNUMGvRLs8SQl6dEyYOy7Q+hSS0pq9hR0b5zhc3SlpcWTHYdujiNcgy60vKQsPYPujgNQZopELQWxiej+2M/N6CpLTau2kb7W8E8r0TWWnJQ591mvsrTUcttvjCd7I7pP9uCd+z66torg6XoXulniSWi/CF1XlWizLLLeFSdlEWaHuPiyJ2cNumvC2NbPfQ1kgoLqj6E7JwJv50dUXOZRDrYkq34niH99EbqIatN6qcpLztZeOgpdQPXxpLcvQjfSFPk3bEXXLlJI+3WAastL5B2Z4Q4CFcm02Dh0TznYmLMOXbAIpGqWGq8L1yybjy5VpJK7Y5nsDwfWfH47Yc84F9PEHLxkM7rJITlTM13ujV0jA0/VHLMbr9rJd1lu952j19fvyDSaPOF00zbokkQdBekL5bgQJDaeMx1djGhl3epb46HNnzm0adVIXdRNEXJHLk1+GtL8oloL06NnUQ+5GbT04zhHm1/3+aafRspi7pHCofn9Gm9woPdDOi2bM9K97EvKtGY9n99u23uDendl/XqZ+4cvPTvf35/VYbfQ1vet83DT71uiT8yFh1Ftspt+PsDqTWFqp7Uf7T+xAH0yLqbJmHDitQ9qzn3mDMdW3ZqWP+V0+xpfrGwzGx3fRRytd+3retWrNbKubTziSO1jcXH1ihld/FW++J+jcXEvNWj4c/LxhcNX/XPH1mHRc5//H7NkgbjlCzQwAAAAAElFTkSuQmCC;" parent="1009" vertex="1">
                    <mxGeometry x="160" y="75" width="74" height="74" as="geometry"/>
                </mxCell>
                <mxCell id="cqQEUTwVSI_gsDL_SZ2G-1027" value="Twitter Login" style="text;html=1;resizable=0;autosize=1;align=center;verticalAlign=middle;points=[];fillColor=none;strokeColor=none;rounded=0;" parent="1009" vertex="1">
                    <mxGeometry x="200" y="40" width="80" height="20" as="geometry"/>
                </mxCell>
                <mxCell id="cqQEUTwVSI_gsDL_SZ2G-1028" value="Spotify Login" style="text;html=1;resizable=0;autosize=1;align=center;verticalAlign=middle;points=[];fillColor=none;strokeColor=none;rounded=0;" parent="1009" vertex="1">
                    <mxGeometry x="240" y="84" width="80" height="20" as="geometry"/>
                </mxCell>
                <mxCell id="cqQEUTwVSI_gsDL_SZ2G-1032" value="AutoTweet Config" style="text;html=1;resizable=0;autosize=1;align=center;verticalAlign=middle;points=[];fillColor=none;strokeColor=none;rounded=0;" parent="1009" vertex="1">
                    <mxGeometry x="199.5" y="149" width="110" height="20" as="geometry"/>
                </mxCell>
                <mxCell id="1020" style="edgeStyle=orthogonalEdgeStyle;rounded=0;elbow=vertical;html=1;labelBackgroundColor=none;startFill=1;startSize=4;endArrow=blockThin;endFill=1;endSize=4;jettySize=auto;orthogonalLoop=1;strokeColor=#4284F3;strokeWidth=2;fontSize=12;fontColor=#000000;align=left;dashed=0;exitX=0.5;exitY=0;exitDx=0;exitDy=0;entryX=0;entryY=0.5;entryDx=0;entryDy=0;entryPerimeter=0;" parent="14" source="_0M5Wq5q9TD21tJrrO1c-1050" target="_0M5Wq5q9TD21tJrrO1c-1053" edge="1">
                    <mxGeometry relative="1" as="geometry">
                        <mxPoint x="212.30769230769224" y="479.19019607843154" as="sourcePoint"/>
                        <mxPoint x="457.77999999999975" y="209.41000000000008" as="targetPoint"/>
                        <Array as="points">
                            <mxPoint x="247" y="216"/>
                            <mxPoint x="400" y="216"/>
                            <mxPoint x="400" y="116"/>
                        </Array>
                    </mxGeometry>
                </mxCell>
                <mxCell id="1024" value="" style="strokeColor=#dddddd;shadow=1;strokeWidth=1;rounded=1;absoluteArcSize=1;arcSize=2;fillColor=#FFFFFF;" parent="14" vertex="1">
                    <mxGeometry x="50" y="96" width="230.37" height="60" as="geometry"/>
                </mxCell>
                <mxCell id="1025" value="Firebase Authentication" style="dashed=0;connectable=0;html=1;fillColor=#5184F3;strokeColor=none;shape=mxgraph.gcp2.firebase;part=1;labelPosition=right;verticalLabelPosition=middle;align=left;verticalAlign=middle;spacingLeft=5;fontColor=#999999;fontSize=12;" parent="1024" vertex="1">
                    <mxGeometry width="32.4" height="45" relative="1" as="geometry">
                        <mxPoint x="5" y="7" as="offset"/>
                    </mxGeometry>
                </mxCell>
                <mxCell id="_0M5Wq5q9TD21tJrrO1c-1049" value="" style="shape=mxgraph.gcp2.google_cloud_platform;fillColor=#F6F6F6;strokeColor=none;shadow=0;gradientColor=none;" parent="14" vertex="1">
                    <mxGeometry x="7.41" y="10" width="22.59" height="20" as="geometry"/>
                </mxCell>
                <mxCell id="_0M5Wq5q9TD21tJrrO1c-1053" value="" style="strokeColor=#dddddd;shadow=1;strokeWidth=1;rounded=1;absoluteArcSize=1;arcSize=2;" parent="14" vertex="1">
                    <mxGeometry x="420" y="86" width="200" height="60" as="geometry"/>
                </mxCell>
                <mxCell id="_0M5Wq5q9TD21tJrrO1c-1054" value="&lt;font color=&quot;#000000&quot;&gt;UserData&lt;/font&gt;&lt;br&gt;Cloud Filestore" style="dashed=0;connectable=0;html=1;fillColor=#5184F3;strokeColor=none;shape=mxgraph.gcp2.hexIcon;prIcon=cloud_filestore;part=1;labelPosition=right;verticalLabelPosition=middle;align=left;verticalAlign=middle;spacingLeft=5;fontColor=#999999;fontSize=12;" parent="_0M5Wq5q9TD21tJrrO1c-1053" vertex="1">
                    <mxGeometry y="0.5" width="44" height="39" relative="1" as="geometry">
                        <mxPoint x="5" y="-19.5" as="offset"/>
                    </mxGeometry>
                </mxCell>
                <mxCell id="_0M5Wq5q9TD21tJrrO1c-1055" value="" style="strokeColor=#dddddd;shadow=1;strokeWidth=1;rounded=1;absoluteArcSize=1;arcSize=2;" parent="14" vertex="1">
                    <mxGeometry x="390" y="495.99999999999994" width="200" height="80" as="geometry"/>
                </mxCell>
                <mxCell id="_0M5Wq5q9TD21tJrrO1c-1056" value="&lt;font color=&quot;#000000&quot;&gt;AutoTweetConfig&lt;/font&gt;&lt;br&gt;Cloud Filestore" style="dashed=0;connectable=0;html=1;fillColor=#5184F3;strokeColor=none;shape=mxgraph.gcp2.hexIcon;prIcon=cloud_filestore;part=1;labelPosition=right;verticalLabelPosition=middle;align=left;verticalAlign=middle;spacingLeft=5;fontColor=#999999;fontSize=12;" parent="_0M5Wq5q9TD21tJrrO1c-1055" vertex="1">
                    <mxGeometry y="0.5" width="44" height="39" relative="1" as="geometry">
                        <mxPoint x="5" y="-19.5" as="offset"/>
                    </mxGeometry>
                </mxCell>
                <mxCell id="_0M5Wq5q9TD21tJrrO1c-1076" style="edgeStyle=orthogonalEdgeStyle;rounded=0;elbow=vertical;html=1;labelBackgroundColor=none;startFill=1;startSize=4;endArrow=blockThin;endFill=1;endSize=4;jettySize=auto;orthogonalLoop=1;strokeColor=#4284F3;strokeWidth=2;fontSize=12;fontColor=#000000;align=left;dashed=0;exitX=0.5;exitY=1;exitDx=0;exitDy=0;startArrow=none;entryX=0.5;entryY=1;entryDx=0;entryDy=0;" parent="14" source="1004" target="_0M5Wq5q9TD21tJrrO1c-1055" edge="1">
                    <mxGeometry relative="1" as="geometry">
                        <mxPoint x="489.99999999999955" y="418.5" as="sourcePoint"/>
                        <mxPoint x="755" y="254" as="targetPoint"/>
                    </mxGeometry>
                </mxCell>
                <mxCell id="_0M5Wq5q9TD21tJrrO1c-1062" style="edgeStyle=elbowEdgeStyle;rounded=0;elbow=vertical;html=1;labelBackgroundColor=none;startFill=1;startSize=4;endArrow=blockThin;endFill=1;endSize=4;jettySize=auto;orthogonalLoop=1;strokeColor=#4284F3;strokeWidth=2;fontSize=12;fontColor=#000000;align=left;dashed=0;exitX=0.5;exitY=0;exitDx=0;exitDy=0;" parent="14" source="_0M5Wq5q9TD21tJrrO1c-1050" edge="1">
                    <mxGeometry relative="1" as="geometry">
                        <mxPoint x="-90" y="206" as="sourcePoint"/>
                        <mxPoint x="250" y="156" as="targetPoint"/>
                        <Array as="points">
                            <mxPoint x="20" y="216"/>
                        </Array>
                    </mxGeometry>
                </mxCell>
                <mxCell id="1026" style="edgeStyle=orthogonalEdgeStyle;rounded=0;elbow=vertical;html=1;labelBackgroundColor=none;startFill=1;startSize=4;endArrow=blockThin;endFill=1;endSize=4;jettySize=auto;orthogonalLoop=1;strokeColor=#4284F3;strokeWidth=2;fontSize=12;fontColor=#000000;align=left;dashed=0;exitX=1;exitY=0.5;exitDx=0;exitDy=0;entryX=0.5;entryY=1;entryDx=0;entryDy=0;" parent="14" source="_0M5Wq5q9TD21tJrrO1c-1050" target="_0M5Wq5q9TD21tJrrO1c-1053" edge="1">
                    <mxGeometry relative="1" as="geometry">
                        <mxPoint x="300.3699999999999" y="216" as="sourcePoint"/>
                        <mxPoint x="460" y="116" as="targetPoint"/>
                    </mxGeometry>
                </mxCell>
                <mxCell id="_0M5Wq5q9TD21tJrrO1c-1073" value="" style="edgeStyle=orthogonalEdgeStyle;fontSize=12;html=1;endArrow=blockThin;endFill=1;rounded=0;strokeWidth=2;endSize=4;startSize=4;dashed=0;strokeColor=#4284F3;exitX=0.5;exitY=1;exitDx=0;exitDy=0;entryX=0;entryY=0.5;entryDx=0;entryDy=0;" parent="14" source="_0M5Wq5q9TD21tJrrO1c-1050" target="_0M5Wq5q9TD21tJrrO1c-1055" edge="1">
                    <mxGeometry width="100" relative="1" as="geometry">
                        <mxPoint x="-90" y="461" as="sourcePoint"/>
                        <mxPoint x="360" y="436" as="targetPoint"/>
                    </mxGeometry>
                </mxCell>
                <mxCell id="cqQEUTwVSI_gsDL_SZ2G-1029" value="Twitter認証" style="text;html=1;resizable=0;autosize=1;align=center;verticalAlign=middle;points=[];fillColor=none;strokeColor=none;rounded=0;" parent="14" vertex="1">
                    <mxGeometry x="165" y="186" width="70" height="20" as="geometry"/>
                </mxCell>
                <mxCell id="cqQEUTwVSI_gsDL_SZ2G-1030" value="Spotify&lt;br&gt;ユーザー情報&lt;br&gt;登録" style="text;html=1;resizable=0;autosize=1;align=center;verticalAlign=middle;points=[];fillColor=none;strokeColor=none;rounded=0;" parent="14" vertex="1">
                    <mxGeometry x="510" y="296" width="90" height="50" as="geometry"/>
                </mxCell>
                <mxCell id="cqQEUTwVSI_gsDL_SZ2G-1033" value="Pub/Sub Schedule" style="text;html=1;resizable=0;autosize=1;align=center;verticalAlign=middle;points=[];fillColor=none;strokeColor=none;rounded=0;" parent="14" vertex="1">
                    <mxGeometry x="30" y="516" width="110" height="20" as="geometry"/>
                </mxCell>
                <mxCell id="cqQEUTwVSI_gsDL_SZ2G-1034" value="Tweet情報登録" style="text;html=1;resizable=0;autosize=1;align=center;verticalAlign=middle;points=[];fillColor=none;strokeColor=none;rounded=0;" parent="14" vertex="1">
                    <mxGeometry x="275" y="516" width="100" height="20" as="geometry"/>
                </mxCell>
                <mxCell id="cqQEUTwVSI_gsDL_SZ2G-1035" value="登録情報取得" style="text;html=1;resizable=0;autosize=1;align=center;verticalAlign=middle;points=[];fillColor=none;strokeColor=none;rounded=0;" parent="14" vertex="1">
                    <mxGeometry x="395" y="581" width="90" height="20" as="geometry"/>
                </mxCell>
                <mxCell id="cqQEUTwVSI_gsDL_SZ2G-1037" value="自動Tweet" style="text;html=1;resizable=0;autosize=1;align=center;verticalAlign=middle;points=[];fillColor=none;strokeColor=none;rounded=0;" parent="14" vertex="1">
                    <mxGeometry x="520" y="460" width="70" height="20" as="geometry"/>
                </mxCell>
                <mxCell id="818" value="Architecture: Favotify" style="fillColor=#4DA1F5;strokeColor=none;shadow=1;gradientColor=none;fontSize=14;align=left;spacingLeft=50;fontColor=#ffffff;html=1;" parent="1" vertex="1">
                    <mxGeometry x="40" y="20" width="1080" height="40" as="geometry"/>
                </mxCell>
                <mxCell id="987" value="" style="strokeColor=#dddddd;fillColor=#ffffff;shadow=1;strokeWidth=1;rounded=1;absoluteArcSize=1;arcSize=2;labelPosition=center;verticalLabelPosition=middle;align=center;verticalAlign=bottom;spacingLeft=0;fontColor=#999999;fontSize=12;whiteSpace=wrap;spacingBottom=2;html=1;" parent="1" vertex="1">
                    <mxGeometry x="70" y="340" width="91.54" height="70" as="geometry"/>
                </mxCell>
                <mxCell id="988" value="" style="dashed=0;connectable=0;html=1;fillColor=#757575;strokeColor=none;shape=mxgraph.gcp2.laptop;part=1;" parent="987" vertex="1">
                    <mxGeometry x="0.5" width="50" height="33" relative="1" as="geometry">
                        <mxPoint x="-25" y="18.5" as="offset"/>
                    </mxGeometry>
                </mxCell>
                <mxCell id="1000" style="edgeStyle=orthogonalEdgeStyle;rounded=0;elbow=vertical;html=1;labelBackgroundColor=none;startFill=1;startSize=4;endArrow=blockThin;endFill=1;endSize=4;jettySize=auto;orthogonalLoop=1;strokeColor=#4284F3;strokeWidth=2;fontSize=12;fontColor=#000000;align=left;dashed=0;exitX=1;exitY=0.5;exitDx=0;exitDy=0;entryX=0;entryY=0.25;entryDx=0;entryDy=0;" parent="1" source="987" target="1009" edge="1">
                    <mxGeometry relative="1" as="geometry">
                        <mxPoint x="665.3846153846155" y="266.9281045751634" as="sourcePoint"/>
                        <mxPoint x="743.8461538461538" y="346.01307189542484" as="targetPoint"/>
                    </mxGeometry>
                </mxCell>
                <mxCell id="1022" value="External SaaS&#10;Providers" style="points=[[0,0,0],[0.25,0,0],[0.5,0,0],[0.75,0,0],[1,0,0],[1,0.25,0],[1,0.5,0],[1,0.75,0],[1,1,0],[0.75,1,0],[0.5,1,0],[0.25,1,0],[0,1,0],[0,0.75,0],[0,0.5,0],[0,0.25,0]];rounded=1;absoluteArcSize=1;arcSize=2;html=1;strokeColor=none;gradientColor=none;shadow=0;dashed=0;fontSize=12;fontColor=#9E9E9E;align=left;verticalAlign=top;spacing=10;spacingTop=-4;fillColor=#FFEBEE;" parent="1" vertex="1">
                    <mxGeometry x="930" y="80" width="190" height="670" as="geometry"/>
                </mxCell>
                <mxCell id="1007" value="" style="shape=image;verticalLabelPosition=bottom;labelBackgroundColor=#ffffff;verticalAlign=top;aspect=fixed;imageAspect=0;image=data:image/png,iVBORw0KGgoAAAANSUhEUgAAAsUAAALFCAYAAAAry54YAAAACXBIWXMAAC4jAAAuIwF4pT92AAAAGXRFWHRTb2Z0d2FyZQBBZG9iZSBJbWFnZVJlYWR5ccllPAAAQAlJREFUeNrs3VtyE0cbBuDGxX2cay5QVoCzApQFpHBWgLinCrMCxApiqnKPWEFMsYDIK4i9gsgXuf7tFfifRj14InzQYc7zPFVTIiEH0xrNvPPp6+5H19fXAQAAhmzPEAAAIBQDAIBQDAAAQjEAAAzaY0MAsJ4nX14fZC/7hb8Vf31wyz96198vw2V2nN3xe/OVvz7799c/Lr1zAA97ZPUJYKABtxhci2G3+OtRdjzt0R/7tBiYU8Au/voyC9Fnzg5AKAboV+AtBt9xIfT+YJQedJ4H5UJoPhOcAaEYoF3BNw+940L4ja/PjE4trlbC8iIdWjYAoRig5OCbh91ROsahfy0NfXVaDMrxVYUZEIoBHg7A45Xwq82hn84LQXmewvLCsABCMTC08JtXf/MQHH+t5WHYroohOSxbMFSVAaEY6FUIHqfgmwdhrQ+s67QQls9UlAGhGOhKAB6Fm9aH+KoCTJmu8oAcX7OQPDckgFAMtCEE5+E3P/QAU7fzFJTnKShb+QIQigEhmMG7WAnJC0MCCMWAEIyQHMJJUEkGhGJggxA8KgTgQyGYHjrPQ7KeZEAoBopBOA/A8dXEOIYkn7iXh+SFIQGhGBhOCN5PITgPwqrBsJRP2ptZJxmEYqCfQXiUQvAkqAbDOmIV+STcVJH1IoNQDHQ0CB+kEBzDsA0zYDef85AsIINQDAjCgIAMQjEgCAMCMgjFgCAMCMggFAMNBuFRCsFHgjB0IiDHVSxODAUIxcDuQThfPm2SHc+NCHROvorFsWXeQCgGNg/D4xSEXxoN6I245fRxWLZXLAwHCMXA7UF4lIJwPLRHQL9prwChGFgJw3l7xAujAYMT2ytmYdlesTAcIBTD0ILwKAXhOGnONstAdBqW1eOZoQChGPoehlWFgYfE6vFxCsgLwwFCMfQlCO+Hm6qwXmFgE7H3OLZWzA0FCMXQ1TA8yl6mYbmkmhYJYBcX6XpiYxAQiqEzYTjfYMO6wkDZtFaAUAytDsL5JhvToEUCqMenYFMQEIqhRWH4KFhFAmjOaQrH1jwGoRhqD8OjoF8YaJevfceWdAOhGOoMw7ZfBtocjvO+Y5PyQCiGUsPwOIVhk+eArsgn5R0LxyAUgzAMCMfCMQjFIAwDCMcgFIMwDCAcg1AMwjCAcAxCMdwXhg/STUEYBoRj4RihGAYXhkfB0moAq+H4yDrHCMUwjDAcd6A7FoYB7mQTEIRi6HkYth0zwPrOw7JyPDcUCMXQj0A8CcvqsDAMsLnT7Jhk4XhhKBCKoZtheJy9zLLjqdEA2NmnsKwcm4yHUAwdCcNWlACoxteVKrJgPDUUCMXQ3jBsEh1APeJkvFg1PjEUCMXQrkAcJ9BNg75hgDqdpnB8ZigQiqHZMDwO+oYBmvYhLJdx02+MUAw1h+FRWLZKvDAaAK1g8w+EYqg5EE+D9YYB2kpLBUIxVByGx0GrBEBXaKlAKIaSw7BVJQC6KbZUTKxSgVAMuwfiSbAbHUDX2RUPoRi2DMOjsGyVsAEHQD/EqnFspzg2FAjFsF4gngYT6QD66jwsq8Ym4iEUwx1hOG7PPMuOZ0YDoPfe2y4aoRi+D8TxwvjOSAAMSqwax+Xb5oYCoZihh2HVYQAs34ZQzKAD8TSoDgOwdJEdh3qNEYoZUhhWHQbgLnqNEYoZRCCOFzrVYQDuY4UKhGJ6G4ZHwbrDAGxG1RihmF4F4kmwKx0A27EbHkIxnQ/D+2FZHX5hNADYwVUKxieGAqGYrgXicQrET40GACX5FJbrGlu6jdLtGQIqCMTT7OUvgRiAkr3MjrO0ihGUSqWYMsPwKHuJX21Zag2Aqr3999c/jg0DQjFtC8SHYdkuYTIdAHWJk/AOtVNQBu0TlBGI45P6nwIxADWLy3wu0jwW2IlKMbuE4VHQLgFAO1jTGKGYRgKxdgkA2kY7BVvTPsE2gVi7BABtFNsprE7BVlSK2SQMx804ToKtmgFoP6tTIBRTSSCOT93zoDoMQHfY7IO1aZ9gnUA8yV7+FogB6Ji42cc8TQwHoZidAvEse/loJADoqLhC0pll23iI9gnuCsOxf3geLLcGQH/oM0YoZqNArH8YgL7SZ4xQzFqBeBK0SwDQb+fZMRaMKdJTTDEQHwvEAAxAbA1cWM+YIpVi8v7hWXa8MBoADMhVWLZSzAwFKsUC8Sgs+4cFYgCGJs6d+ZjdC6eGApXiYQdiE+oAYOnTv7/+MTEMQjHDC8Txg38sEAPANybgDZj2iWEG4qOwnFAnEAPAjTgBb24C3jCpFA8vEM/CcttLAOB2cQJerBifGQqhmP6FYStMAMBmwdjKFEIxPQzE82DLZgDY1CvBeBj0FPc/EI8EYgDY2se0uRU9p1Lc70BsyTUAKIcl24RiBGIAIAbjsOwztmRbD2mf6GcgngjEAFC6uHrTPM3VoWdUivsZiD8aCQCojE0+ekilWCAGADaTb/IxMhRCMe0LxFOBGABqDcZndr/rD+0T/QjEs2CXOgBogt3vekKlWCAGALYXJ7XPVYyFYgRiABCMBWOhGIEYABCMhWIEYgBAMBaKEYgBAMFYKEYgBgAEY6EYgRgAEIyFYgRiAEAwFooRiAEAwVgoRiAGAARjoRiBGAAQjIViBGIAQDAWiikpEE8FYgAQjKnXo+vra6PQnkA8yV4+GgkA6L2L7Dj499c/Lg1FO6gUC8QAQP2ehmXFeN9QCMUIxAAwZM8EY6GYm0Ace4qOjQQADDYYnxgGoVggzp4Qw7LpHgAYpudp5SkaZKJdc4F4lL2cCcQAQPLp31//mBiGZqgUNxOIY+/QiUAMABS8zDLCkWFohkpxM4F4HpY9RAAAq179++sfM8NQL5Xi+s0EYgDgHh+ffHk9NgxCcW+lJvoXRgIAeMCJXe/qpX2ivkAce4R+NxIAwJqusmNk17t6qBTXE4gnAjEAsKE4Id/mHkJxbwKxzTkAgG3FeUgzwyAUdz0Qj4LNOQCA3bywuYdQ3OVAbC1iAKAsL1M7JkJx58QnOkuvAQBlsVSbUNwt2Qkbe4gtvQYAlM1SbRWxJFv5gXgSn+SMBABQkfPsGFuqrVwqxeUG4gOBGACoWGzPPDEMQnFbA3GcWDc3EgBADZ6ndk2E4taJgdhKEwBAXd5YkUIobpW0dqCVJgCAuh2beFcOE+12D8TxCU0fMQDQlIvsODDxbjcqxbsFYhPrAICmPQ0m3gnFDQZiE+sAgLYw8U4obowtnAGANokT7w4Ng1Bcm/Qk9txIAAAtM8tyysgwbM5Eu80DcXwC+9NIAAAtZce7LagUbxaI45PXzEgAAC0Wl4nVXywUV0ofMQDQBS9t7CEUVyL1EdugAwDoCht7bEBP8XqBWB8xANBF+ovXpFL8cCAeBX3EAEA36S8WikujjxgA6LKX1i8WineSnUDToI8YAOg+6xcLxVsH4nH28s5IAAA9EL/1nhkGoXjTQLzvxAEAeuZ5+hYcoXhtMRA/NQwAQM+8S9+GIxTfLy10/cJIAAA9NUvfiiMU3xmIR8GyJQBAvz2Vd4TiB5+cguXXAID+s0ybUHy71Hj+3EgAAAOhjUIo/i4Qx33BLb8GAAyJZdqE4u+flAwBADBAL9IiA0Lx0AfArnUAwMAd2+1u4KFY2wQAgDaKwYdiJwAAwFdxt7sjoXiAtE0AAPzHdMhtFIMMxdomAAC+E9soBrupx1ArxTPnPQDAd14MdVOPwYVibRMAAPca5KYegwrFqU/myLkOAHCnQa5GMbRK8Sy90QAA3C22UYyF4h5Ku7U8d44DAKxlUG0UgwjF6Q09dm4DAKztaRhQ2+lQKsUxEGubAADYzLu0lK1Q3HWpH+alcxoAYCuD+LZ9zxsJAMA9nqe5WUJxV1mTGACgFMd9n3TX21BsTWIAgNL0fgvoPleKTa4DACjPyz6vXdzLUJzesBfOXQCAUk2F4m4xuQ4AoHy9nXTXu1CcvVGxj9jkOgCAavRy0l2vQnF6g6bOVQCAyvzQx7zVt0rxNJhcBwBQtTdppS+huG3SG/PGOQoAUIuZUOyNAQAYuud9WqKtF6E4vSHPnZsAALWaCcXeEACAoXvalyXaOh+K0xvx1DkJANCIXizR1ulQnN4AG3UAADQnrvx1JBQ36yhYgg0AoPFM1vVqcWdDcRr4I+cgAEDjYpGy09/ed7lSfBxUiQEA2uJllzf0eNzFHzoN+EvnHtTuPDsuV/5e/OuzO/75+35v1dm/v/5xWdE1I36zdLDmPz5Kxya/d+AhHeCraXZMuviDP7q+vu5iKJ4JxbCxq5WAerYScFf/epGF1IVh2/o6FYPy/j2BevWvrbUO9MUv2f1jLhRXf6OJN5F/nG8QLmJwvSXQ/ufXVVVfqfw6lwfmYpV79dfPjBbQQqfZvWcsFFd/s4hPHioqDCHsFlsP8qB7mV1ozgwR94To8S0BWnsHULfOVYs7FYrTds5/Oc/osKtCwM3D7deLRhe/aqKz4bkYmMeCM1CBzlWLuxaKY2hQJaZLoXeRH/pz6Vhwvu2weyiwiU5VizsTilWJaWHwzQPv1xCs0svAQnM+kTB/VbAAVnWqWtylUDx30aVm54XQK/jCw9fpPCSvBmfXbhiuzlSLOxGKVYmp+kk23FR94wdXqwOUfx0vBuXiq5YM6Pk9tivV4q6E4hhUVBrY1Wrl90z4hVZc48fhpro8FpahdzpRLW59KFYlZtsn03DT93um7QF6EZatkAEdvSd3oVrchVAcw4wqMesE4Lz6ax1f6G9QzvuW88Acf20TE2i/1leLWx2KVYkRgIE17xcHKSDnh2IKtOz+3fZqcdtD8Un28sJ5NFhxZ7d5IQDPDQkgKENntbpa3NpQnGYq/+P8GdZTZArA8QMzzz44l4YEEJShP/f5NleL2xyKZ9nLS+dP70NwHoDnhgNo6H4zLoTk+GsrX0B1fm5r62MrQ7EqcS9d5QE4hWC9wEBbQ/J+uFntIr6qJkN5PmUZYCIUr39BmgVV4j7IK8EnQjDQ8aCcB+Q8LKsmw/Z+auM+Aa0LxekJPQ6UtSi757wQgueGA+hxSB4VQvJYSIaNtLJa3MZQPM1e3jlfOiG2RJwUgrCJccCQQ3KxmmztZLg/P4zalhvaGIrjAKkSt9d5CsJaIgDuvpftFwLyYVBJhlXvsxwxFYrvvohMspePzpPWPc3NC0FYNRhg8/vbKGi3gP/kiyxT7AvFd180Fi4UrfEpheATQwFQSUg+LIRk35AyRK+ynDETir+/QMSLgi2dG35qy47jeKgIA9R+DxynoKwfmaG4yPLGSCj+/oIwD9aCbDQMt623B2CgAXk/3FSR46sqMn3Wmq2fWxGKbdbRqNgmcaQyDNDakHyQwrEqMn30Ocsgh0LxzQd+FmzWUbdYHT60njBApwLyfiEgj4MqMv3Qis08Gg/FNutoxGkKxKrDAN0OycU2CxPV6aoPWSY5Eoq/vI6D8LvzoTat3XMcgJ3up9os6KpWbObRhlC88HQ7rCcxACq/t45SOJ4IyHRE48uzNRqK09c+fzoPavHe6hIAgwzIxT7kF0aElmp8ebamQ/GJD2gttEwAICDTdo0uz9ZYKLYMW21as9QJAAIy3KPRIl6ToXiavbzz/lfqIjsOrDIBwJoBOQYSG2nRpB+byi1NhuJFMMGuaj9nJ9aZYQBgg/vzKJikR3PeZtnleDCh2AS7WphYB0AZAfkoWAeZ+jQ24a6pUGyCXcUnVNA2AUC59+5xWFaPY0C24RZVamTCXe2h2AS7WjS+1h8AvQ7IeThW4KIKjUy4ayIUT4MJdlVqfJ0/AAYTjkcpHMcWC+0VlKn2CXd7DfwhJ97nSk0NAQB1yELLIk6KSsWYX7LjU1hu2Qu7qn052Vorxakf6S/vc2VUiQFoVGF5t1g9tnoF2zrPMs1Bnf/DuivFE+9xpWaGAIAmxa+847yWFGh+DqrHbOdZ9oDVz1BceHJEKAZgGAH5LE2YGmXHq+w4NypsYNLLUBws4VK1+DXDwjAA0MJwfFv1GNbJjr0MxRPvbaVODAEAHQjIefX4x+x4G5Zr68NtnqYN3/oTitOSLfZSr9bcEADQoXB8WVi54rfsODUq3KJfoTjoJa7j4iIUA9DVe9hJdoyzX/4UTMxjJUOmeWm9CcUT72mlTFwAoA/heFGYmPc+aK1gOR+tluJq5aE4LadhncJqLQwBAD0Kx7G1YppaK6xaQT9CcVAlrsOZIQCgpwE5X7Ui7pin73iYXtTRQlFHKNZPDADsGo7nK33HDEvlebLSUJxaJ556HyunUgzAUMJx3nccw/GHYFLeUEw6HYqD1om6XBoCAAYYjo/CzaQ84bjfnqclfjsbirVOAABVhuOvk/KE40GoNFdWFoq1TgAADYXjuGKF5dz6Z9LJUBy0TtRpbAgA4Fs4nhWWcxOO++NZlS0UVYZirRMAQJMBWTjun3GnQrHWidqNDAEAPBiO3wY9x11XWdG1qkrxxHsmFANAy8LxcTAhr+sq28ijqlA89p7V6rkhAIC1grHVKrqvkmpx6aE4NUA/837VK7WsAACbh+MPRkQo3uvKD8qDxoYAALYKx3ETENtHd8cLoRjjDgDVhON8++ifs+PUiLTbky+vS889eyX/gLHxWX9rM55X1XgOAAMKx2fZMc5++UuwjFubtTsUB9XKpk0MAQCUEo7nhTWOTcZrn3HZ/8FH19fXpf3Hnnx5PcteXnqfGnORPsBQmTSpc/VbiVG4e2nAdS5c8b9X9QTdeFM7W+OfW6TjNvHfv1z95+PXrs4M6PV1L16jYt/xO6PRKj/Hyn5bQ3G8WfzgPWrUL/Hp1jDwwMX94I7Quvp7dYTVPjp9IEzPhWro5PUzPvzHtY5fGI1WeJ9WEGlXKM5OlHhj/cv70/zNOPVCMawLdV69LYbaUbip3sZXu0y2X7GafXnHr4VoaP6aO07hWNGgWefZ9bC0JWnLDMXx5Hjj/WkF1eL+XHiLITd/2CkGYBfkgT8E50E53LR8zIVnqO0aHVsqpsG35E36MS6r17ZQfOYG3c8nJyq9oOYBN38dFQ6VXcqQV5+L1eavwdnDM5RyHY/X7lnQUtGUV9m1bNaaUJxOiP95X1rlbdrjneYvmONC8BV6aaPTYlgWmmGra/0kLFsqVI3r9SmtL92aUBx/mI/el1aJ1aEDX5/WdjHMK73jQug9cHGkJ9eSWGFepONr1VlghjvvBSdB0aNOpa28VVYongVLsbWRNopqLnh54M1/rW0IgXl5xKCsl5mh3yf202fBvaE+pSzNVlYoXngqaq3SvlYY2EVtlALvWPiF7R7Kw01l+SyF5TPDgmBMBUppGd05FKfK2d/ej1YrrQm9pxevvOpbPLQ9QD1h+UxlGcGYHX3OriM776pcRiiOy5H87v0QjDsagJ87NaAVTsNNK8aZnmV6FIzjee3b9Ipl14xHbQjFsaHcMiSCcRsvRqNw0/4gAEP3FKvK8xSWLw0LHbsXHaTz1zeQ1dp5j4YyQrGtnbult0u1paXP8hA8dl5CL12Em9YLQZmu3J98q169nbd83ikU6yfurM5PvktfSRVDsCowDDsoz8NNj/LckNDC+5Zv1qt1mn32x02GYk8+3RW/lpx0ZTb4SgiOh4kLwL03yFCoKJvMRwvuY6N0PvoWsyK79hXvGoo99XTfzl83CMFAB+RtF/Ogmkxz97Z4v31nJCqzU1/xrqFYP3F/bhaTpm8SqR3nMIVg7RBA1U5TSJ4LydR4r1sEq1FUZadC39ahWD9xb28Qx9kJdVLThWGUAnAehD1gAU06z0NyCsom8FHFvW+SvXw0EtXkmF36incJxfqJ+ytWjmfxKLsPLz1MTYKWCKBDIbmuYgGDCca+aa/ILn3Fu4Ri/cTDuinE93vjpY8K1eB4HLoIAB2m3YKyQnFcGvWNkajEz9suIrBLKF4EPTFDFKvI8b2PJ9xdAXmUDtslA311Ff7banFmSNggQ8V75D9GohJb78ewVSj2ZgLAdwWDGJBPgn5k1stS8UFKG2H5Pmefv8Nt/sXHW/4PD4w5AHwTvzl9mY4YeE4LAVkVmducCMWV2Dqj7m35742NOQDcKS4rGSej/x3bDbNjlh2HhoWVUEwFD6ipo2Fj27ZPzIN1ZAFgG5/DTRV5YTiGK8tT10ahEr9ts2LMtu0TAjEAbOdFOmIoiiv8zGJIFpAH6VSmqsQ4bFGJ3zgUZx/gsbEGgFLEntLYZvF7dn+9SDfymT7kwTgTiiuxVV/x47r+RwDAveJkvbh27RsBeTCsUlKNrR40tploJxQDQD0BOZ+od5x2BKVf5oagGtt8XlSKAaAbAVkFGTbLqxt9RrYJxdbUA4D2BORjk/Tg1lC8kY1CsUl2ANDKgGwVC9gxFO9V/T8AACqXr2LxTxaQT7JjYkgYuI0n2wnFANAvcQ3kj1kwvkw76Y0NCUO06WS7TXuKhWIA6IYfsuNlPFL/8XHQXsGwbDTZbtNKsUl2ANA9sf+42F5xaEhaE9qozmiTf3jtSrH1EQGgF75uM52qx7OwXN5tYVgasW8IKjXe5B/epFIsFANAf8Tq8bugetyZ0MbGNsqum4TikbEFgF6K1eM/0+550+xQwWxhaGNjP2xyLm8Sij3NAEC/5dXj/1m5olqpLfUHI9GeBw+VYgDgNnHlir+y8HZm3eNKeOBoWSjeZEm2p8YVAAYnrjwV1z2OS7p9Pf799Y9LwyIUd8Ro3X9wrUqxr08AYPDiV/3F1oqRIdlOGrsXRqIWpbdPOPEBgFxsrYirVswVzrZipQ+hGADokedB3/E2jgxBbdZegWLdUOwpEAC4S953vBCO75fGxzyteq1VLV53op31CgGAhzxN4XgalrvlmZT3vakhqN1onX9o3UrxM+MJAGwQjuOkPJuBFKgStzsUP7q+vn7oDYz/oX+MJwCwpasw8OXc0oPBItiwowmn2Xk3fugfWqdSPDKWAMAO8uXchlw5ngrEjSltop19uQEA4XhL2Z8zLsH2xtvfmLXagNcJxfqAAICqwnGvlydLbagzb3nj78ODeXadUDw2lABAReH4974u5ZaC2EnQNtEGD3Y+qBQDAE3Ll3JbpFaDvpgFK3i1xaiMUOzNBADqCsd/9mH76Oznj4H4hbe0O6H48QNvqCoxUHR6y987y467lli67/eqFr8q29/g90bB+qHQFvn20Z+y1+m/v/6x6FAYjteWuPzcS29jj0JxsPIE9NF5IagWQ+tl+uvcoks3olvMS7i5jVf+1njlAptfZONN0LdqUL4YLF9mn8X3oQNrHKdAPHc96GYovnfzjnRD+Ms4QmeCbjHYLtLxNfzaarXWm+LBLcE5r04L0LCduAHIUXYtm7X0sx8/43FSnW+c2ukiO3dGu4TiaVgumQI0+EEuBNxFMfhmH/C54el0gM6Dch6ei4H6uRGCO4sAR226/slL3ZCdM4+EYmi3qxRyF6tHx9sXKOdmO06/XH0Vmhm6xvuN0+dzFlSHu+LH+741fSgUz114oZLg+7WXV6WXHW/IeWV5lI688uy6zZCurXFSW639xikMT33WOueX++67QjGUK291iJ+dvM1BPy9NBuY8KI+DFTbodziO/byVVo7TGspHstEwQ/HCBRTuvACfFY6Fqi8dCszjcNO/nB+u9fRF7DmexZBcRkBOn5fDdPicdNv77JyYbhuKr40ffL3ALlL4jcFX5Zc+h+VROsYpLNueli67yK/b4aaAsVjzgTH+WkVYKBaKGXQA/lYBVv1FUH5dDAiqykCXfcru65O7fvPxA09L0PcKQrH6KwDDivStyDysbIaS7hHF9gtrLwNtN7rvNx8bHwbkNNx8jTbXAgE7heX/BGUVZaDrHm+bpqHlLlYC8JkhgUpD8ncV5SwojwoBOYZl/ZlAk54LxQwpBM9TCF4YEmg8KMfPYTxOCkE5D8jjoJoMtIj2Cboegk+CVgjoUlDOJ7Iep5A8KgTk+Ko3GWjEnatPZBeqWfby0hDRshA8DyrB0FupN3lcOIRkoEx3buChfYK2uiqE4BMhGIYhfetzkg4hGaiN9gna5LwQgueGA7gnJB+mVz3JQOWheN/wULG8Gpz3BS8MCbBhSB6thGQ78AH3OQgr666vE4p9RUUVLvIbmmowUEJIjg/Ts3Tkq1scpsN9DFh1Z9FX+wR1uMpvWtYLBioOyfnqFtPUapFXkOOrKjIQhGKaEKvC0+wmNTMUQAMB+TJ8X0WeBBP2YMjurBTfuiRb6tH6x7ixpasUho8NBdBG6T6XV5FfGBEYjNMsn4xv+427KsUjY8aWPmfHxGYaQJulXuT44H68sqKFNgsYKO0TlOmt6jDQwYC8uqJFHo5jULbkGwjFsLbYLnFoNQmgJyG5GJDzPuRDARmEYngoEI+tKgH0NCDHa9tRPARk6IWDTUPx2JghEAMIyNAzP2waimEdhwIxICC/HhcCskl60FFCMdt6q4cY4GtAjtfCr9fDwiQ9ARk6Zs8QsIVTq0wA3BqQ4xb2k7Bc2vRVWC5TCXSASjGbin3EE8MAcG84/rabXmGjkNhuof8YWkqlmE0dp0XvAVgvIC/it2vZEcPxz9nxKSwLDEAD0kTZ79jRjk1chOUOUABsF5DjBL1JujFP0q+fGxmo1f5tf3NPKGYDx7ZvBigtIM+yY5z98qfseB+WhQegIXqKWVf8qm9mGABKD8eL7GUaj7R6xSQ7XhgZqJeeYtZ1okoMUHlAjtfaGIxVj6FmKsWsHYoNAUBt4XgR/ls9jitX6D2GCqkUs46rWL0wDACNBOSTQu/xh2DlChCKaczcEAA0Ho7j0m6xYjwKy41BtFZAibRPIBQDdCscFzcGGYdla4WJebAjlWLWcWYIAFoZkOeFiXlaK0AopmILQwDQ6nBcbK14G7RWwMa0T7DWxdYoAHTieh1bK+LOo8dpx7wYlJ8ZGXiYSjEA9DMgxx3zDrJf/pIdp0YEhGIAGHI4nqcl3X7Ojk9GBIRiABhyOD7LjklYTsoTjkEoBoBBh+NFIRxbsQKEYgAYfDjOV6x4LxwjFMMDnnx5PTIKAL0Nx5fZMRWOEYrhYUIxgHAMQjGDNzYEAMIxCMUIxQAIxyAUM3DPDQHA4MNx3AjEUm70lm2eWcuTL68Ps4viiZHggfNk/MA/Mq7ofz1/4PfP0va3wPbheJG9TLLPeQzI8XhpVBhCKI43GNVBiibZIRT3N8zuh2UV6K7wuvrXo+x42qI/wrs1/oyrfyt+FXy2Gp6z4/KOv47VsjNnC8Lxt3B8nL0eywv0xaPr6+vbbh7TdW4yDM5P6WJIN4LuKNysHJKH2mL4bVuw7ZrTlUJCSAE6D86q0wzlWhOvL1PhmA758bbrs1DMJj6khd5pT+DNj2LYdWNql2JFOg/PeQV64UGTHl2XJikce9im1bLr7qPb/r5QzKY39wM38dpuMONC2C0GYDec/gbnvNK8yA+fNzp47YoZIhZQfjAadCkUm2jHJn5IVYCJoSjt5pEH3mLwPXAzGeRnK6/wv1g5R+LLeQrM82JwFphpaeCYpn7jeL94Y0ToCpVitvFLdtGbG4aNwu+4EHrzX6v4UoYYmBehUGH2+aRF1754rZsFbV2068Fto/aJSfby0bBxh4uwbKMwiej2G8BB4Yh//czI0NDnNIbkubBMSwoDM8UA2hyK72qfWBgy7hEvavGrscnAL/IHKwFY2wNt+5zG43nhnI0vxcryPGjDoJ4QEs+1kX5jWuD8rt+4q1Icn+j+Mm484H3a5WgIAXiUQu84vfoqkD65KoTk+HomKFPh9TROII6FFZt/0ITT7Po2Foqpwqvs5Jr18KI9LgTg+KqqgaAsKFP+dTaGYy1mCMUIxi25MI9WArALNNwdlOfFsGxuASVcg2M7xTQoPtDGUJxO0mvjxgY6s7FHIQTnh4kfsL3zQkieqyazw3U5Vo1fGA0q9jm7Th0KxVR+omXHpG2VIyEYapVXk/OQfGZI2OB6PUnhWNWYqtw5H0oopoobYgzGJw1eVPcLAfhQCIbGnRZC8txw8MA1PLayzYJWNloUii89qbHjTXBS11ep6SJ6mA4XUuhGSD5RSeaOa/p+Okdcz2lFKI4no2Wn2NWn+MRfdnUoXTBjAB6nVw9w0E3aLRCMqdNvd32bLRRTlzgZZxaWlaHFlhfIfHWIiYsk9NZFISSfWN1CMBaMKdkvdxXqhGKauumdhZsZ69G3pZ3SxLhR+vsxBOe7xekNhmE+UJ8ErRZDDsYH6V7hG0EaC8XT7OWdsQOgJa5SQJ4HVeShBePYJvenkaAEP931jbVQDEBXnYabKvLCcPQ+GMf32jrG7CS7Vjy66/ceGx4AOup5On7PAtNFCsgzbRa9NcmO+PCjjYJK7N3ze3PDA0BHxDkHb7Lj7ywgL7Jjlr5ypydSu8zUSLCDi21DMQB0NSC/zI4/45r7AnKvgvHxQ8EG7rG47zcfb/svAkAH/JAC8sssGOcT9U6a3HWTncVg/LthoGx3TrSLbPUMQE8JyB2V1i7+n5FgC3fuZhdpnwBgiPIKcrHF4sCwtF/qLf5kJCjbQ6H41BABMJCAnE/SO06bCNFeqvtsY3Hfb1qSDQBu5KtYvMmCcb49/cxGIa0zNwSUHYr3dvmXAaDHnoXlhK7/xY0jrGDRHukh5dxIsKF7H24fqhQLxQCw3EntRVrBYpYdx3bRa9w8PbjAug9TZ0IxAJQj9h/n7RWnKSCfaK9ohIxCqbRPAMB24hbTH+O90uoVjbCdN5t4cPGIh0KxJ18AuF9x9Yp5dkwMCXTPvaH4od4LAOA/vlaP09rHlnarlsIdm5jvFIqTK+MIABvJe4//SStXjA1JuRTuKNs66xSfpSdfAGBz+coVF9nrNJiYVwoPGmxo/tA/sE6leGEcAWBncWOQfGKe1gqo14MPokIxANSr2Fph1QqowTrtNuuEYj07AFCN4qoVY8OxEePFutaaH7dOKNb3BADVinN3/sqC8cKSbmsbGQLWtFaB98FQ/O+vf8yNJQDU4mvfcR6Os2PfkNxJ2wnrWpQSihPLsgFAzeE4LCflTYXj/0qTFJ8ZCZoIxfqKAaB+cVLeO+H4O2NDwAbmZYbihfEEAOG4JQ6dEmxgrflxQjEACMedkVonXjgVWNe6ux+uG4rnhhQAhOMWOPL2s4Hzdf9BlWIAEI47If35Jt52NrB2hl0rFP/76x9CMQC0Pxyf9Xyd42n6s8K61l4sYm+D/+ipcQWAVvvPOsd9+oOl7bDfeItpQyheGFcA6FQ47tP20TNvK1tYO78KxQDQX/n20fO0akMnxX7pYLMOtrDuyhObhuK5oQWAzobjf7Jwedy1yXjZzxvXJH7nLWQL55v8w5uEYrvaAUC3xZ7c2G/ciWXNUh/xzNvGljbKrmuH4n9//SPuBnJlfAGg0+LqDb+nyXjjlgfiebDaBNtbVBKKt0ncAEBrxcl4rew3FogpybzKUDw3vgDQK3m/cSs2/0hLyf0tEFOCatontvmPAwCdkW/+cdhQGN7PjpPslx+9FZTgIrX+CsUAwMZiS8WfMZzW2VKRgvgiO154CyjJxpl1o1Cctns22Q4A+i2G03wJt8rCcZzoF3uaYxAP2iVoOBQ/3vJ/8txYw6Bd3XLBiX+9+lXV5QMXpstNFlbf4oYbb+b33dDjZJ7VHsrVfyf+vk0DGKq4hNub7LP0KXudZZ/XeQmfy/iZipXhI58tKrTxufro+vp605N5GiyiDX0Mt6sBdl5XeO2SdEM/KPyt8R2/Vjygjy6y4yRdH+br9mym1STG6dAiQR1+3LSneJtQHJ/u/jTW0Gqn6XURbtZpnAu4jYToUbipPOehOf97qtD06cG6+CDtHKfRh7fsPjfa9F/atn0CaD7w5u0KefAVdlsozcVY3BIaisE5rz7f9ipQ0GaxDzj/VsS3I7TFVvfCjSvF6QIeL/BPjTlUGnrnxdcyevnopkK1OQ/KY4EZ4E5vs3vm8ab/0uMt/2dnQjHsHHzzHt5FOs427X9iGArV5vk9gXkcbr6yVrEDhqzWSnGcMfq7MYd7nedhV/ClbreE5VhlVlkGhlBIeLTNv7dLpRhYOi2E3nnQ20s7bgrFc7IYlg9SQM4PVWWgb/fkrWxVKU4X1mvjzsCch5uqbwwaixQ8oNMEZaBHPmT35qNt/sXHO/xPT1046amLQvA9S+FX5ZfeSuf32R1BeRy0XgDdMd/2X9wlFNvZjj5Yrf7q+YX/BuVZCsn7hZA8dv0H+haKd2mfsIkHXQ3AZyn8zg0JbG9ll7J4/GBUgAZttWlHbpdKsUCBAAwDVqgmHwvJQAvsdK/fulKcLoDxYqjPjMafDAsBeC4AQzushOQXRgSo2KssA8y2/Zcf7/g/nwvFNOA03EyCO7MCBLTTLZXkGI4PU0h27wDKNt/lX961UqyvmKpdFALw3CoQ0A9p4l4ekOOrVgtgp7ywSz9xVEalGMoW+4Fn2XGiCgz9lFZ5mYWb1S1iq8UkqCIDDWXSnSrF6UKmr5iyfMqOqSAMw5a2qM6ryHqRgXXs1E8cPS7hh5gLxewo9ghPhGEgSteC2Id8XGizyEOyNgvgrjy6kzIqxfqK2cXb7AZ4bBiADe45+SEgA9F5liUOdv2PlFUphk1dZcfYxDlgE9k14yR7ORGQgbKz6M6V4nRhij+MLT8RiIFGCMgwaL+lB+adPC7phxGKEYiBxqxUkCcpHJukB8MwL+M/UlalOPZx/O09YQ0/C8RAHQqT9I6CCeHQV6dZrhi3JhSni09cc9JXVtzHpDqgqYA8Cst1kOPx1IhAb7zPssW0baF4lr289N5Q9ZMcwI73q3EKx+5Z0H2lfQO9V+IPNfe+cI8jQwC0QXYDjVvGx1D8Y3a8CstdNIHuuSqzJbPMUHziveEOn/QRAy0Mx5dxB6y0vunPYbmr5pWRgc4oNXuWForTPvaetrnN1BAALQ/IZ6l6PAqqx9AV8zL/Y49L/uFiYjfDl6Jz2zcDHQrHscAzi0daWSm2fuk9hnZqZ6W4ih+OXpgZAqCjAfms0Hv8NjsujAq0xml6iG1nKE59oy4aeFAC+hSOY+/xcXaMsr/8Ld6MjQr0L1/sVfBDzr1PJBdaJ4CeBeSTtLzkT2E5MQ8Qiuv7IeksgRjoazheFFor3gerVkCdKim6lR6K0/7zLg5Ec0MA9DwcX6bdtEZhuWqFFkKoXiUF2L2KflhhCIChheNZ6juO4VjfMVRn1qVQrIUCgKEG5FnqO/5FOIbSXVS1IZhQDADVhON5IRx/NiLQ7oy5V9GF4NIFAAC+hePDYMUKGF4orvqHBoAOhuN8xQrhGLZzFR8yhWK6aGwIAIRj6EK23KvwQ6+FgpEhABCOYdChuI4fntZ7+uTLa8EYYP1wbLUKuN1V2gujMo9rCMUfvY+DFieXHBuGYcgegvazl4Nbfiv+vf17/tVRKPebhbhcz+WGv7+wLTlNh+PsZZx9jsbZ6zQ7nhsV+GZW9f/g0fX1ddU3yRiMX3gvB+s8u9AfGIZOBdtiQF0Nuavhts837asUnr+F5nCzdfll4fcuq1ozk8F/FsepqPDMaED4ueprbR2heBJUi53IQkObgu74lsAbf++pkdrZRSE4z9NrXpVWiWaX++jUZ5QhX1vTbpGVqiMU76ebxA/e08H6lPrlqDbwFkNuHnwPfPZa56oQlP/z6uGRBz7rRykc+0wzNB+y6+NR50Nx+iDPspeX3tNBUy3e7cHyINz03RYPlaP+yavNeWCeB1Vm/ns9iOHgndFAhuhmKI6Trf70ng7aadrulNs/I3nIzXt2x+lVLyFF54XAfJbCsofN4V4zYr+xOTv0/rpX19ykWkJx+gDHC7mq1rC9zU7sQa9EkSbOFAPwSPClpLB8lgLzPP46rRXPMK4pJuMhO3QsFMc/0Bvv7eD1vo2i0O5wsBJ+PRRSp4tiSE5BeWFYenvdmaRwrN+YvvmprmtXnaE4BoO/vbeDFycZjfsSjFcqv2Phlw4E5bz1Yh5UlPv4QK7fmD75nF2jDuv6n9UWitMHNl6IfcVD54Jxofo7Dtoe6JfzlZCsR7n74Then2bB5h9036vsmjTrayiOT7C/e49pczBON5SDlRDsK0mG9Nmc54eQ3OlwnO8o6tsrOnktyq4/+3X+D+sOxfEP9z/vMwWNTr4TgEFI7nkw1lJBV9W+x0GtoTh9QG37zKrTeNGu+mabbg5jARiE5AGG43i9mwVtX3RH7RPzmwjF1izmzqfC7JiWNcs0TYIrBmBfIUL5Lgoh+cTEvVYH41gYiN/M2UyL1l9X6tjWufFQnD6YCwGFe8SJP7N0g12seU6NVgKwCSbQ3Of3JH1+VZHbGY4tkUrbNdJa2VQongb9Taz5tBhu1lq9TQzBIw9Z0NrP7zwF5BPDIRjDmn5s4lunpkJxDDH/eM8BBuVzuKkia7NoPhjPglYK2qf2CXaNhuL0YTThDmC4Nm6TovT7cOwxngeT72iXX7JrwnxoodiEOwAE5GaDsd1maZNGJtg1HorThzFe/PSCAiAgN3cvngbzfGiHRvcu2Gv4Dz/z/gNQEL/Kjzuf/hPb7LJjkr7mpzoxhFwZBlqg0VwoFAPQVnHeycfs+F+cFJba7ihZmvR4bCRo2KemJ+A22j4Rmf0KwAZiRTPeN2bWQS71XjwKVoWiWT83/ZluQygeZy9/ORcA2NB5ISBb4m33+3EMJFaioAmn2Wd43PQP0XT7REjLbpw7HwDYUN5/nLdXjA3JTmaGgCGfe41XitPT6SQs+8YAYBdxF73YH6t6vPm92PJsNPKZbXIZttaF4vRhjBevH5wbAJTkUwrHc0Ox9r342ihQs/fZZ3Tahh9kr0WDYuYrAGWKk7j/ir2y6RtJHqadkcHmP6EYgL6Lvccf4zeScaOKtNICt9NyQp0+tanNqTWhOA3KJ+cHABWJLXpx57Z/0sS8A0MCjZq26YfZMzgADFBsrfg7C8Zzm4JAI07btpV7q0JxGpxT5wkANXmeHX9mwXih7xhqNW3bD7RnkAAgPA3LvuNF6jveNyRQmfM2rgrTulBsMw8AGg7Hse94qOF45BSgBq1cXKE16xQX2cwDgJa4Sjfw475vBpIeAP7nLadirdmsY1Ub2yditXgWlrsSAUCT8hUrhlA5Hnu7qcG0rT/YnkEDAOFYKKYGV6nwKRRvQrUYAOG4Vpamo2qt3qhtr+WDN3P+ACAcVyut1fzU20qFroTi3Z8orpxHAHQgHB91+M9x5K2k6kzX9smqrQ7FafCOnUcAdCAc/97FTUCyn3cclpuYQFVaXyVufSjOnyyCajEA3ZBvAnKWwmYXKD5R+TnWhSUNWx+KVYsB6KBn2fFXFozn2TFq6w8Z+6HTzwpV6USVuBOhuPAUq1oMQNfEtoR/svA5a9tkvFTJfuctouoM15WNbzoRilWLAei4lyGtVNGSQHyQvZx4W6hYZ6rEnQnF+ZNGUC0GoLu+rlSRJuONGwzEsWI9Sz8PVJrdurQ9emdCsWoxAD0RJ+M10m+cKsSLoI+Y6nWqStypUJw/cQTVYgD6Ie83rmXzj7RBxzyoEFNTZutSlTh6dH193akRTouj/+5cA6BHLrJjkoWIeQX3zbxd4oVhpiaxgDkSiusJxotgO0oA+uc0O6ZlhOMUho/SoTpMnd5n5/C0az/0444Odhzoj845AHomtlTEfuMYjmfZcbJptS31DccgfCgM04D4rUcn54B1slKcPvSLoFoMQP/FgDzPjrPsiAH5MgvKZ6kSfJD+mXF2jNKreyNNepWdnzOhuN5QHJ+A/3TuAQC0wkUWiEdd/eH3uvqDZ4N+kp6eAQBo3lGXf/i9jg/+1PkHANC401SwFIqbkGbnfnYeAgA0atr1P8BeD96EI+chAEBjPlexxrZQvKHsTVhkLx+cjwAAjehFgXKvJ2/GNNj+GQCgbh9SgVIoboO0sPnUeQkAUJurPuWvvlSKYzCOu6dcOD8BAGox3XTHRaG4PhPnJwBA5S5SQbI3ehWK08xHG3oAAFRr0rc/0J43CQCADfRiCbbeh+I0A/K98xUAoHRxcl0v94jY6+kbdhws0QYAUHrG6ssSbIMIxWkmpJ3uAADKE1f5Ou7rH66vleIYjGfBpDsAgLIc9WkJtsGE4vzNc/4CAOwsTq476fMfsNehOHvzzoJJdwAAu+jt5LrBhOLETncAADtkqb5Orit6dH193ft38smX14fZy5/OaQCAjZxngfhgCH/QIVSKQ+qB+ey8BgDYyGDmZ+0N7E21djEAwHo+9HHnusGH4tQLM3V+AwA86GpouWlIleIYjOOkO2sXAwDcb9LnNYkHH4oTaxcDANyt92sSC8XB2sUAAPeIbROTIf7BB7Ek222efHkdw/Ez5z4AwDev/v31j9kQ/+B7A37TJ857AIBvTocaiAcdirVRAAB8M9i2idxg2ydy2igAAMLbtErXYO05B7RRAACDdjr0QCwUB20UAMCgxbaJQ8OgfeIbbRQAwAD9NsQ1iW+jfeLGJD0tAQAMwWeBWCj+TmqjmBoJAGAABr/axCrtEyuefHk9z16eGwkAoMd++ffXP+aG4YZK8fcOgzYKAKC/PgjEQvGDspPkMvg6AQDop/OgXVQo3iAYx6bzD0YCAOiRr33EqQCIULy2aXqaAgDoRbZJCwtwCxPt7vHky+uD7OVvIwEAdFxcfs0mHfdQKb5Hepp6ayQAgA6z/JpQXEowjnuBfzYSAEBHHeojForLEp+uLgwDANAx7y2/th49xWvSXwwAdMxpFojHhmE9KsVr0l8MAHRI7CM2sU4oriwY6y8GALpAH7FQXLlJ0F8MALTXW33Em9NTvIXUXxxPth+MBgDQItYj3pJK8RZSf/GRkQAAWiR+kz0xDEJx3cF4lr18MhIAQAt8nVinj3h72id29OTL61g1fmYkAIAGvUoFO7akUry7cXo6AwBowgeBeHcqxSWwsQcA0BAbdJREpbgEaeLdKyMBANQoTqyz0oRQ3LpgPAsm3gEA9TCxrmTaJ0pm4h0AUAMT60qmUly+cbDjHQBQnfcCcflUiitgxzsAoCKfskA8MQzlUymuQJp454QFAMp0HuyoKxR3MBifZC9vjQQAUII4sW5sYp1Q3NVgfBysSAEACMStp6e4Bk++vJ5nL8+NBACwhd/SN9BUSKW4HnFh7XPDAABs6JVAXA+V4po8+fJ6lL3ECXhWpAAA1mGliRqpFNckO6kXYbmG8ZXRAAAEYqF4yMHYUm0AwEMsvSYUDyIYx76gV0YCALgjEFtpQigeTDCeBWsYAwD/FVssDwVioXhowdgaxgBAMRCP0xwkGmD1iYY9+fJ6lr28NBIAMGg/p7lHNESluGFpZumpkQCAwXolEAvFLNncAwCGG4hnhkEoJnytFseG+rFgDAACMUKxYCwYA8BQfBCI28VEu5Z58uX1QfYyD7aDBoC+sltdC6kUt0xqtB8H20EDgECMUCwYC8YAIBAjFAvGgjEACMQIxQjGACAQIxQjGAOAQIxQjGAMAAIxQjGCMQAIxAjFCMYAIBAjFCMYA4BAjFCMYAwAAjFCMYIxAAjECMUIxgAgECMUIxgDgECMUMxawXiUHedGAwBq80Eg7o9H19fXRqEnnnx5vZ+9zLPjmdEAgEq9ygLxzDD0h0pxj2QfzsuwbKVQMQYAgRihWDDOjk9GAwBKdSUQ95f2iR578uV1/NC+NBIAUEogHqd5PPSQSnGPpeb/D0YCAARihOKhB+Oj7OWVkQCArcR5OgcCcf9pnxiIJ19eT7KXj0YCADYKxOM0X4eeUykeiDQp4Odgkw8AWMcngXhYVIoH5smX1wfZy0l2PDUaAHB7ILYph1DMMIKxTT4A4HaWXBso7RMDZC1jAPhObC/8TSAeLpXigXvy5fVx9vLGSAAw8EBsyTWhWCgWjK1MAcBgWWGCr7RPYGUKAIbKChN8o1LMN0++vB6F5coUJuAB0HfvszA8NQzkVIr5Jrs4LMJyAt5nowFAT8VvRV8JxKxSKeZWT768jheLd0YCgB65yI5DE+oQitk0GB9mL7Ps+MFoANBxpykQ6x9GKGarYHyQgrE+YwC66kMWho8MA/fRU8y90ldM46DPGIDuyfuHBWIepFLM2vQZA9Ah+ocRiqk0GI/Dctk2fcYAtFX8dnOifxihmKqD8ShYzxiAdnqbheFjw4BQTJ3hOF503hgJAFog9g/Hdom5oUAopolgbNk2AJpmuTWEYloRjEdBOwUAzbBdM0IxrQvH2ikAqEtcXWKiXQKhmLYGY+0UAFTN6hIIxXQiGO+HZTvFc6MBQIniZLqp1SUQiulaOI47CP1uJAAowXlYVodtxoFQTCeD8UFYtlOYhAfAtj7Yqpmq7RkCqpSe6MfxgmY0ANhQbJf4RSCmDirF1MYW0QBswGQ6hGJ6HYzjJLxZdrwwGgDc4iqF4RNDgVDMEMKxpdsAWKU6jFDMIIOxqjEAkaXWEIpB1Rhg0E7Dsjq8MBQIxQjGqsYAQ6N3GKEY7gnHqsYA/ad3GKEY1gjGsWo8zY43RgOgV1SHEYphi3A8Dsuq8VOjAdB5cROnqeowQjFsH46n2cs7IwHQSefZcZSF4bmhQCiG3YPxKCyrxs+NBkAnxFaJ4ywMTw0FQjGUH44n8SIbTMQDaLM4ke7IMmsIxVBtMDYRD6CdLsJyIt3cUCAUQ33h+CAsq8ZaKgCapVUCoRhaEI4nYVk5tkoFQP20SiAUQ4uCcWypOApWqQCoi1UlEIqhxeF4FJYtFbaLBqjGVQrDM0OBUAztD8fjsGyp0G8MUJ73Ydk7bAMOhGLoWDieBP3GALv6FJa70S0MBUIxdDscx2Ace46tbwywvtMUhueGAqEY+hOMrW8MsJ643nDsGz4xFAjF0N9wPErh+KXRAPguDE9NokMohuGFYytVANh8A4RisFIFMPQwHKwoAUIxCMeAMAwIxSAcA8IwCMVCMQjHgDAMQrFQDMIxIAyDUCwUwwbheBIs5QYIwyAUg3BsnWOgtawzDEIxNBKO49bRk2D7aKBZ52FZFRaGQSiGxsLxfiEcPzUiQI1Ow7IyPDcUIBRDmwLyJAXkZ0YDqNCnFIYXhgKEYmhzOB4Hk/KAcsV+4VkweQ6EYuhgOB6lcByrx/qOgW3EFomZfmEQiqEvATkPx1orgIfEJdVOwrIqfGY4QCiGPobjgxSOD4PqMfBfsUUiri880yIBQjEMJRzHVSsm6VA9hmH7lILw3FCAUAxDDsiqxzA8cW3hWVAVBqEY+C4c76dgPMmO50YEekevMAjFwIYBeRRuqsc2BYFu+xzDsBUkQCgGdgvI47CsHmuvgO7I2yNObLIBQjFQfkDOw/ELowGtE1ePiO0RM+0RIBQD9YTjvP9YQAZBGBCKAQEZBGFAKAYEZBCEAaEYeDAgj4NJerCNOFluLgiDUAz0KyQXA7Jl3uB2n1MQtmoECMXAAALyQSEg2yiEIbvIQ3B8tbscCMXAcAPyfiEgx1dVZPrutBCCtUUAQjFwa0geFQJyPPQi03V5b3AMwSeGAxCKgW1C8kEhIAvJdEHeEhGPEy0RgFAMCMkMQV4Jjq0QcxPkAKEYaDIk5696kqna6UoIVgkGhGKgdSF5fyUkx1fVZLZ1nsJvHoBNjAOEYqCzQXlUCMgHgjJ3uCgG4PiqCgwIxcAQgnIekGNgjn+t9WI4YgvEIg/BWfidGxJAKAa4CcvjFJRHhVdhubvOi+E3/loLBCAUA+wWlkeFsBx7l+3G1w4XheAb2x3mKfwuDA0gFAPUE5b3CyF59fWZESrFVSHw/udV1RcQigG6E5zH6Zd5WM6Dc/73hjzp7zyF3DzohkLwVe0FhGKAAYbnPDRHo3SElUCda1Ml+qoQaMNKsM3Ni79nVQcAoRigymBdrEKXTbsCgFAMAADl2zMEAAAIxQAAIBQDAIBQDAAAg/Z/AQYAzhfp2jfEDQYAAAAASUVORK5CYII=;" parent="1" vertex="1">
                    <mxGeometry x="991.42" y="526.4200000000001" width="67.16" height="67.16" as="geometry"/>
                </mxCell>
                <mxCell id="1006" value="" style="dashed=0;outlineConnect=0;html=1;align=center;labelPosition=center;verticalLabelPosition=bottom;verticalAlign=top;shape=mxgraph.weblogos.twitter;fillColor=#1DA1F2;strokeColor=none" parent="1" vertex="1">
                    <mxGeometry x="985" y="210" width="80" height="76" as="geometry"/>
                </mxCell>
                <mxCell id="1001" style="edgeStyle=orthogonalEdgeStyle;rounded=0;elbow=vertical;html=1;labelBackgroundColor=none;startFill=1;startSize=4;endArrow=blockThin;endFill=1;endSize=4;jettySize=auto;orthogonalLoop=1;strokeColor=#4284F3;strokeWidth=2;fontSize=12;fontColor=#000000;align=left;dashed=0;exitX=0.5;exitY=1;exitDx=0;exitDy=0;startArrow=none;" parent="1" source="1004" target="1007" edge="1">
                    <mxGeometry relative="1" as="geometry">
                        <mxPoint x="483.0769230769231" y="548.8111111111111" as="sourcePoint"/>
                        <mxPoint x="810.3076923076923" y="196.15686274509807" as="targetPoint"/>
                    </mxGeometry>
                </mxCell>
                <mxCell id="1018" style="edgeStyle=orthogonalEdgeStyle;rounded=0;elbow=vertical;html=1;labelBackgroundColor=none;startFill=1;startSize=4;endArrow=blockThin;endFill=1;endSize=4;jettySize=auto;orthogonalLoop=1;strokeColor=#4284F3;strokeWidth=2;fontSize=12;fontColor=#000000;align=left;dashed=0;startArrow=none;exitX=0.5;exitY=1;exitDx=0;exitDy=0;" parent="1" source="1024" target="1006" edge="1">
                    <mxGeometry relative="1" as="geometry">
                        <mxPoint x="568.8888888888889" y="134" as="sourcePoint"/>
                        <mxPoint x="630" y="261.70500000000004" as="targetPoint"/>
                        <Array as="points">
                            <mxPoint x="445" y="270"/>
                            <mxPoint x="850" y="270"/>
                            <mxPoint x="850" y="248"/>
                        </Array>
                    </mxGeometry>
                </mxCell>
                <mxCell id="_0M5Wq5q9TD21tJrrO1c-1075" style="edgeStyle=orthogonalEdgeStyle;rounded=0;elbow=vertical;html=1;labelBackgroundColor=none;startFill=1;startSize=4;endArrow=blockThin;endFill=1;endSize=4;jettySize=auto;orthogonalLoop=1;strokeColor=#4284F3;strokeWidth=2;fontSize=12;fontColor=#000000;align=left;dashed=0;exitX=0.5;exitY=0;exitDx=0;exitDy=0;startArrow=none;" parent="1" source="1004" target="1006" edge="1">
                    <mxGeometry relative="1" as="geometry">
                        <mxPoint x="759.9999999999995" y="587.1599999999999" as="sourcePoint"/>
                        <mxPoint x="1041.3529411764707" y="507.15999999999985" as="targetPoint"/>
                        <Array as="points">
                            <mxPoint x="445" y="570"/>
                            <mxPoint x="910" y="570"/>
                            <mxPoint x="910" y="248"/>
                        </Array>
                    </mxGeometry>
                </mxCell>
                <mxCell id="cqQEUTwVSI_gsDL_SZ2G-1026" value="" style="edgeStyle=orthogonalEdgeStyle;fontSize=12;html=1;endArrow=blockThin;endFill=1;rounded=0;strokeWidth=2;endSize=4;startSize=4;dashed=0;strokeColor=#4284F3;exitX=1;exitY=0.5;exitDx=0;exitDy=0;entryX=0.5;entryY=0;entryDx=0;entryDy=0;" parent="1" source="_0M5Wq5q9TD21tJrrO1c-1050" target="1007" edge="1">
                    <mxGeometry width="100" relative="1" as="geometry">
                        <mxPoint x="200" y="555" as="sourcePoint"/>
                        <mxPoint x="680" y="600.0000000000002" as="targetPoint"/>
                    </mxGeometry>
                </mxCell>
                <mxCell id="cqQEUTwVSI_gsDL_SZ2G-1031" value="Spotify API 認証" style="text;html=1;resizable=0;autosize=1;align=center;verticalAlign=middle;points=[];fillColor=none;strokeColor=none;rounded=0;" parent="1" vertex="1">
                    <mxGeometry x="955" y="404" width="100" height="20" as="geometry"/>
                </mxCell>
                <mxCell id="cqQEUTwVSI_gsDL_SZ2G-1036" value="再生情報取得" style="text;html=1;resizable=0;autosize=1;align=center;verticalAlign=middle;points=[];fillColor=none;strokeColor=none;rounded=0;" parent="1" vertex="1">
                    <mxGeometry x="1020" y="610" width="90" height="20" as="geometry"/>
                </mxCell>
            </root>
        </mxGraphModel>
    </diagram>
    <diagram name="archtecture_20210729" id="JosPazPlZjATWELqj-bL">
        <mxGraphModel dx="1293" dy="807" grid="1" gridSize="10" guides="1" tooltips="1" connect="1" arrows="1" fold="1" page="1" pageScale="1" pageWidth="1169" pageHeight="827" background="none" math="0" shadow="0">
            <root>
                <mxCell id="pjel9fzDB2Vp7X51PQzu-0"/>
                <mxCell id="pjel9fzDB2Vp7X51PQzu-1" parent="pjel9fzDB2Vp7X51PQzu-0"/>
                <mxCell id="pjel9fzDB2Vp7X51PQzu-2" value="ユーザー" style="points=[[0,0,0],[0.25,0,0],[0.5,0,0],[0.75,0,0],[1,0,0],[1,0.25,0],[1,0.5,0],[1,0.75,0],[1,1,0],[0.75,1,0],[0.5,1,0],[0.25,1,0],[0,1,0],[0,0.75,0],[0,0.5,0],[0,0.25,0]];rounded=1;absoluteArcSize=1;arcSize=2;html=1;strokeColor=none;gradientColor=none;shadow=0;dashed=0;fontSize=12;fontColor=#9E9E9E;align=left;verticalAlign=top;spacing=10;spacingTop=-4;" parent="pjel9fzDB2Vp7X51PQzu-1" vertex="1">
                    <mxGeometry x="40" y="80" width="190" height="660" as="geometry"/>
                </mxCell>
                <mxCell id="pjel9fzDB2Vp7X51PQzu-3" value="&lt;b&gt;Google&amp;nbsp;&lt;/b&gt;Cloud Platform" style="strokeColor=none;shadow=0;gradientColor=none;fontSize=14;align=left;spacing=10;fontColor=#717171;9E9E9E;verticalAlign=top;spacingTop=-4;fontStyle=0;spacingLeft=40;html=1;fillColor=#FFFFFF;" parent="pjel9fzDB2Vp7X51PQzu-1" vertex="1">
                    <mxGeometry x="280" y="84" width="600" height="660" as="geometry"/>
                </mxCell>
                <mxCell id="pjel9fzDB2Vp7X51PQzu-4" value="" style="strokeColor=#dddddd;shadow=1;strokeWidth=1;rounded=1;absoluteArcSize=1;arcSize=2;fillColor=#FFFFFF;" parent="pjel9fzDB2Vp7X51PQzu-3" vertex="1">
                    <mxGeometry x="60" y="356" width="230" height="65" as="geometry"/>
                </mxCell>
                <mxCell id="pjel9fzDB2Vp7X51PQzu-5" value="Cloud&#10;Functions" style="dashed=0;connectable=0;html=1;fillColor=#5184F3;strokeColor=none;shape=mxgraph.gcp2.hexIcon;prIcon=cloud_functions;part=1;labelPosition=right;verticalLabelPosition=middle;align=left;verticalAlign=middle;spacingLeft=5;fontColor=#999999;fontSize=12;" parent="pjel9fzDB2Vp7X51PQzu-4" vertex="1">
                    <mxGeometry y="0.5" width="44" height="39" relative="1" as="geometry">
                        <mxPoint x="5" y="-19.5" as="offset"/>
                    </mxGeometry>
                </mxCell>
                <mxCell id="pjel9fzDB2Vp7X51PQzu-6" value="" style="strokeColor=#dddddd;shadow=1;strokeWidth=1;rounded=1;absoluteArcSize=1;arcSize=2;fillColor=#FFFFFF;" parent="pjel9fzDB2Vp7X51PQzu-3" vertex="1">
                    <mxGeometry x="60" y="74" width="230.37" height="60" as="geometry"/>
                </mxCell>
                <mxCell id="pjel9fzDB2Vp7X51PQzu-7" value="Firebase Hosting" style="dashed=0;connectable=0;html=1;fillColor=#5184F3;strokeColor=none;shape=mxgraph.gcp2.firebase;part=1;labelPosition=right;verticalLabelPosition=middle;align=left;verticalAlign=middle;spacingLeft=5;fontColor=#999999;fontSize=12;" parent="pjel9fzDB2Vp7X51PQzu-6" vertex="1">
                    <mxGeometry width="32.4" height="45" relative="1" as="geometry">
                        <mxPoint x="5" y="7" as="offset"/>
                    </mxGeometry>
                </mxCell>
                <mxCell id="pjel9fzDB2Vp7X51PQzu-8" style="edgeStyle=orthogonalEdgeStyle;rounded=0;elbow=vertical;html=1;labelBackgroundColor=none;startFill=1;startSize=4;endArrow=blockThin;endFill=1;endSize=4;jettySize=auto;orthogonalLoop=1;strokeColor=#4284F3;strokeWidth=2;fontSize=12;fontColor=#000000;align=left;dashed=0;exitX=1;exitY=0.5;exitDx=0;exitDy=0;entryX=0.5;entryY=0;entryDx=0;entryDy=0;" parent="pjel9fzDB2Vp7X51PQzu-3" source="pjel9fzDB2Vp7X51PQzu-9" target="pjel9fzDB2Vp7X51PQzu-12" edge="1">
                    <mxGeometry relative="1" as="geometry">
                        <mxPoint x="212.30769230769224" y="479.19019607843154" as="sourcePoint"/>
                        <mxPoint x="457.77999999999975" y="209.41000000000008" as="targetPoint"/>
                    </mxGeometry>
                </mxCell>
                <mxCell id="pjel9fzDB2Vp7X51PQzu-9" value="" style="strokeColor=#dddddd;shadow=1;strokeWidth=1;rounded=1;absoluteArcSize=1;arcSize=2;fillColor=#FFFFFF;" parent="pjel9fzDB2Vp7X51PQzu-3" vertex="1">
                    <mxGeometry x="60" y="176" width="230.37" height="60" as="geometry"/>
                </mxCell>
                <mxCell id="pjel9fzDB2Vp7X51PQzu-10" value="Firebase Authentication" style="dashed=0;connectable=0;html=1;fillColor=#5184F3;strokeColor=none;shape=mxgraph.gcp2.firebase;part=1;labelPosition=right;verticalLabelPosition=middle;align=left;verticalAlign=middle;spacingLeft=5;fontColor=#999999;fontSize=12;" parent="pjel9fzDB2Vp7X51PQzu-9" vertex="1">
                    <mxGeometry width="32.4" height="45" relative="1" as="geometry">
                        <mxPoint x="5" y="7" as="offset"/>
                    </mxGeometry>
                </mxCell>
                <mxCell id="pjel9fzDB2Vp7X51PQzu-11" value="" style="shape=mxgraph.gcp2.google_cloud_platform;fillColor=#F6F6F6;strokeColor=none;shadow=0;gradientColor=none;" parent="pjel9fzDB2Vp7X51PQzu-3" vertex="1">
                    <mxGeometry x="7.41" y="10" width="22.59" height="20" as="geometry"/>
                </mxCell>
                <mxCell id="pjel9fzDB2Vp7X51PQzu-12" value="" style="strokeColor=#dddddd;shadow=1;strokeWidth=1;rounded=1;absoluteArcSize=1;arcSize=2;" parent="pjel9fzDB2Vp7X51PQzu-3" vertex="1">
                    <mxGeometry x="360" y="226" width="200" height="60" as="geometry"/>
                </mxCell>
                <mxCell id="pjel9fzDB2Vp7X51PQzu-13" value="&lt;font color=&quot;#000000&quot;&gt;UserData&lt;/font&gt;&lt;br&gt;Cloud Filestore" style="dashed=0;connectable=0;html=1;fillColor=#5184F3;strokeColor=none;shape=mxgraph.gcp2.hexIcon;prIcon=cloud_filestore;part=1;labelPosition=right;verticalLabelPosition=middle;align=left;verticalAlign=middle;spacingLeft=5;fontColor=#999999;fontSize=12;" parent="pjel9fzDB2Vp7X51PQzu-12" vertex="1">
                    <mxGeometry y="0.5" width="44" height="39" relative="1" as="geometry">
                        <mxPoint x="5" y="-19.5" as="offset"/>
                    </mxGeometry>
                </mxCell>
                <mxCell id="pjel9fzDB2Vp7X51PQzu-14" value="" style="strokeColor=#dddddd;shadow=1;strokeWidth=1;rounded=1;absoluteArcSize=1;arcSize=2;" parent="pjel9fzDB2Vp7X51PQzu-3" vertex="1">
                    <mxGeometry x="350" y="445.99999999999994" width="200" height="60" as="geometry"/>
                </mxCell>
                <mxCell id="pjel9fzDB2Vp7X51PQzu-15" value="&lt;font color=&quot;#000000&quot;&gt;AutoTweetConfig&lt;/font&gt;&lt;br&gt;Cloud Filestore" style="dashed=0;connectable=0;html=1;fillColor=#5184F3;strokeColor=none;shape=mxgraph.gcp2.hexIcon;prIcon=cloud_filestore;part=1;labelPosition=right;verticalLabelPosition=middle;align=left;verticalAlign=middle;spacingLeft=5;fontColor=#999999;fontSize=12;" parent="pjel9fzDB2Vp7X51PQzu-14" vertex="1">
                    <mxGeometry y="0.5" width="44" height="39" relative="1" as="geometry">
                        <mxPoint x="5" y="-19.5" as="offset"/>
                    </mxGeometry>
                </mxCell>
                <mxCell id="pjel9fzDB2Vp7X51PQzu-16" style="edgeStyle=orthogonalEdgeStyle;rounded=0;elbow=vertical;html=1;labelBackgroundColor=none;startFill=1;startSize=4;endArrow=blockThin;endFill=1;endSize=4;jettySize=auto;orthogonalLoop=1;strokeColor=#4284F3;strokeWidth=2;fontSize=12;fontColor=#000000;align=left;dashed=0;exitX=0.5;exitY=1;exitDx=0;exitDy=0;startArrow=none;entryX=0.5;entryY=1;entryDx=0;entryDy=0;" parent="pjel9fzDB2Vp7X51PQzu-3" source="pjel9fzDB2Vp7X51PQzu-4" target="pjel9fzDB2Vp7X51PQzu-14" edge="1">
                    <mxGeometry relative="1" as="geometry">
                        <mxPoint x="489.99999999999955" y="418.5" as="sourcePoint"/>
                        <mxPoint x="755" y="254" as="targetPoint"/>
                    </mxGeometry>
                </mxCell>
                <mxCell id="pjel9fzDB2Vp7X51PQzu-17" value="Architecture: Favotify" style="fillColor=#4DA1F5;strokeColor=none;shadow=1;gradientColor=none;fontSize=14;align=left;spacingLeft=50;fontColor=#ffffff;html=1;" parent="pjel9fzDB2Vp7X51PQzu-1" vertex="1">
                    <mxGeometry x="40" y="20" width="1080" height="40" as="geometry"/>
                </mxCell>
                <mxCell id="pjel9fzDB2Vp7X51PQzu-18" value="" style="strokeColor=#dddddd;fillColor=#ffffff;shadow=1;strokeWidth=1;rounded=1;absoluteArcSize=1;arcSize=2;labelPosition=center;verticalLabelPosition=middle;align=center;verticalAlign=bottom;spacingLeft=0;fontColor=#999999;fontSize=12;whiteSpace=wrap;spacingBottom=2;html=1;" parent="pjel9fzDB2Vp7X51PQzu-1" vertex="1">
                    <mxGeometry x="79.23" y="120" width="91.54" height="70" as="geometry"/>
                </mxCell>
                <mxCell id="pjel9fzDB2Vp7X51PQzu-19" value="" style="dashed=0;connectable=0;html=1;fillColor=#757575;strokeColor=none;shape=mxgraph.gcp2.laptop;part=1;" parent="pjel9fzDB2Vp7X51PQzu-18" vertex="1">
                    <mxGeometry x="0.5" width="50" height="33" relative="1" as="geometry">
                        <mxPoint x="-25" y="18.5" as="offset"/>
                    </mxGeometry>
                </mxCell>
                <mxCell id="pjel9fzDB2Vp7X51PQzu-20" style="edgeStyle=elbowEdgeStyle;rounded=0;elbow=vertical;html=1;labelBackgroundColor=none;startFill=1;startSize=4;endArrow=blockThin;endFill=1;endSize=4;jettySize=auto;orthogonalLoop=1;strokeColor=#4284F3;strokeWidth=2;fontSize=12;fontColor=#000000;align=left;dashed=0;exitX=0;exitY=0.75;exitDx=0;exitDy=0;" parent="pjel9fzDB2Vp7X51PQzu-1" source="pjel9fzDB2Vp7X51PQzu-6" edge="1">
                    <mxGeometry relative="1" as="geometry">
                        <mxPoint x="364.61538461538464" y="367.58169934640523" as="sourcePoint"/>
                        <mxPoint x="160" y="220" as="targetPoint"/>
                        <Array as="points">
                            <mxPoint x="270" y="203"/>
                        </Array>
                    </mxGeometry>
                </mxCell>
                <mxCell id="pjel9fzDB2Vp7X51PQzu-21" style="edgeStyle=orthogonalEdgeStyle;rounded=0;elbow=vertical;html=1;labelBackgroundColor=none;startFill=1;startSize=4;endArrow=blockThin;endFill=1;endSize=4;jettySize=auto;orthogonalLoop=1;strokeColor=#4284F3;strokeWidth=2;fontSize=12;fontColor=#000000;align=left;dashed=0;exitX=1;exitY=0.5;exitDx=0;exitDy=0;entryX=0;entryY=0.25;entryDx=0;entryDy=0;" parent="pjel9fzDB2Vp7X51PQzu-1" source="pjel9fzDB2Vp7X51PQzu-18" target="pjel9fzDB2Vp7X51PQzu-6" edge="1">
                    <mxGeometry relative="1" as="geometry">
                        <mxPoint x="665.3846153846155" y="266.9281045751634" as="sourcePoint"/>
                        <mxPoint x="743.8461538461538" y="346.01307189542484" as="targetPoint"/>
                    </mxGeometry>
                </mxCell>
                <mxCell id="pjel9fzDB2Vp7X51PQzu-22" value="" style="shape=image;verticalLabelPosition=bottom;labelBackgroundColor=#ffffff;verticalAlign=top;aspect=fixed;imageAspect=0;image=data:image/png,iVBORw0KGgoAAAANSUhEUgAAAgAAAAIACAMAAADDpiTIAAADAFBMVEUAAAAAAAAAAAAAAAAAAAAAAAAAAAAAAAAAAAAAAAAAAAAAAAAAAAAAAAAAAAAAAAAAAAAAAAAAAAAAAAAAAAAAAAAAAAAAAAAAAAAAAAAAAAAAAAAAAAAAAAAAAAAAAAAAAAAAAAAAAAAAAAAAAAAAAAAAAAAAAAAAAAAAAAAAAAAAAAAAAAAAAAAAAAAAAAAAAAAAAAAAAAAAAAAAAAAAAAAAAAAAAAAAAAAAAAAAAAAAAAAAAAAAAAAAAAAAAAAAAAAAAAAAAAAAAAAAAAAAAAAAAAAAAAAAAAAAAAAAAAAAAAAAAAAAAAAAAAAAAAAAAAAAAAAAAAAAAAAAAAAAAAAAAAAAAAAAAAAAAAAAAAAAAAAAAAAAAAAAAAAAAAAAAAAAAAAAAAAAAAAAAAAAAAAAAAAAAAAAAAAAAAAAAAAAAAAAAAAAAAAAAAAAAAAAAAAAAAAAAAAAAAAAAAAAAAAAAAAAAAAAAAAAAAAAAAAAAAAAAAAAAAAAAAAAAAAAAAAAAAAAAAAAAAAAAAAAAAAAAAAAAAAAAAAAAAAAAAAAAAAAAAAAAAAAAAAAAAAAAAAAAAAAAAAAAAAAAAAAAAAAAAAAAAAAAAAAAAAAAAAAAAAAAAAAAAAAAAAAAAAAAAAAAAAAAAAAAAAAAAAAAAAAAAAAAAAAAAAAAAAAAAAAAAAAAAAAAAAAAAAAAAAAAAAAAAAAAAAAAAAAAAAAAAAAAAAAAAAAAAAAAAAAAAAAAAAAAAAAAAAAAAAAAAAAAAAAAAAAAAAAAAAAAAAAAAAAAAAAAAAAAAAAAAAAAAAAAAAAAAAAAAAAAAAAAAAAAAAAAAAAAAAAAAAAAAAAAAAAAAAAAAAAAAAAAAAAAAAAAAAAAAAAAAAAAAAAAAAAAAAAAAAAAAAAAAAAAAAAAAAAAAAAAAAAAAAAAAAAAAAAAAAAAAAAAAAAAAAAAAAAAAAAAAAAAAAAAAAAAAAAAAAAAAAAAAAAAAAAAAAAAAAAAAAAAAAAAAAAAAAAAACzMPSIAAAA/3RSTlMABRszSVhnd4eWpbXEzM7d6O7w++PNyLuyqpyLeVNBLx0KEDBQcI+kvdTq8dW6oIRqTjQUQ5Cw0KmFYj4CJVJ6osrzm28VBjJjk8PyjlsBKWH6uRkORH22qCsM/KxuCIPtrh8kuPfXRwkHRdn2tx4RX/T+yygTXrP5kTwabL/giCxVgCED/ZTrpmbaF5l2Eu/4TW1o7K+dIiqnhgvn1kon6Tk9zy3bP9KN3kINBIL1JuUYI7TiOtFlx5LfsUihHA8W08Dk3HhamHVdQNiVflxgiUzBvCC+yTh8e0+KwqOff+ZGLjtUaYGea6tycXQ2jOE1SzFRWVc3xq3FVnOaZJf4qAM1AAAjvklEQVR42u2daWAV1fmHT0AIKBBIZJMdypZABUERvUhAiAoatgRki8iiRJDlli1QhYRERJGwihIQUNACMSyKoKIgoCiodaFaFVvE+lfrhrZ1aet/mp27zL3znpkz8zvn3nm+8IVMfvO+T2bunTkLY9FDTJWqF1SrHluj5oUX1apdJy6ubr14rYSEesVcHFe/QcNGjS9p0rR6s+YtWrZCh3URRus2v2nbrn2HjokaD0mdOv/20i5dL+uGju9imirdu1x+RY94rr4HE1/7yp5XXV0FfTIuHHh6XdM7uU+Sxc7707fBtf2690efmYsRKdddf8OAgUJb70vdhjfe1CsVfZIuuqQOGnxtjyG29f489YZe2nUY+mxd/EhLHz6ingO9P8/FN3cZ6V4KpGDUBU1qj3a0+RUkjhnbwoM+/egmo/kttRIgza9g3K3Vx6OrEK1MGDtxErT5Fdx24+2T0cWINjLvaDcF3Xdfpt45dhq6JtHD9BlXzER3PBjv75rOQlcmGpg9Z+48dK9DEpc13/1qYCcLfn8X5gM/nbsXLkJXKVKZnD0X+4mfSqecxehaRR656ckS3vdDkVern/saUSRV71mC7ikvk+5t7n4cEEPa0vrobprjvtj70bWLAKou64tupHlGN8zORRdQadLGdkT30CpxDyxHV1FZJizMR7dPBCuSF6ErqSKp6Y1l/8pPp9ZK9wMhH6NWSfWo3zq3rXYHGtPplrMG3TDxLMmZjq6rIozPUuiRDw99sxaga6sAE5Y5Ma4PxIplLdH1lZw2a73oJtnLvAcnoGssMSOT89ANsp+8xuvQdZaUh5Ij53tfWOYtc0eVBzPo4Sj4669g5nr3G4E//bPUeNUvjIEL09A1l4iCWPtmc0nLkn7ue6IyYpZuQDcDw8ZH0KWXgmb3oRuBo9EmdPXhzJqIbgKUIcuie8r58hui7LNfMONWRe9HAc+czejyy0CPLehGgHj0MXTpJSFvWTQOGmqdFUUPfowY1y/qpplnu1d/PwZsRXfEUSY0RBdcOob0zER3xTFi+kXoiA9rbHsc3RiHqPoEutSSMvoP0TBuMCZW3tndcLbvQLfHdrYqOs3LIbzLdqI7ZCuF7p+/EXc/im6SjSyqgy6vAox+shDdJ7uYU4Qurhr02YXulC30b4QurDJM7Ydulg10340uq0rcuQfdL8HE5LhP/rnY3B3dMqHsdb/88ZIQG0ETilc6u5J3hPBUpLwkLnQv/+Z4eh+6dUKoUgtdSGWJiNtAuvvi3wKNC9D9s0hq0yiZ72cXz6i96GhGMrqAyjMuHd1EC1Tpgy5fBDA6Ft1G0+yL0ilfommv6H4k+91Xv4I4oOKD4dxn0WWLIJ57CN1ObgqeRxctohh4EN1QTvb8Dl2yCCNhKbqlXIy8G12wyGOhQk8Fd+SjqxWJvJCC7iuVOe7Hf1toOArdWRqr3Jd/NvE7JTYiikWXKYLZ+CK6u4akXo4uUkTzXC90gw1IuRldoginbht0i8NScCe6QBFPPZmHCaW5g3/sp+/V6DaH5NABdHGigiJZpxC3boAuTZRQJOecgenu6A+nKJJxlNB09/WPc0yVz4DDL6GLElVMvQPd8ABauzP/nWWqXN8F0tz7v9MkXYZuug+Tj6DLEYUskWeYWMpF6GJEJUdlmTOS2xhdiijlmBwbkXouRBciauk4G938Etz3vzj6SDB39GV0EaKaufDtRl6J8L1+Zec4uP873PGfYF6F9r9qX/T5Rz3e14D93+uu/oFnxQlY/6efRJ+8SzH1UCvLFrr7vsjBydYYAV5Hn7hLOUMh64uvQp+2SyV/APT/jqjf9FUm9jve/1n56HN28WGI0zuOtY7iPd+lpK6zswZTb0WfsEsADRxdPeAN9Om6BHG5g/2/w13/VULedKz/45egz9VFh75ODRLMcLf/kJOTDm06+QL6RF1C0N6R/v8RfZouIbnKgf5PGIg+S5eQzNxke/8z3TlgMlPf9qcB96BP0SUsb9nc/7fdMaByk2fvxPEX16BP0MWAuvfb2H/PO+jTczHkChsFeBV9ci4E5tjW/4cmoc/NhUB8S5v6X+iuAqQGnW3aWeAW9Im5ELHngWDVIejzciGSNM2G/rdyZ4Gow7s23ASaoE/KhQPxN4EW7g1AJcYdFtz/wtroU3LhIlmwAA+gT8iFE7HvBE7NRJ+PCyfbMkQK0Bl9Oi7cPCmw/zPQJ+PCz7xBwvo/PRF9Mi4m+JMwAdxRQGrSTFD/t7oTwdXk6VZC+p/qjgJRleFCBJiDPg0Xs0wdL6D/O3ejT8PFNPcKEOBG9Em4WMD6xjK73JdAKvOe5ffC7lIgapNtsf/vuxNB1Oa+GGsCuLtBq85qS/3PRsd3scpmK6tGxLiLwanPny0IMBYd3sU6Aw+b7v9O9y1gJNDEtAAfoKO7iGCm2UtA2jh0dBU5+eADHw4aP71wVP91WwbXeEqGPXU+MimAuxwoN6evD5yTE/NoE/iqiiYvAa3z0cEVw/txG91CZgw+Bk5m7hLwJLqgihEXeiD25BzsGxVTl4DlSeiKqkWjsMNvmsdDw71lQoCe6IqWk/jOCzmxsbE9/zJxAzpKOP5k8Mz9cegOm32Xc/c/DatsOe/8fqTP+8yW2e1lvSzlG+7k/ldoPv7HgRLMBRt9PHhke0a2nMuUrDcs6Kh8ZL66vPOEMs+gS6q9d51+tE96oJPpcNa4pMnQgNU5BdiPrqh2YchFT2PAn6l1GOIxLmlbaMIphIQ+eKagS3o83FimT+uh4wWQSKjpa9iI13AJ8Dd0RTuGv2eNPIoO6E9dQk1vwkbswyXAe+CC5hndU9vItWShAgJon3L0/3F0QdcaRvwMHdEPFQS4mUOAMeiCVjPOuBad0RcVBBhi+Kiikmnw2aAtjUP2l2m0igoCaDlkAWqgo46mTGd4E53SByUEOEPdTSQD/gI7iZSzETrmeZQQgHJjLeUqdFAtnpRzmDwjltQQoBZRAPy2UDQBJFq6SA0BtDaEmIw9io5JFoBdgQ5agSICvE6qant0TLoAC2R5JKyIAPGUNWMOFaFj0gWQ4ONKGYoIoL1CyNkFHVLjEICNQEctQxUB3iXklGFVaLoAVfLRWUtRRQDvXsOYW9EZS6ALIMHAhRJUEUD7P8OYz6IjlsAhQOpEdNgSlBHg4lyDlJlSPFzhEICNl2E3c2UEMFxFvho6YCk8ArDV6LSaSgJ8bpDyInTAUrgESB2KjquSAEmTw4ZcDp2+UAmXAOwU/iagjgAGYwOro+OVwScA+wKdVyUBvgwb8gg6XhmcAqQ2RAdWSIBJh8JkXJCHjlcGpwBsMXoZBoUE0GaEyfh3dLhyeAWAr2alkgATw2SU4TFwCdwCeMB7GqgkwJDpISP2QmergFsA1gv7DlMlAbQ3Q0Z8GR2tAn4B2FfQwEoJMCZkxAPoaBWYEMBzGhlYKQGKQg0LuV+S7wCmBGC7pgIDKyWA1jVEwqXoYJWYEYB9DQyslgCh3gfI8R6gBFMCeAbgAqslwJpC3YCj5Jlwa0oANgh3AmoJEGInoWboWOcxJwCLhQVWTICeugGxa9j4YVKAXNiyBooJUEcvn0ei2bYmBWAjV4ACKyaAd49OvqroVD6YFYD1BgVWTADdF0Ko2ulhWoDCPpjAqgmgt6PoXehQPpgWgA3C3ARUE2Bc8ODgAjkGg5VhXgA2HBJYNQG094PivY2O5IsFAQohr7SVE6B3ULwsdCRfLAjAziIuZcoJMDQo3m3oSL5YEYDlAAIrJ0BR4HpBVdCJ/LAkQMozzgdWTgBtS0A6OWYEVWBJANbC+bWk1RPg5YB096AD+WFNAHaL44HVE+DOgHSAy2YYLAqQ8oTTgdUToK//FjetpRkMVIpFAdhlTi91qp4A2jd+4R5Bx/HHqgBsvcOBFRSgn184+OKw/lgWIPMlZwMrKID/6wDgaCo9LAvAvhntaGAFBYjz+4NBvUcPgXUB2FuOBlZQAO2w798LOkwAAgTI7ORkYBUFWOmTTYa1AX0RIAB738mbgIoCXOqT7UF0mABECMC+dTCwigI09Mn2GDpMAEIEmOzg1ncqChB/fleODNk2YhQiANvi3E1ARQG0xZXR3kdHCUSMAKydY4GVFOA3ldHwiywFIEiAVvc5FVhJAf5aGe1zdJRABAnA9jn1ikNJAW6tjIbfIyYAUQKwGxwKrKQAlc8CPciZ9boIE6DVNmcCKymAt2LBuAnoJEEIE4Cd8DoSWEkBtPnlybqigwQhTgBW05HAagqwujyZNGtDVUIRoIAmwM7nnAispgDtypNJNC+8HIoAXbbSDNjhxE1ATQFGlCeTZXnI81AE+Oox4la4yxwIrKYA5V8DPDPRQYIgCUDdDTvtO/sDqylAXkZpsMXoHMHQBEg4RzOgu/03ATUF0MruorejYwRDE0DbOJnw/4q5xPbAigrwt9JgMuy5EwBRAK0JTYBDF9sdWFEB/lwazNnRcySoAuRdTfiPxaTbfRNQVIAHS4N9iY4RDFUAbfsomgF/sTmwogKU7SQr37dAugDaPTQB7L4JKCrAsdJgUmwV6Q9dAO9BmgHf2xtYUQHmeUr+ONApdKALoB2dTvi/zO7HnYoKoC0ozvUDOoQOHAIYboVZTuujdgZWVYCSZSL+gQ6hA48AfhMcwvChnYFVFeCfxbl+jw6hA5cAG2bTDLjQxsCqClCyTkhPdAgduATwGdsWltkb7AusqgBZTMIRoRqvANq/aAbYOPBFVQGuLM41Ah1CB04B1uwh/P9ibrYtsKoCHGESDgnWuAXQ5tIE6FbXrsCqCnCyOJeNd0bT8AqgDaYZkG1XYFUFKC60x+n1lIi5+ARImkYzwK73HqoKoE1me9AR9OAWQOuQSviR4pvAZnsCKyvAKdYCHUEPfgG0L2iXAJtWRFVWgB9Zc3QEPUwIUNSLZsAYWwIrK8BBKZ8EmxFA+ymX8EOM9bdlbyxlBfgXG4yOoIcZAbRXaZcAW/qgrADVWVt0BD1MCbCCOFPkVhsCKytALGR7BUNMCaDViSH8GGPDbBgBo6wA6x1cRoUDcwL4LHkRlhniAysrQE0p3wWZFYA6U2St8MDKCnAh+xkdQQ+TAmgvZZIEqJIvOrCyAjzF3kVH0MOsANpbtEuA8K8+ygrQgf2EjqCHaQHyHqUZIPoduLIC/CLjrAALAmhxtJkiC/LFBlZWgPrM4Z0VaJgXQHuWdgnYLzawsgJ0Yo6tpciDBQG8t5MESL1TaGBlBdjO7kZH0MOCANrFrUkGTBsoMrCyApyRckCQJQG0S0gCiJ0Vr6wA+WwNOoIelgTQvicJkNpBYGBlBShi8i0QpFkV4Axtpsh4gTcBhQVAbLZuiDUBtIdJAohcJF1hAZzdXo2IRQG0f5MESG0oLLDCAsi2WUgpVgVYQpspsrivqMAKCyDZjoFlWBVAa0QSgI0VFVhhASahI+hhWQBtBkkAzzuCAissQBE6gh7WBYinzRQRdRNQWABht0GRWBdA60ybKfIVLZARygrQlwl9IioKAQJon5EE8JwWElhZAdaweHQEPUQIMJM2U2SXkP1ylBXgqIyLxIkRQDvtIRnwtYjAygoQF4Evgyr5D0kAzwABgZUVYCM7ho6ghxgBViwiGbBJwE1AWQEeY0+gI+ghRgCtPm2mSKz1wMoKcIAdQEfQQ5AA2nCSALnvWQ6srADvMJFvxYUhSoCEy0gGzLL8OFRZAZ5ic9ER9BAlgNYpg2RAb6uBlRXgQnYlOoIewgTQ1pMEKOxjMbCyAkTW3EAd8uYTDsXYIIs3AWUFqOHY/tpciBNAm9KKZMBwa4GVFaApexIdQQ+BAmiXkwQotDZDSlkBPmP90BH0EClAXnOSAWctDY5UVoBX2GvoCHqIFEB7bifJAEtLpSgrwNvsEXQEPYQKoP2XJEBhfQuBlRXgG/YjOoIeYgXQHiEZ0MLC+FhlBTjFJqAj6CFYgDPLSQbcYj6wsgK0YtPREfQQLIDWniRAivkXY6oKMJCx1IhYLdyIbJIBP5i+CagqQMnOkTatn20J4QIkHiYZsN5sYFUF+IlFxo4hxjxPEiDT7HopqgqwtjhXI3QIHcQLoL1GMuAbk1MlVRVgWXGumugQOtggQHxLkgFvmQusqgAfFOf6AB1CBxsE0BqSZopkdjQVWFUBSq6Lf0SH0MEOAbTqpEvAj6ZuAqoKcHVxrnR0CB1sEWDmBJIB35oJrKoA44tzzUKH0MEWAbRapD1FMjuZCKyoAKNLhk3vRKfQwR4BtK9Il4AtJm4CigrwdGkwCdcJs0mAFSNJBpjYQkFRAQaUBpNwZoBNAmjvFVIEaLWN+8CKClD2jqQ9OkYwdglQ+r3XmH15vMdVVIA3SoNJuGuQbQIMqUoy4Fne4yoqQLXSYG+iYwRjmwDEmSLcNwFFBbiuNJiEY4LsE0C7lHQJOOHlO6qaAnjLRkvORucIxkYBEn4kGfA631HVFOBoebJ66CBB2CiAdnIyRYACvnUT1BTgT+XJGqCDBGGnANqNpEtAd66bgJoCHC9Pdgk6SBC2CpD3OMmA4zzH3KykAG3Lk8k3OchWAYgzRQrieI7ZTEUBKuZM7UAHCcJeASovfeHhugkk9ldQgG7lybqhgwRhswDeC0gGXMtzzBfUE+BoZTTploqzWQBtN2mmSNrTPMfsqpwAF1VG64yOEojdAmjJpEtAOs9NYLfRbmXSCVCjMtof0FECsV0A7W8kA7iWTzH6ZCGdAP+sjPZHdJRA7Bdgs/GHtmJaH+U4pNdgIQLpBFhUGe0sOkog9gugjSFdAt7mOeSx8KvRyCZA0fnBEbmybRrggADaTSQDXuA5ZDulBDjtk03UzimicEKA/JYUAQ7x3ATCL0kmmwDf+mRrgg4TgBMCEPcU4boJnAw32kA2AXz31vs3OkwAjgig7acIwC7kOWRPhQQ45ZPtFDpMAM4IMHMvRYDZPI/Jwi1OLJkAiX7h6qLj+OOMANoA0p4iXXkO+UzoFeolE2CuXzjJlox2SACtH0UAdjPPIUOvUC+ZAG/4heuNjuOPUwIUbaII0I1nEZXQk08kE2CHX7hP0XH8cUoA7QBpuuCHPId8L9Qh5RJgnv9TqxS5NhB1TACtKUUA9iXPIb9WQoABAeneRQfywzkB5p2lCMB3ExikggCBX1gtLpcuGOcE0HqkUAyoxnPIX/S/XMglwCcB6a5GB/LDQQG0JykCsDE8h/xCfgESAsdFZkq1jbyTAiR8QxGgfyLHIWeuk16ABkHx7kJH8sVJAbSNpOmCXO0bmmr1CHazMCjeG+hIvjgqgN9rsdA8z3PIwbILsCMonlRTRJ0VgDZTZBjPNtvxL8otwMzMoHgemdYMdlYAbTtppsgcnkPODf55mQR4Suf8uF572ozDAmg1KQKwtTyHrCa1AKusCm4zTgtAmymygGca9ZLDMguwS+f0+nMvjGMfTgugHZ1OMWAwzyEflliA53RPz8qmSYJxXADttxQB2AieQ/5DXgH0pzD0RMc6j/MCaB9SBGgZz3HEMwFXFYkE0J/GJtErYYAAdbsRfif7leeQn8sqQJH+IimeM+hglQAEKN08w5DUO3kOeVBSAX4OcXb/jw5WCUIAn6lyYaiSz3HE7/yeL8gjwJwQJ/cJOlglEAHyXyT8Vlad55CvSynA6FB3uxhplguDCKD/CieQ1KEcR/R2l1GAu0Ke3MfoaBVgBNCup1wCxg/kOOL2AgkFaBvy3K5BR6sAJEDSeIoBXXgO6fOmURYBvItDnlqrmehw5YAE0DqQbgI8C6rkfSqdAA3CnBvXwCcbQQmg+5IkiHU8fycdK1+8yiJAuH1T/oEOVw5MgKJdhN/MxvIc8hbJBMirEubMUngGPdgITADtJ8pMEc8RjiMmVGxRIIkAR8KeGtfSePaBE0CLpVwCFvMsqdIjRioBPgt7ZifQ8coACrBiK8UArl/eWyYBEg6Hv7hxrY1oG0ABtMcoM0U8pzmOWD5fVA4BJhqc2UfogKUgBdByKJeAXVM5jlj2wUIOAeYYnFgLdMBSoAIknKMY8DXPIb+SRoCkVkYnVgcdsQSoANpGyp4ingEcRyyaIIsA/zU8sS/QEUvACqB9RLkEbOK5CRxJlUSALYbndUiGlQLAAuRdTTEglueQq+UQYArhWTfX2pg2ARZA2z6KEMBTi+OISdOkEOABwnnNR4fU8AJo91AuAbN4ZlQ3TJVAgIQFlPPaiI4pgQDedEqlevMccoYEAjSinBX7DzqmBALQZooU9uE5pwewNS3hIOGkGOu2Ap1TAgECx3Trs3UexxHxA+6OkRbGZOy36KAyCKBdQymVXEsrGfE15ZSK+QEdVAoBEg8TQhTWRpeKg6mziQIwnodctiCDANqtlFKd5bkJgCHd1UrJRkeVQgDtX5Ra5aBrReccWYBC9EthOQRYs4cQI6UHuFZk+pD7z9jL4KxyCKC3zkswLYaAi0WFNPWtnOngFwKSCKC72FcQT2JrReXiGMrJVACeJyqLAPHTCEFSnsAWi8jfefrP1iVAw8oiAG2myA8q3ASSDnEJwO6FppVGgBDL/gawHlosGgspJ+LDWZ59k4UjjwBFvQhRMl9CFovEkJacArCLkHHlEYA2U+Q66W8CtEWwfIEOC5BIAO1VSrXeQlaLQN4ibgGgz4NlEoA0UySzI7BaBL7k7z+7AJhXJgG02pQv0FtGA8tliLeNCQHYT7jAUgmg/ZVSrW9x1TLmCjP9Z+m4wHIJQJopktkJVy5DKCegA24TEbkEoO0pIvFN4CJz/Qd+EZBMANpTlHawchnxKSW+Hg1RiWUTYPQ+QqBW21DlMsBoQnBozqEeB8omgBZHmSmyT6IF933wXmdaAPYUKLN0AmjPUsr1LKhc4XmYEj0Eg0AvBeUTwHs7IZKUN4EhEywIgFozSD4BtItbEzKdgL5C0+d1Qu7Q3M+zLqo4JBRAu4RSr9ch5QrHTMrAxjBgBr3KKEDQFjB6FByD1CsMl1rrPxsF2UVCSgHOLCek6i7ZTSCRcyBQMPsRsZMIwf7ueKp7KfU6jqhXaFZb7T/LRYx2GU0YigfY7DibUK+07wD1CskTlOEsBuxABCfs4FTT+VRL7ifU6xOZbgLdCYENuVnO4DwLtIiC9FpVkuV2yXkNeZFnYVxB1DBM1RoyK3MGoV7y3ATmUUa0EgBMFNtueO9aCilpfktCvZBjqfxoIqb/LOWk89nfNMhUeB+mpqSNpT7HZAvkjOWvgBXcAQhvsEZPb1RVPyPU6xB6dnUZ1QhRifzsfPorwq5nMx+2LkPfvYR6vY1K58tQcf1nVXg2TRbE8TAGXLcGV9fTlJWWJFhtc5Klt4CBrAacwc9podKsBPh4nv8Q6rUcvw/zGyL7z7dBgiie+7fuJ64Ff8E+apk0iFCwrtCIxZzMJKTkgGtZVGHUuiPoersgB765YZ9CQsHaYzN6d4jtP2N/xpzI0Y/2+WxxcGrGUBkGXw8n1Gv2BmhE/smgRsTA1sFIeCa53RurXq1xfOISaE3PM48y0wq6B+Nuykq3nHyDXTREKp6g3GAfBgZcKb7/yiyG5AjrCfWaXRcWL9mO/vOtjR3h5M0nFOxDVLoNlLFLJhjEs0tOhHOMMlOkMSgcaZ1rM0iwk4A0XE6o12HMp1YrM0HC48HNF5aOvOaEglVDJDtKXhScn1NJ6LrLw3NphIKNcT5XnpBhYKGYgS67RBjvwchY/0THY5E2PTRPMrrsEvEIoV6O7xRVh7L3tQUKbkOXXR5IM0VudTbTpEX29p+xrZC3QnLSnlCvYeMcjWR9Iogh/dBll4hmhHrNcTKQmHHg4Um9Al12eSDNFFnrXJ7vbPwGeJ7Z36HrLg+UjaWq5DuVZsU5J/rPWBv3kXAlrxHqNdipMKS17UUAmTEsJ/EtCfUa4UyWK53qP2OXoOsuDw0JM0UWOLJr7H2UR5OCyHDfDFdSnVCvXx3IMekH5/rP2HjgwHzJ6LvYuFypQ+3PYTSZTjCfyDA4Uw6OEGaKTLP9LZqoiaBkHF+iR16+IpSrus0ZOgtYCoQT8NaCErFipHG1bL4JTLFhFLARMR3QhZeG+oQ9RcbbueLiQIKC4lkOmqIvIR8QytXFvl+fZ8socGMGQedoysS8FsbVSrVvPN3LmP4zdrs7V6ScHoRhGOvsmtR4Lar/jF2PLrw0UFZkXWXPr55ImatqF5ilhCUk4UfjYnmO2PGbO1KWMbcP+ZbHBnFysnGxFtuw4N7ultD+s1x3eEg5NxKq1Vb4bx1oaktIkRS474XKyHvcuFge0cubDjmI7j9jh2XcJwXBdsJ0wV1ix9LkvYLufgkt70aXXhKOE4oldnplW3Tvy+iFXQ1FGrwXGNfKI3JT9t7ozldw1tmx79KymzBTZJO4mwBpKztn+BGzt5R0JBNq9YCoX/YCZdlip+juzhcqhbCxVO57Yn7VGOdHAIRjJWzxXqnY3N+4VA+tEPGb1hJeQTvKBe41oATK3KzeAn7PCMELgboGiOIm40oJWG1Lwv4zdtA1QKPtKTLIaqXuzEA3W5fbXQOK6Uz4cD7c2q+QtP/uXaCM/caFiqlj5RdcJOP1v4x0wAZj0jHwlHGhWlj40tTY5kVgLHFOlvWckQwgzBQxP5LmY+QAIGMeOoouvwT0M65TYW2Tx76HsmMNksXu22Ft0kPGdWoxxNShF6L7a8we2MYC8nCA8JjWzOLrXsp+RXBmN0DXHw9hpH4K/x9KwmB0b2lkXImuP5x5Z43L1Ib3JjDze3RnqeTegG4AHMpMkZ58h9xQFd1XDvrloTuA5knjImW+xHPAbUI3grSdZtH+UDDhG+MiXcdxEzjQDd1STh6P9mFiGwkP7N8iH+1LWR//h2ZvJ3QLwHxrXKPMjsRjZcn++EePnY3QLcBCmSnyI2mppUlz0L00R+5CdA+wbN9pXKMmhOPsJnyckJRXovujYE3jCmUa3yjrtES30QKf4jZPlADvHYQKGX1hTlbv458vVX5BdwHJ04S5++3CHiFBiaf/4ShciO4CEsIm3q3CrbW12dYtwByiWjQPEyLsKbIv9E3gnWHo5glhE/XbbgSSeNi4PlkhftabJdvkD7OkoTbRlYDGxuUpiNP9yfwP0X0TyNLo3WSkmnF1Tnh1fq7+XnTThDKrB7oRKPJfNK5O8FJb3ix5x36bIyPLa6J6kcBQ45kiBccCfmYzZVdS1fhNtL4fvN64Ns39/zom7kE3yxamRen64knjjWtz3Of/T+0i09IPIkkdG52fBTsYN3Tn+ZW2ekDWfneIdSLXSFKHVcaV2VF+E0hYGGmf/vwpjI3GpUSKdhlX5trS/9nxMnSHbOeHaJw48ovxTJFDTxf/+V8q88RPURTGRuEogVjjuqR7O55D98YhZp1G98NxViwyLkuzyL77+5I6J+qeCTwWDRd3DoaNQXfEaXLQJZeNldvRLXGWhHPoisvG5Jzo+jC4kbCnSJSxdy66KY7yEbreErIyDt0VB8m7Gl1uCcl42fZ9teVhWwG63DIyOyt6tp+8B11sOdkUNUMGvRLs8SQl6dEyYOy7Q+hSS0pq9hR0b5zhc3SlpcWTHYdujiNcgy60vKQsPYPujgNQZopELQWxiej+2M/N6CpLTau2kb7W8E8r0TWWnJQ591mvsrTUcttvjCd7I7pP9uCd+z66torg6XoXulniSWi/CF1XlWizLLLeFSdlEWaHuPiyJ2cNumvC2NbPfQ1kgoLqj6E7JwJv50dUXOZRDrYkq34niH99EbqIatN6qcpLztZeOgpdQPXxpLcvQjfSFPk3bEXXLlJI+3WAastL5B2Z4Q4CFcm02Dh0TznYmLMOXbAIpGqWGq8L1yybjy5VpJK7Y5nsDwfWfH47Yc84F9PEHLxkM7rJITlTM13ujV0jA0/VHLMbr9rJd1lu952j19fvyDSaPOF00zbokkQdBekL5bgQJDaeMx1djGhl3epb46HNnzm0adVIXdRNEXJHLk1+GtL8oloL06NnUQ+5GbT04zhHm1/3+aafRspi7pHCofn9Gm9woPdDOi2bM9K97EvKtGY9n99u23uDendl/XqZ+4cvPTvf35/VYbfQ1vet83DT71uiT8yFh1Ftspt+PsDqTWFqp7Uf7T+xAH0yLqbJmHDitQ9qzn3mDMdW3ZqWP+V0+xpfrGwzGx3fRRytd+3retWrNbKubTziSO1jcXH1ihld/FW++J+jcXEvNWj4c/LxhcNX/XPH1mHRc5//H7NkgbjlCzQwAAAAAElFTkSuQmCC;" parent="pjel9fzDB2Vp7X51PQzu-1" vertex="1">
                    <mxGeometry x="150.00000000000003" y="670" width="48.5" height="48.5" as="geometry"/>
                </mxCell>
                <mxCell id="pjel9fzDB2Vp7X51PQzu-23" value="External SaaS&#10;Providers" style="points=[[0,0,0],[0.25,0,0],[0.5,0,0],[0.75,0,0],[1,0,0],[1,0.25,0],[1,0.5,0],[1,0.75,0],[1,1,0],[0.75,1,0],[0.5,1,0],[0.25,1,0],[0,1,0],[0,0.75,0],[0,0.5,0],[0,0.25,0]];rounded=1;absoluteArcSize=1;arcSize=2;html=1;strokeColor=none;gradientColor=none;shadow=0;dashed=0;fontSize=12;fontColor=#9E9E9E;align=left;verticalAlign=top;spacing=10;spacingTop=-4;fillColor=#FFEBEE;" parent="pjel9fzDB2Vp7X51PQzu-1" vertex="1">
                    <mxGeometry x="930" y="80" width="190" height="670" as="geometry"/>
                </mxCell>
                <mxCell id="pjel9fzDB2Vp7X51PQzu-24" value="" style="shape=image;verticalLabelPosition=bottom;labelBackgroundColor=#ffffff;verticalAlign=top;aspect=fixed;imageAspect=0;image=data:image/png,iVBORw0KGgoAAAANSUhEUgAAAsUAAALFCAYAAAAry54YAAAACXBIWXMAAC4jAAAuIwF4pT92AAAAGXRFWHRTb2Z0d2FyZQBBZG9iZSBJbWFnZVJlYWR5ccllPAAAQAlJREFUeNrs3VtyE0cbBuDGxX2cay5QVoCzApQFpHBWgLinCrMCxApiqnKPWEFMsYDIK4i9gsgXuf7tFfifRj14InzQYc7zPFVTIiEH0xrNvPPp6+5H19fXAQAAhmzPEAAAIBQDAIBQDAAAQjEAAAzaY0MAsJ4nX14fZC/7hb8Vf31wyz96198vw2V2nN3xe/OVvz7799c/Lr1zAA97ZPUJYKABtxhci2G3+OtRdjzt0R/7tBiYU8Au/voyC9Fnzg5AKAboV+AtBt9xIfT+YJQedJ4H5UJoPhOcAaEYoF3BNw+940L4ja/PjE4trlbC8iIdWjYAoRig5OCbh91ROsahfy0NfXVaDMrxVYUZEIoBHg7A45Xwq82hn84LQXmewvLCsABCMTC08JtXf/MQHH+t5WHYroohOSxbMFSVAaEY6FUIHqfgmwdhrQ+s67QQls9UlAGhGOhKAB6Fm9aH+KoCTJmu8oAcX7OQPDckgFAMtCEE5+E3P/QAU7fzFJTnKShb+QIQigEhmMG7WAnJC0MCCMWAEIyQHMJJUEkGhGJggxA8KgTgQyGYHjrPQ7KeZEAoBopBOA/A8dXEOIYkn7iXh+SFIQGhGBhOCN5PITgPwqrBsJRP2ptZJxmEYqCfQXiUQvAkqAbDOmIV+STcVJH1IoNQDHQ0CB+kEBzDsA0zYDef85AsIINQDAjCgIAMQjEgCAMCMgjFgCAMCMggFAMNBuFRCsFHgjB0IiDHVSxODAUIxcDuQThfPm2SHc+NCHROvorFsWXeQCgGNg/D4xSEXxoN6I245fRxWLZXLAwHCMXA7UF4lIJwPLRHQL9prwChGFgJw3l7xAujAYMT2ytmYdlesTAcIBTD0ILwKAXhOGnONstAdBqW1eOZoQChGPoehlWFgYfE6vFxCsgLwwFCMfQlCO+Hm6qwXmFgE7H3OLZWzA0FCMXQ1TA8yl6mYbmkmhYJYBcX6XpiYxAQiqEzYTjfYMO6wkDZtFaAUAytDsL5JhvToEUCqMenYFMQEIqhRWH4KFhFAmjOaQrH1jwGoRhqD8OjoF8YaJevfceWdAOhGOoMw7ZfBtocjvO+Y5PyQCiGUsPwOIVhk+eArsgn5R0LxyAUgzAMCMfCMQjFIAwDCMcgFIMwDCAcg1AMwjCAcAxCMdwXhg/STUEYBoRj4RihGAYXhkfB0moAq+H4yDrHCMUwjDAcd6A7FoYB7mQTEIRi6HkYth0zwPrOw7JyPDcUCMXQj0A8CcvqsDAMsLnT7Jhk4XhhKBCKoZtheJy9zLLjqdEA2NmnsKwcm4yHUAwdCcNWlACoxteVKrJgPDUUCMXQ3jBsEh1APeJkvFg1PjEUCMXQrkAcJ9BNg75hgDqdpnB8ZigQiqHZMDwO+oYBmvYhLJdx02+MUAw1h+FRWLZKvDAaAK1g8w+EYqg5EE+D9YYB2kpLBUIxVByGx0GrBEBXaKlAKIaSw7BVJQC6KbZUTKxSgVAMuwfiSbAbHUDX2RUPoRi2DMOjsGyVsAEHQD/EqnFspzg2FAjFsF4gngYT6QD66jwsq8Ym4iEUwx1hOG7PPMuOZ0YDoPfe2y4aoRi+D8TxwvjOSAAMSqwax+Xb5oYCoZihh2HVYQAs34ZQzKAD8TSoDgOwdJEdh3qNEYoZUhhWHQbgLnqNEYoZRCCOFzrVYQDuY4UKhGJ6G4ZHwbrDAGxG1RihmF4F4kmwKx0A27EbHkIxnQ/D+2FZHX5hNADYwVUKxieGAqGYrgXicQrET40GACX5FJbrGlu6jdLtGQIqCMTT7OUvgRiAkr3MjrO0ihGUSqWYMsPwKHuJX21Zag2Aqr3999c/jg0DQjFtC8SHYdkuYTIdAHWJk/AOtVNQBu0TlBGI45P6nwIxADWLy3wu0jwW2IlKMbuE4VHQLgFAO1jTGKGYRgKxdgkA2kY7BVvTPsE2gVi7BABtFNsprE7BVlSK2SQMx804ToKtmgFoP6tTIBRTSSCOT93zoDoMQHfY7IO1aZ9gnUA8yV7+FogB6Ji42cc8TQwHoZidAvEse/loJADoqLhC0pll23iI9gnuCsOxf3geLLcGQH/oM0YoZqNArH8YgL7SZ4xQzFqBeBK0SwDQb+fZMRaMKdJTTDEQHwvEAAxAbA1cWM+YIpVi8v7hWXa8MBoADMhVWLZSzAwFKsUC8Sgs+4cFYgCGJs6d+ZjdC6eGApXiYQdiE+oAYOnTv7/+MTEMQjHDC8Txg38sEAPANybgDZj2iWEG4qOwnFAnEAPAjTgBb24C3jCpFA8vEM/CcttLAOB2cQJerBifGQqhmP6FYStMAMBmwdjKFEIxPQzE82DLZgDY1CvBeBj0FPc/EI8EYgDY2se0uRU9p1Lc70BsyTUAKIcl24RiBGIAIAbjsOwztmRbD2mf6GcgngjEAFC6uHrTPM3VoWdUivsZiD8aCQCojE0+ekilWCAGADaTb/IxMhRCMe0LxFOBGABqDcZndr/rD+0T/QjEs2CXOgBogt3vekKlWCAGALYXJ7XPVYyFYgRiABCMBWOhGIEYABCMhWIEYgBAMBaKEYgBAMFYKEYgBgAEY6EYgRgAEIyFYgRiAEAwFooRiAEAwVgoRiAGAARjoRiBGAAQjIViBGIAQDAWiikpEE8FYgAQjKnXo+vra6PQnkA8yV4+GgkA6L2L7Dj499c/Lg1FO6gUC8QAQP2ehmXFeN9QCMUIxAAwZM8EY6GYm0Ace4qOjQQADDYYnxgGoVggzp4Qw7LpHgAYpudp5SkaZKJdc4F4lL2cCcQAQPLp31//mBiGZqgUNxOIY+/QiUAMABS8zDLCkWFohkpxM4F4HpY9RAAAq179++sfM8NQL5Xi+s0EYgDgHh+ffHk9NgxCcW+lJvoXRgIAeMCJXe/qpX2ivkAce4R+NxIAwJqusmNk17t6qBTXE4gnAjEAsKE4Id/mHkJxbwKxzTkAgG3FeUgzwyAUdz0Qj4LNOQCA3bywuYdQ3OVAbC1iAKAsL1M7JkJx58QnOkuvAQBlsVSbUNwt2Qkbe4gtvQYAlM1SbRWxJFv5gXgSn+SMBABQkfPsGFuqrVwqxeUG4gOBGACoWGzPPDEMQnFbA3GcWDc3EgBADZ6ndk2E4taJgdhKEwBAXd5YkUIobpW0dqCVJgCAuh2beFcOE+12D8TxCU0fMQDQlIvsODDxbjcqxbsFYhPrAICmPQ0m3gnFDQZiE+sAgLYw8U4obowtnAGANokT7w4Ng1Bcm/Qk9txIAAAtM8tyysgwbM5Eu80DcXwC+9NIAAAtZce7LagUbxaI45PXzEgAAC0Wl4nVXywUV0ofMQDQBS9t7CEUVyL1EdugAwDoCht7bEBP8XqBWB8xANBF+ovXpFL8cCAeBX3EAEA36S8WikujjxgA6LKX1i8WineSnUDToI8YAOg+6xcLxVsH4nH28s5IAAA9EL/1nhkGoXjTQLzvxAEAeuZ5+hYcoXhtMRA/NQwAQM+8S9+GIxTfLy10/cJIAAA9NUvfiiMU3xmIR8GyJQBAvz2Vd4TiB5+cguXXAID+s0ybUHy71Hj+3EgAAAOhjUIo/i4Qx33BLb8GAAyJZdqE4u+flAwBADBAL9IiA0Lx0AfArnUAwMAd2+1u4KFY2wQAgDaKwYdiJwAAwFdxt7sjoXiAtE0AAPzHdMhtFIMMxdomAAC+E9soBrupx1ArxTPnPQDAd14MdVOPwYVibRMAAPca5KYegwrFqU/myLkOAHCnQa5GMbRK8Sy90QAA3C22UYyF4h5Ku7U8d44DAKxlUG0UgwjF6Q09dm4DAKztaRhQ2+lQKsUxEGubAADYzLu0lK1Q3HWpH+alcxoAYCuD+LZ9zxsJAMA9nqe5WUJxV1mTGACgFMd9n3TX21BsTWIAgNL0fgvoPleKTa4DACjPyz6vXdzLUJzesBfOXQCAUk2F4m4xuQ4AoHy9nXTXu1CcvVGxj9jkOgCAavRy0l2vQnF6g6bOVQCAyvzQx7zVt0rxNJhcBwBQtTdppS+huG3SG/PGOQoAUIuZUOyNAQAYuud9WqKtF6E4vSHPnZsAALWaCcXeEACAoXvalyXaOh+K0xvx1DkJANCIXizR1ulQnN4AG3UAADQnrvx1JBQ36yhYgg0AoPFM1vVqcWdDcRr4I+cgAEDjYpGy09/ed7lSfBxUiQEA2uJllzf0eNzFHzoN+EvnHtTuPDsuV/5e/OuzO/75+35v1dm/v/5xWdE1I36zdLDmPz5Kxya/d+AhHeCraXZMuviDP7q+vu5iKJ4JxbCxq5WAerYScFf/epGF1IVh2/o6FYPy/j2BevWvrbUO9MUv2f1jLhRXf6OJN5F/nG8QLmJwvSXQ/ufXVVVfqfw6lwfmYpV79dfPjBbQQqfZvWcsFFd/s4hPHioqDCHsFlsP8qB7mV1ozgwR94To8S0BWnsHULfOVYs7FYrTds5/Oc/osKtCwM3D7deLRhe/aqKz4bkYmMeCM1CBzlWLuxaKY2hQJaZLoXeRH/pz6Vhwvu2weyiwiU5VizsTilWJaWHwzQPv1xCs0svAQnM+kTB/VbAAVnWqWtylUDx30aVm54XQK/jCw9fpPCSvBmfXbhiuzlSLOxGKVYmp+kk23FR94wdXqwOUfx0vBuXiq5YM6Pk9tivV4q6E4hhUVBrY1Wrl90z4hVZc48fhpro8FpahdzpRLW59KFYlZtsn03DT93um7QF6EZatkAEdvSd3oVrchVAcw4wqMesE4Lz6ax1f6G9QzvuW88Acf20TE2i/1leLWx2KVYkRgIE17xcHKSDnh2IKtOz+3fZqcdtD8Un28sJ5NFhxZ7d5IQDPDQkgKENntbpa3NpQnGYq/+P8GdZTZArA8QMzzz44l4YEEJShP/f5NleL2xyKZ9nLS+dP70NwHoDnhgNo6H4zLoTk+GsrX0B1fm5r62MrQ7EqcS9d5QE4hWC9wEBbQ/J+uFntIr6qJkN5PmUZYCIUr39BmgVV4j7IK8EnQjDQ8aCcB+Q8LKsmw/Z+auM+Aa0LxekJPQ6UtSi757wQgueGA+hxSB4VQvJYSIaNtLJa3MZQPM1e3jlfOiG2RJwUgrCJccCQQ3KxmmztZLg/P4zalhvaGIrjAKkSt9d5CsJaIgDuvpftFwLyYVBJhlXvsxwxFYrvvohMspePzpPWPc3NC0FYNRhg8/vbKGi3gP/kiyxT7AvFd180Fi4UrfEpheATQwFQSUg+LIRk35AyRK+ynDETir+/QMSLgi2dG35qy47jeKgIA9R+DxynoKwfmaG4yPLGSCj+/oIwD9aCbDQMt623B2CgAXk/3FSR46sqMn3Wmq2fWxGKbdbRqNgmcaQyDNDakHyQwrEqMn30Ocsgh0LxzQd+FmzWUbdYHT60njBApwLyfiEgj4MqMv3Qis08Gg/FNutoxGkKxKrDAN0OycU2CxPV6aoPWSY5Eoq/vI6D8LvzoTat3XMcgJ3up9os6KpWbObRhlC88HQ7rCcxACq/t45SOJ4IyHRE48uzNRqK09c+fzoPavHe6hIAgwzIxT7kF0aElmp8ebamQ/GJD2gttEwAICDTdo0uz9ZYKLYMW21as9QJAAIy3KPRIl6ToXiavbzz/lfqIjsOrDIBwJoBOQYSG2nRpB+byi1NhuJFMMGuaj9nJ9aZYQBgg/vzKJikR3PeZtnleDCh2AS7WphYB0AZAfkoWAeZ+jQ24a6pUGyCXcUnVNA2AUC59+5xWFaPY0C24RZVamTCXe2h2AS7WjS+1h8AvQ7IeThW4KIKjUy4ayIUT4MJdlVqfJ0/AAYTjkcpHMcWC+0VlKn2CXd7DfwhJ97nSk0NAQB1yELLIk6KSsWYX7LjU1hu2Qu7qn052Vorxakf6S/vc2VUiQFoVGF5t1g9tnoF2zrPMs1Bnf/DuivFE+9xpWaGAIAmxa+847yWFGh+DqrHbOdZ9oDVz1BceHJEKAZgGAH5LE2YGmXHq+w4NypsYNLLUBws4VK1+DXDwjAA0MJwfFv1GNbJjr0MxRPvbaVODAEAHQjIefX4x+x4G5Zr68NtnqYN3/oTitOSLfZSr9bcEADQoXB8WVi54rfsODUq3KJfoTjoJa7j4iIUA9DVe9hJdoyzX/4UTMxjJUOmeWm9CcUT72mlTFwAoA/heFGYmPc+aK1gOR+tluJq5aE4LadhncJqLQwBAD0Kx7G1YppaK6xaQT9CcVAlrsOZIQCgpwE5X7Ui7pin73iYXtTRQlFHKNZPDADsGo7nK33HDEvlebLSUJxaJ556HyunUgzAUMJx3nccw/GHYFLeUEw6HYqD1om6XBoCAAYYjo/CzaQ84bjfnqclfjsbirVOAABVhuOvk/KE40GoNFdWFoq1TgAADYXjuGKF5dz6Z9LJUBy0TtRpbAgA4Fs4nhWWcxOO++NZlS0UVYZirRMAQJMBWTjun3GnQrHWidqNDAEAPBiO3wY9x11XWdG1qkrxxHsmFANAy8LxcTAhr+sq28ijqlA89p7V6rkhAIC1grHVKrqvkmpx6aE4NUA/837VK7WsAACbh+MPRkQo3uvKD8qDxoYAALYKx3ETENtHd8cLoRjjDgDVhON8++ifs+PUiLTbky+vS889eyX/gLHxWX9rM55X1XgOAAMKx2fZMc5++UuwjFubtTsUB9XKpk0MAQCUEo7nhTWOTcZrn3HZ/8FH19fXpf3Hnnx5PcteXnqfGnORPsBQmTSpc/VbiVG4e2nAdS5c8b9X9QTdeFM7W+OfW6TjNvHfv1z95+PXrs4M6PV1L16jYt/xO6PRKj/Hyn5bQ3G8WfzgPWrUL/Hp1jDwwMX94I7Quvp7dYTVPjp9IEzPhWro5PUzPvzHtY5fGI1WeJ9WEGlXKM5OlHhj/cv70/zNOPVCMawLdV69LYbaUbip3sZXu0y2X7GafXnHr4VoaP6aO07hWNGgWefZ9bC0JWnLDMXx5Hjj/WkF1eL+XHiLITd/2CkGYBfkgT8E50E53LR8zIVnqO0aHVsqpsG35E36MS6r17ZQfOYG3c8nJyq9oOYBN38dFQ6VXcqQV5+L1eavwdnDM5RyHY/X7lnQUtGUV9m1bNaaUJxOiP95X1rlbdrjneYvmONC8BV6aaPTYlgWmmGra/0kLFsqVI3r9SmtL92aUBx/mI/el1aJ1aEDX5/WdjHMK73jQug9cHGkJ9eSWGFepONr1VlghjvvBSdB0aNOpa28VVYongVLsbWRNopqLnh54M1/rW0IgXl5xKCsl5mh3yf202fBvaE+pSzNVlYoXngqaq3SvlYY2EVtlALvWPiF7R7Kw01l+SyF5TPDgmBMBUppGd05FKfK2d/ej1YrrQm9pxevvOpbPLQ9QD1h+UxlGcGYHX3OriM776pcRiiOy5H87v0QjDsagJ87NaAVTsNNK8aZnmV6FIzjee3b9Ipl14xHbQjFsaHcMiSCcRsvRqNw0/4gAEP3FKvK8xSWLw0LHbsXHaTz1zeQ1dp5j4YyQrGtnbult0u1paXP8hA8dl5CL12Em9YLQZmu3J98q169nbd83ikU6yfurM5PvktfSRVDsCowDDsoz8NNj/LckNDC+5Zv1qt1mn32x02GYk8+3RW/lpx0ZTb4SgiOh4kLwL03yFCoKJvMRwvuY6N0PvoWsyK79hXvGoo99XTfzl83CMFAB+RtF/Ogmkxz97Z4v31nJCqzU1/xrqFYP3F/bhaTpm8SqR3nMIVg7RBA1U5TSJ4LydR4r1sEq1FUZadC39ahWD9xb28Qx9kJdVLThWGUAnAehD1gAU06z0NyCsom8FHFvW+SvXw0EtXkmF36incJxfqJ+ytWjmfxKLsPLz1MTYKWCKBDIbmuYgGDCca+aa/ILn3Fu4Ri/cTDuinE93vjpY8K1eB4HLoIAB2m3YKyQnFcGvWNkajEz9suIrBLKF4EPTFDFKvI8b2PJ9xdAXmUDtslA311Ff7banFmSNggQ8V75D9GohJb78ewVSj2ZgLAdwWDGJBPgn5k1stS8UFKG2H5Pmefv8Nt/sXHW/4PD4w5AHwTvzl9mY4YeE4LAVkVmducCMWV2Dqj7m35742NOQDcKS4rGSej/x3bDbNjlh2HhoWVUEwFD6ipo2Fj27ZPzIN1ZAFgG5/DTRV5YTiGK8tT10ahEr9ts2LMtu0TAjEAbOdFOmIoiiv8zGJIFpAH6VSmqsQ4bFGJ3zgUZx/gsbEGgFLEntLYZvF7dn+9SDfymT7kwTgTiiuxVV/x47r+RwDAveJkvbh27RsBeTCsUlKNrR40tploJxQDQD0BOZ+od5x2BKVf5oagGtt8XlSKAaAbAVkFGTbLqxt9RrYJxdbUA4D2BORjk/Tg1lC8kY1CsUl2ANDKgGwVC9gxFO9V/T8AACqXr2LxTxaQT7JjYkgYuI0n2wnFANAvcQ3kj1kwvkw76Y0NCUO06WS7TXuKhWIA6IYfsuNlPFL/8XHQXsGwbDTZbtNKsUl2ANA9sf+42F5xaEhaE9qozmiTf3jtSrH1EQGgF75uM52qx7OwXN5tYVgasW8IKjXe5B/epFIsFANAf8Tq8bugetyZ0MbGNsqum4TikbEFgF6K1eM/0+550+xQwWxhaGNjP2xyLm8Sij3NAEC/5dXj/1m5olqpLfUHI9GeBw+VYgDgNnHlir+y8HZm3eNKeOBoWSjeZEm2p8YVAAYnrjwV1z2OS7p9Pf799Y9LwyIUd8Ro3X9wrUqxr08AYPDiV/3F1oqRIdlOGrsXRqIWpbdPOPEBgFxsrYirVswVzrZipQ+hGADokedB3/E2jgxBbdZegWLdUOwpEAC4S953vBCO75fGxzyteq1VLV53op31CgGAhzxN4XgalrvlmZT3vakhqN1onX9o3UrxM+MJAGwQjuOkPJuBFKgStzsUP7q+vn7oDYz/oX+MJwCwpasw8OXc0oPBItiwowmn2Xk3fugfWqdSPDKWAMAO8uXchlw5ngrEjSltop19uQEA4XhL2Z8zLsH2xtvfmLXagNcJxfqAAICqwnGvlydLbagzb3nj78ODeXadUDw2lABAReH4974u5ZaC2EnQNtEGD3Y+qBQDAE3Ll3JbpFaDvpgFK3i1xaiMUOzNBADqCsd/9mH76Oznj4H4hbe0O6H48QNvqCoxUHR6y987y467lli67/eqFr8q29/g90bB+qHQFvn20Z+y1+m/v/6x6FAYjteWuPzcS29jj0JxsPIE9NF5IagWQ+tl+uvcoks3olvMS7i5jVf+1njlAptfZONN0LdqUL4YLF9mn8X3oQNrHKdAPHc96GYovnfzjnRD+Ms4QmeCbjHYLtLxNfzaarXWm+LBLcE5r04L0LCduAHIUXYtm7X0sx8/43FSnW+c2ukiO3dGu4TiaVgumQI0+EEuBNxFMfhmH/C54el0gM6Dch6ei4H6uRGCO4sAR226/slL3ZCdM4+EYmi3qxRyF6tHx9sXKOdmO06/XH0Vmhm6xvuN0+dzFlSHu+LH+741fSgUz114oZLg+7WXV6WXHW/IeWV5lI688uy6zZCurXFSW639xikMT33WOueX++67QjGUK291iJ+dvM1BPy9NBuY8KI+DFTbodziO/byVVo7TGspHstEwQ/HCBRTuvACfFY6Fqi8dCszjcNO/nB+u9fRF7DmexZBcRkBOn5fDdPicdNv77JyYbhuKr40ffL3ALlL4jcFX5Zc+h+VROsYpLNueli67yK/b4aaAsVjzgTH+WkVYKBaKGXQA/lYBVv1FUH5dDAiqykCXfcru65O7fvPxA09L0PcKQrH6KwDDivStyDysbIaS7hHF9gtrLwNtN7rvNx8bHwbkNNx8jTbXAgE7heX/BGUVZaDrHm+bpqHlLlYC8JkhgUpD8ncV5SwojwoBOYZl/ZlAk54LxQwpBM9TCF4YEmg8KMfPYTxOCkE5D8jjoJoMtIj2Cboegk+CVgjoUlDOJ7Iep5A8KgTk+Ko3GWjEnatPZBeqWfby0hDRshA8DyrB0FupN3lcOIRkoEx3buChfYK2uiqE4BMhGIYhfetzkg4hGaiN9gna5LwQgueGA7gnJB+mVz3JQOWheN/wULG8Gpz3BS8MCbBhSB6thGQ78AH3OQgr666vE4p9RUUVLvIbmmowUEJIjg/Ts3Tkq1scpsN9DFh1Z9FX+wR1uMpvWtYLBioOyfnqFtPUapFXkOOrKjIQhGKaEKvC0+wmNTMUQAMB+TJ8X0WeBBP2YMjurBTfuiRb6tH6x7ixpasUho8NBdBG6T6XV5FfGBEYjNMsn4xv+427KsUjY8aWPmfHxGYaQJulXuT44H68sqKFNgsYKO0TlOmt6jDQwYC8uqJFHo5jULbkGwjFsLbYLnFoNQmgJyG5GJDzPuRDARmEYngoEI+tKgH0NCDHa9tRPARk6IWDTUPx2JghEAMIyNAzP2waimEdhwIxICC/HhcCskl60FFCMdt6q4cY4GtAjtfCr9fDwiQ9ARk6Zs8QsIVTq0wA3BqQ4xb2k7Bc2vRVWC5TCXSASjGbin3EE8MAcG84/rabXmGjkNhuof8YWkqlmE0dp0XvAVgvIC/it2vZEcPxz9nxKSwLDEAD0kTZ79jRjk1chOUOUABsF5DjBL1JujFP0q+fGxmo1f5tf3NPKGYDx7ZvBigtIM+yY5z98qfseB+WhQegIXqKWVf8qm9mGABKD8eL7GUaj7R6xSQ7XhgZqJeeYtZ1okoMUHlAjtfaGIxVj6FmKsWsHYoNAUBt4XgR/ls9jitX6D2GCqkUs46rWL0wDACNBOSTQu/xh2DlChCKaczcEAA0Ho7j0m6xYjwKy41BtFZAibRPIBQDdCscFzcGGYdla4WJebAjlWLWcWYIAFoZkOeFiXlaK0AopmILQwDQ6nBcbK14G7RWwMa0T7DWxdYoAHTieh1bK+LOo8dpx7wYlJ8ZGXiYSjEA9DMgxx3zDrJf/pIdp0YEhGIAGHI4nqcl3X7Ojk9GBIRiABhyOD7LjklYTsoTjkEoBoBBh+NFIRxbsQKEYgAYfDjOV6x4LxwjFMMDnnx5PTIKAL0Nx5fZMRWOEYrhYUIxgHAMQjGDNzYEAMIxCMUIxQAIxyAUM3DPDQHA4MNx3AjEUm70lm2eWcuTL68Ps4viiZHggfNk/MA/Mq7ofz1/4PfP0va3wPbheJG9TLLPeQzI8XhpVBhCKI43GNVBiibZIRT3N8zuh2UV6K7wuvrXo+x42qI/wrs1/oyrfyt+FXy2Gp6z4/KOv47VsjNnC8Lxt3B8nL0eywv0xaPr6+vbbh7TdW4yDM5P6WJIN4LuKNysHJKH2mL4bVuw7ZrTlUJCSAE6D86q0wzlWhOvL1PhmA758bbrs1DMJj6khd5pT+DNj2LYdWNql2JFOg/PeQV64UGTHl2XJikce9im1bLr7qPb/r5QzKY39wM38dpuMONC2C0GYDec/gbnvNK8yA+fNzp47YoZIhZQfjAadCkUm2jHJn5IVYCJoSjt5pEH3mLwPXAzGeRnK6/wv1g5R+LLeQrM82JwFphpaeCYpn7jeL94Y0ToCpVitvFLdtGbG4aNwu+4EHrzX6v4UoYYmBehUGH2+aRF1754rZsFbV2068Fto/aJSfby0bBxh4uwbKMwiej2G8BB4Yh//czI0NDnNIbkubBMSwoDM8UA2hyK72qfWBgy7hEvavGrscnAL/IHKwFY2wNt+5zG43nhnI0vxcryPGjDoJ4QEs+1kX5jWuD8rt+4q1Icn+j+Mm484H3a5WgIAXiUQu84vfoqkD65KoTk+HomKFPh9TROII6FFZt/0ITT7Po2Foqpwqvs5Jr18KI9LgTg+KqqgaAsKFP+dTaGYy1mCMUIxi25MI9WArALNNwdlOfFsGxuASVcg2M7xTQoPtDGUJxO0mvjxgY6s7FHIQTnh4kfsL3zQkieqyazw3U5Vo1fGA0q9jm7Th0KxVR+omXHpG2VIyEYapVXk/OQfGZI2OB6PUnhWNWYqtw5H0oopoobYgzGJw1eVPcLAfhQCIbGnRZC8txw8MA1PLayzYJWNloUii89qbHjTXBS11ep6SJ6mA4XUuhGSD5RSeaOa/p+Okdcz2lFKI4no2Wn2NWn+MRfdnUoXTBjAB6nVw9w0E3aLRCMqdNvd32bLRRTlzgZZxaWlaHFlhfIfHWIiYsk9NZFISSfWN1CMBaMKdkvdxXqhGKauumdhZsZ69G3pZ3SxLhR+vsxBOe7xekNhmE+UJ8ErRZDDsYH6V7hG0EaC8XT7OWdsQOgJa5SQJ4HVeShBePYJvenkaAEP931jbVQDEBXnYabKvLCcPQ+GMf32jrG7CS7Vjy66/ceGx4AOup5On7PAtNFCsgzbRa9NcmO+PCjjYJK7N3ze3PDA0BHxDkHb7Lj7ywgL7Jjlr5ypydSu8zUSLCDi21DMQB0NSC/zI4/45r7AnKvgvHxQ8EG7rG47zcfb/svAkAH/JAC8sssGOcT9U6a3HWTncVg/LthoGx3TrSLbPUMQE8JyB2V1i7+n5FgC3fuZhdpnwBgiPIKcrHF4sCwtF/qLf5kJCjbQ6H41BABMJCAnE/SO06bCNFeqvtsY3Hfb1qSDQBu5KtYvMmCcb49/cxGIa0zNwSUHYr3dvmXAaDHnoXlhK7/xY0jrGDRHukh5dxIsKF7H24fqhQLxQCw3EntRVrBYpYdx3bRa9w8PbjAug9TZ0IxAJQj9h/n7RWnKSCfaK9ohIxCqbRPAMB24hbTH+O90uoVjbCdN5t4cPGIh0KxJ18AuF9x9Yp5dkwMCXTPvaH4od4LAOA/vlaP09rHlnarlsIdm5jvFIqTK+MIABvJe4//SStXjA1JuRTuKNs66xSfpSdfAGBz+coVF9nrNJiYVwoPGmxo/tA/sE6leGEcAWBncWOQfGKe1gqo14MPokIxANSr2Fph1QqowTrtNuuEYj07AFCN4qoVY8OxEePFutaaH7dOKNb3BADVinN3/sqC8cKSbmsbGQLWtFaB98FQ/O+vf8yNJQDU4mvfcR6Os2PfkNxJ2wnrWpQSihPLsgFAzeE4LCflTYXj/0qTFJ8ZCZoIxfqKAaB+cVLeO+H4O2NDwAbmZYbihfEEAOG4JQ6dEmxgrflxQjEACMedkVonXjgVWNe6ux+uG4rnhhQAhOMWOPL2s4Hzdf9BlWIAEI47If35Jt52NrB2hl0rFP/76x9CMQC0Pxyf9Xyd42n6s8K61l4sYm+D/+ipcQWAVvvPOsd9+oOl7bDfeItpQyheGFcA6FQ47tP20TNvK1tYO78KxQDQX/n20fO0akMnxX7pYLMOtrDuyhObhuK5oQWAzobjf7Jwedy1yXjZzxvXJH7nLWQL55v8w5uEYrvaAUC3xZ7c2G/ciWXNUh/xzNvGljbKrmuH4n9//SPuBnJlfAGg0+LqDb+nyXjjlgfiebDaBNtbVBKKt0ncAEBrxcl4rew3FogpybzKUDw3vgDQK3m/cSs2/0hLyf0tEFOCatontvmPAwCdkW/+cdhQGN7PjpPslx+9FZTgIrX+CsUAwMZiS8WfMZzW2VKRgvgiO154CyjJxpl1o1Cctns22Q4A+i2G03wJt8rCcZzoF3uaYxAP2iVoOBQ/3vJ/8txYw6Bd3XLBiX+9+lXV5QMXpstNFlbf4oYbb+b33dDjZJ7VHsrVfyf+vk0DGKq4hNub7LP0KXudZZ/XeQmfy/iZipXhI58tKrTxufro+vp605N5GiyiDX0Mt6sBdl5XeO2SdEM/KPyt8R2/Vjygjy6y4yRdH+br9mym1STG6dAiQR1+3LSneJtQHJ/u/jTW0Gqn6XURbtZpnAu4jYToUbipPOehOf97qtD06cG6+CDtHKfRh7fsPjfa9F/atn0CaD7w5u0KefAVdlsozcVY3BIaisE5rz7f9ipQ0GaxDzj/VsS3I7TFVvfCjSvF6QIeL/BPjTlUGnrnxdcyevnopkK1OQ/KY4EZ4E5vs3vm8ab/0uMt/2dnQjHsHHzzHt5FOs427X9iGArV5vk9gXkcbr6yVrEDhqzWSnGcMfq7MYd7nedhV/ClbreE5VhlVlkGhlBIeLTNv7dLpRhYOi2E3nnQ20s7bgrFc7IYlg9SQM4PVWWgb/fkrWxVKU4X1mvjzsCch5uqbwwaixQ8oNMEZaBHPmT35qNt/sXHO/xPT1046amLQvA9S+FX5ZfeSuf32R1BeRy0XgDdMd/2X9wlFNvZjj5Yrf7q+YX/BuVZCsn7hZA8dv0H+haKd2mfsIkHXQ3AZyn8zg0JbG9ll7J4/GBUgAZttWlHbpdKsUCBAAwDVqgmHwvJQAvsdK/fulKcLoDxYqjPjMafDAsBeC4AQzushOQXRgSo2KssA8y2/Zcf7/g/nwvFNOA03EyCO7MCBLTTLZXkGI4PU0h27wDKNt/lX961UqyvmKpdFALw3CoQ0A9p4l4ekOOrVgtgp7ywSz9xVEalGMoW+4Fn2XGiCgz9lFZ5mYWb1S1iq8UkqCIDDWXSnSrF6UKmr5iyfMqOqSAMw5a2qM6ryHqRgXXs1E8cPS7hh5gLxewo9ghPhGEgSteC2Id8XGizyEOyNgvgrjy6kzIqxfqK2cXb7AZ4bBiADe45+SEgA9F5liUOdv2PlFUphk1dZcfYxDlgE9k14yR7ORGQgbKz6M6V4nRhij+MLT8RiIFGCMgwaL+lB+adPC7phxGKEYiBxqxUkCcpHJukB8MwL+M/UlalOPZx/O09YQ0/C8RAHQqT9I6CCeHQV6dZrhi3JhSni09cc9JXVtzHpDqgqYA8Cst1kOPx1IhAb7zPssW0baF4lr289N5Q9ZMcwI73q3EKx+5Z0H2lfQO9V+IPNfe+cI8jQwC0QXYDjVvGx1D8Y3a8CstdNIHuuSqzJbPMUHziveEOn/QRAy0Mx5dxB6y0vunPYbmr5pWRgc4oNXuWForTPvaetrnN1BAALQ/IZ6l6PAqqx9AV8zL/Y49L/uFiYjfDl6Jz2zcDHQrHscAzi0daWSm2fuk9hnZqZ6W4ih+OXpgZAqCjAfms0Hv8NjsujAq0xml6iG1nKE59oy4aeFAC+hSOY+/xcXaMsr/8Ld6MjQr0L1/sVfBDzr1PJBdaJ4CeBeSTtLzkT2E5MQ8Qiuv7IeksgRjoazheFFor3gerVkCdKim6lR6K0/7zLg5Ec0MA9DwcX6bdtEZhuWqFFkKoXiUF2L2KflhhCIChheNZ6juO4VjfMVRn1qVQrIUCgKEG5FnqO/5FOIbSXVS1IZhQDADVhON5IRx/NiLQ7oy5V9GF4NIFAAC+hePDYMUKGF4orvqHBoAOhuN8xQrhGLZzFR8yhWK6aGwIAIRj6EK23KvwQ6+FgpEhABCOYdChuI4fntZ7+uTLa8EYYP1wbLUKuN1V2gujMo9rCMUfvY+DFieXHBuGYcgegvazl4Nbfiv+vf17/tVRKPebhbhcz+WGv7+wLTlNh+PsZZx9jsbZ6zQ7nhsV+GZW9f/g0fX1ddU3yRiMX3gvB+s8u9AfGIZOBdtiQF0Nuavhts837asUnr+F5nCzdfll4fcuq1ozk8F/FsepqPDMaED4ueprbR2heBJUi53IQkObgu74lsAbf++pkdrZRSE4z9NrXpVWiWaX++jUZ5QhX1vTbpGVqiMU76ebxA/e08H6lPrlqDbwFkNuHnwPfPZa56oQlP/z6uGRBz7rRykc+0wzNB+y6+NR50Nx+iDPspeX3tNBUy3e7cHyINz03RYPlaP+yavNeWCeB1Vm/ns9iOHgndFAhuhmKI6Trf70ng7aadrulNs/I3nIzXt2x+lVLyFF54XAfJbCsofN4V4zYr+xOTv0/rpX19ykWkJx+gDHC7mq1rC9zU7sQa9EkSbOFAPwSPClpLB8lgLzPP46rRXPMK4pJuMhO3QsFMc/0Bvv7eD1vo2i0O5wsBJ+PRRSp4tiSE5BeWFYenvdmaRwrN+YvvmprmtXnaE4BoO/vbeDFycZjfsSjFcqv2Phlw4E5bz1Yh5UlPv4QK7fmD75nF2jDuv6n9UWitMHNl6IfcVD54Jxofo7Dtoe6JfzlZCsR7n74Then2bB5h9036vsmjTrayiOT7C/e49pczBON5SDlRDsK0mG9Nmc54eQ3OlwnO8o6tsrOnktyq4/+3X+D+sOxfEP9z/vMwWNTr4TgEFI7nkw1lJBV9W+x0GtoTh9QG37zKrTeNGu+mabbg5jARiE5AGG43i9mwVtX3RH7RPzmwjF1izmzqfC7JiWNcs0TYIrBmBfIUL5Lgoh+cTEvVYH41gYiN/M2UyL1l9X6tjWufFQnD6YCwGFe8SJP7N0g12seU6NVgKwCSbQ3Of3JH1+VZHbGY4tkUrbNdJa2VQongb9Taz5tBhu1lq9TQzBIw9Z0NrP7zwF5BPDIRjDmn5s4lunpkJxDDH/eM8BBuVzuKkia7NoPhjPglYK2qf2CXaNhuL0YTThDmC4Nm6TovT7cOwxngeT72iXX7JrwnxoodiEOwAE5GaDsd1maZNGJtg1HorThzFe/PSCAiAgN3cvngbzfGiHRvcu2Gv4Dz/z/gNQEL/Kjzuf/hPb7LJjkr7mpzoxhFwZBlqg0VwoFAPQVnHeycfs+F+cFJba7ihZmvR4bCRo2KemJ+A22j4Rmf0KwAZiRTPeN2bWQS71XjwKVoWiWT83/ZluQygeZy9/ORcA2NB5ISBb4m33+3EMJFaioAmn2Wd43PQP0XT7REjLbpw7HwDYUN5/nLdXjA3JTmaGgCGfe41XitPT6SQs+8YAYBdxF73YH6t6vPm92PJsNPKZbXIZttaF4vRhjBevH5wbAJTkUwrHc0Ox9r342ihQs/fZZ3Tahh9kr0WDYuYrAGWKk7j/ir2y6RtJHqadkcHmP6EYgL6Lvccf4zeScaOKtNICt9NyQp0+tanNqTWhOA3KJ+cHABWJLXpx57Z/0sS8A0MCjZq26YfZMzgADFBsrfg7C8Zzm4JAI07btpV7q0JxGpxT5wkANXmeHX9mwXih7xhqNW3bD7RnkAAgPA3LvuNF6jveNyRQmfM2rgrTulBsMw8AGg7Hse94qOF45BSgBq1cXKE16xQX2cwDgJa4Sjfw475vBpIeAP7nLadirdmsY1Ub2yditXgWlrsSAUCT8hUrhlA5Hnu7qcG0rT/YnkEDAOFYKKYGV6nwKRRvQrUYAOG4Vpamo2qt3qhtr+WDN3P+ACAcVyut1fzU20qFroTi3Z8orpxHAHQgHB91+M9x5K2k6kzX9smqrQ7FafCOnUcAdCAc/97FTUCyn3cclpuYQFVaXyVufSjOnyyCajEA3ZBvAnKWwmYXKD5R+TnWhSUNWx+KVYsB6KBn2fFXFozn2TFq6w8Z+6HTzwpV6USVuBOhuPAUq1oMQNfEtoR/svA5a9tkvFTJfuctouoM15WNbzoRilWLAei4lyGtVNGSQHyQvZx4W6hYZ6rEnQnF+ZNGUC0GoLu+rlSRJuONGwzEsWI9Sz8PVJrdurQ9emdCsWoxAD0RJ+M10m+cKsSLoI+Y6nWqStypUJw/cQTVYgD6Ie83rmXzj7RBxzyoEFNTZutSlTh6dH193akRTouj/+5cA6BHLrJjkoWIeQX3zbxd4oVhpiaxgDkSiusJxotgO0oA+uc0O6ZlhOMUho/SoTpMnd5n5/C0az/0444Odhzoj845AHomtlTEfuMYjmfZcbJptS31DccgfCgM04D4rUcn54B1slKcPvSLoFoMQP/FgDzPjrPsiAH5MgvKZ6kSfJD+mXF2jNKreyNNepWdnzOhuN5QHJ+A/3TuAQC0wkUWiEdd/eH3uvqDZ4N+kp6eAQBo3lGXf/i9jg/+1PkHANC401SwFIqbkGbnfnYeAgA0atr1P8BeD96EI+chAEBjPlexxrZQvKHsTVhkLx+cjwAAjehFgXKvJ2/GNNj+GQCgbh9SgVIoboO0sPnUeQkAUJurPuWvvlSKYzCOu6dcOD8BAGox3XTHRaG4PhPnJwBA5S5SQbI3ehWK08xHG3oAAFRr0rc/0J43CQCADfRiCbbeh+I0A/K98xUAoHRxcl0v94jY6+kbdhws0QYAUHrG6ssSbIMIxWkmpJ3uAADKE1f5Ou7rH66vleIYjGfBpDsAgLIc9WkJtsGE4vzNc/4CAOwsTq476fMfsNehOHvzzoJJdwAAu+jt5LrBhOLETncAADtkqb5Orit6dH193ft38smX14fZy5/OaQCAjZxngfhgCH/QIVSKQ+qB+ey8BgDYyGDmZ+0N7E21djEAwHo+9HHnusGH4tQLM3V+AwA86GpouWlIleIYjOOkO2sXAwDcb9LnNYkHH4oTaxcDANyt92sSC8XB2sUAAPeIbROTIf7BB7Ek222efHkdw/Ez5z4AwDev/v31j9kQ/+B7A37TJ857AIBvTocaiAcdirVRAAB8M9i2idxg2ydy2igAAMLbtErXYO05B7RRAACDdjr0QCwUB20UAMCgxbaJQ8OgfeIbbRQAwAD9NsQ1iW+jfeLGJD0tAQAMwWeBWCj+TmqjmBoJAGAABr/axCrtEyuefHk9z16eGwkAoMd++ffXP+aG4YZK8fcOgzYKAKC/PgjEQvGDspPkMvg6AQDop/OgXVQo3iAYx6bzD0YCAOiRr33EqQCIULy2aXqaAgDoRbZJCwtwCxPt7vHky+uD7OVvIwEAdFxcfs0mHfdQKb5Hepp6ayQAgA6z/JpQXEowjnuBfzYSAEBHHeojForLEp+uLgwDANAx7y2/th49xWvSXwwAdMxpFojHhmE9KsVr0l8MAHRI7CM2sU4oriwY6y8GALpAH7FQXLlJ0F8MALTXW33Em9NTvIXUXxxPth+MBgDQItYj3pJK8RZSf/GRkQAAWiR+kz0xDEJx3cF4lr18MhIAQAt8nVinj3h72id29OTL61g1fmYkAIAGvUoFO7akUry7cXo6AwBowgeBeHcqxSWwsQcA0BAbdJREpbgEaeLdKyMBANQoTqyz0oRQ3LpgPAsm3gEA9TCxrmTaJ0pm4h0AUAMT60qmUly+cbDjHQBQnfcCcflUiitgxzsAoCKfskA8MQzlUymuQJp454QFAMp0HuyoKxR3MBifZC9vjQQAUII4sW5sYp1Q3NVgfBysSAEACMStp6e4Bk++vJ5nL8+NBACwhd/SN9BUSKW4HnFh7XPDAABs6JVAXA+V4po8+fJ6lL3ECXhWpAAA1mGliRqpFNckO6kXYbmG8ZXRAAAEYqF4yMHYUm0AwEMsvSYUDyIYx76gV0YCALgjEFtpQigeTDCeBWsYAwD/FVssDwVioXhowdgaxgBAMRCP0xwkGmD1iYY9+fJ6lr28NBIAMGg/p7lHNESluGFpZumpkQCAwXolEAvFLNncAwCGG4hnhkEoJnytFseG+rFgDAACMUKxYCwYA8BQfBCI28VEu5Z58uX1QfYyD7aDBoC+sltdC6kUt0xqtB8H20EDgECMUCwYC8YAIBAjFAvGgjEACMQIxQjGACAQIxQjGAOAQIxQjGAMAAIxQjGCMQAIxAjFCMYAIBAjFCMYA4BAjFCMYAwAAjFCMYIxAAjECMUIxgAgECMUIxgDgECMUMxawXiUHedGAwBq80Eg7o9H19fXRqEnnnx5vZ+9zLPjmdEAgEq9ygLxzDD0h0pxj2QfzsuwbKVQMQYAgRihWDDOjk9GAwBKdSUQ95f2iR578uV1/NC+NBIAUEogHqd5PPSQSnGPpeb/D0YCAARihOKhB+Oj7OWVkQCArcR5OgcCcf9pnxiIJ19eT7KXj0YCADYKxOM0X4eeUykeiDQp4Odgkw8AWMcngXhYVIoH5smX1wfZy0l2PDUaAHB7ILYph1DMMIKxTT4A4HaWXBso7RMDZC1jAPhObC/8TSAeLpXigXvy5fVx9vLGSAAw8EBsyTWhWCgWjK1MAcBgWWGCr7RPYGUKAIbKChN8o1LMN0++vB6F5coUJuAB0HfvszA8NQzkVIr5Jrs4LMJyAt5nowFAT8VvRV8JxKxSKeZWT768jheLd0YCgB65yI5DE+oQitk0GB9mL7Ps+MFoANBxpykQ6x9GKGarYHyQgrE+YwC66kMWho8MA/fRU8y90ldM46DPGIDuyfuHBWIepFLM2vQZA9Ah+ocRiqk0GI/Dctk2fcYAtFX8dnOifxihmKqD8ShYzxiAdnqbheFjw4BQTJ3hOF503hgJAFog9g/Hdom5oUAopolgbNk2AJpmuTWEYloRjEdBOwUAzbBdM0IxrQvH2ikAqEtcXWKiXQKhmLYGY+0UAFTN6hIIxXQiGO+HZTvFc6MBQIniZLqp1SUQiulaOI47CP1uJAAowXlYVodtxoFQTCeD8UFYtlOYhAfAtj7Yqpmq7RkCqpSe6MfxgmY0ANhQbJf4RSCmDirF1MYW0QBswGQ6hGJ6HYzjJLxZdrwwGgDc4iqF4RNDgVDMEMKxpdsAWKU6jFDMIIOxqjEAkaXWEIpB1Rhg0E7Dsjq8MBQIxQjGqsYAQ6N3GKEY7gnHqsYA/ad3GKEY1gjGsWo8zY43RgOgV1SHEYphi3A8Dsuq8VOjAdB5cROnqeowQjFsH46n2cs7IwHQSefZcZSF4bmhQCiG3YPxKCyrxs+NBkAnxFaJ4ywMTw0FQjGUH44n8SIbTMQDaLM4ke7IMmsIxVBtMDYRD6CdLsJyIt3cUCAUQ33h+CAsq8ZaKgCapVUCoRhaEI4nYVk5tkoFQP20SiAUQ4uCcWypOApWqQCoi1UlEIqhxeF4FJYtFbaLBqjGVQrDM0OBUAztD8fjsGyp0G8MUJ73Ydk7bAMOhGLoWDieBP3GALv6FJa70S0MBUIxdDscx2Ace46tbwywvtMUhueGAqEY+hOMrW8MsJ643nDsGz4xFAjF0N9wPErh+KXRAPguDE9NokMohuGFYytVANh8A4RisFIFMPQwHKwoAUIxCMeAMAwIxSAcA8IwCMVCMQjHgDAMQrFQDMIxIAyDUCwUwwbheBIs5QYIwyAUg3BsnWOgtawzDEIxNBKO49bRk2D7aKBZ52FZFRaGQSiGxsLxfiEcPzUiQI1Ow7IyPDcUIBRDmwLyJAXkZ0YDqNCnFIYXhgKEYmhzOB4Hk/KAcsV+4VkweQ6EYuhgOB6lcByrx/qOgW3EFomZfmEQiqEvATkPx1orgIfEJdVOwrIqfGY4QCiGPobjgxSOD4PqMfBfsUUiri880yIBQjEMJRzHVSsm6VA9hmH7lILw3FCAUAxDDsiqxzA8cW3hWVAVBqEY+C4c76dgPMmO50YEekevMAjFwIYBeRRuqsc2BYFu+xzDsBUkQCgGdgvI47CsHmuvgO7I2yNObLIBQjFQfkDOw/ELowGtE1ePiO0RM+0RIBQD9YTjvP9YQAZBGBCKAQEZBGFAKAYEZBCEAaEYeDAgj4NJerCNOFluLgiDUAz0KyQXA7Jl3uB2n1MQtmoECMXAAALyQSEg2yiEIbvIQ3B8tbscCMXAcAPyfiEgx1dVZPrutBCCtUUAQjFwa0geFQJyPPQi03V5b3AMwSeGAxCKgW1C8kEhIAvJdEHeEhGPEy0RgFAMCMkMQV4Jjq0QcxPkAKEYaDIk5696kqna6UoIVgkGhGKgdSF5fyUkx1fVZLZ1nsJvHoBNjAOEYqCzQXlUCMgHgjJ3uCgG4PiqCgwIxcAQgnIekGNgjn+t9WI4YgvEIg/BWfidGxJAKAa4CcvjFJRHhVdhubvOi+E3/loLBCAUA+wWlkeFsBx7l+3G1w4XheAb2x3mKfwuDA0gFAPUE5b3CyF59fWZESrFVSHw/udV1RcQigG6E5zH6Zd5WM6Dc/73hjzp7zyF3DzohkLwVe0FhGKAAYbnPDRHo3SElUCda1Ml+qoQaMNKsM3Ni79nVQcAoRigymBdrEKXTbsCgFAMAADl2zMEAAAIxQAAIBQDAIBQDAAAg/Z/AQYAzhfp2jfEDQYAAAAASUVORK5CYII=;" parent="pjel9fzDB2Vp7X51PQzu-1" vertex="1">
                    <mxGeometry x="991.42" y="526.4200000000001" width="67.16" height="67.16" as="geometry"/>
                </mxCell>
                <mxCell id="pjel9fzDB2Vp7X51PQzu-25" value="" style="dashed=0;outlineConnect=0;html=1;align=center;labelPosition=center;verticalLabelPosition=bottom;verticalAlign=top;shape=mxgraph.weblogos.twitter;fillColor=#1DA1F2;strokeColor=none" parent="pjel9fzDB2Vp7X51PQzu-1" vertex="1">
                    <mxGeometry x="985" y="210" width="80" height="76" as="geometry"/>
                </mxCell>
                <mxCell id="pjel9fzDB2Vp7X51PQzu-26" style="edgeStyle=orthogonalEdgeStyle;rounded=0;elbow=vertical;html=1;labelBackgroundColor=none;startFill=1;startSize=4;endArrow=blockThin;endFill=1;endSize=4;jettySize=auto;orthogonalLoop=1;strokeColor=#4284F3;strokeWidth=2;fontSize=12;fontColor=#000000;align=left;dashed=0;exitX=1;exitY=0.5;exitDx=0;exitDy=0;startArrow=none;" parent="pjel9fzDB2Vp7X51PQzu-1" source="pjel9fzDB2Vp7X51PQzu-14" target="pjel9fzDB2Vp7X51PQzu-24" edge="1">
                    <mxGeometry relative="1" as="geometry">
                        <mxPoint x="483.0769230769231" y="548.8111111111111" as="sourcePoint"/>
                        <mxPoint x="810.3076923076923" y="196.15686274509807" as="targetPoint"/>
                    </mxGeometry>
                </mxCell>
                <mxCell id="pjel9fzDB2Vp7X51PQzu-27" style="edgeStyle=orthogonalEdgeStyle;rounded=0;elbow=vertical;html=1;labelBackgroundColor=none;startFill=1;startSize=4;endArrow=blockThin;endFill=1;endSize=4;jettySize=auto;orthogonalLoop=1;strokeColor=#4284F3;strokeWidth=2;fontSize=12;fontColor=#000000;align=left;dashed=0;startArrow=none;exitX=1;exitY=0.5;exitDx=0;exitDy=0;" parent="pjel9fzDB2Vp7X51PQzu-1" source="pjel9fzDB2Vp7X51PQzu-9" target="pjel9fzDB2Vp7X51PQzu-25" edge="1">
                    <mxGeometry relative="1" as="geometry">
                        <mxPoint x="568.8888888888889" y="134" as="sourcePoint"/>
                        <mxPoint x="630" y="261.70500000000004" as="targetPoint"/>
                        <Array as="points">
                            <mxPoint x="850" y="290"/>
                            <mxPoint x="850" y="248"/>
                        </Array>
                    </mxGeometry>
                </mxCell>
                <mxCell id="pjel9fzDB2Vp7X51PQzu-28" value="Login" style="swimlane;" parent="pjel9fzDB2Vp7X51PQzu-1" vertex="1">
                    <mxGeometry x="60" y="218" width="130" height="110" as="geometry"/>
                </mxCell>
                <mxCell id="pjel9fzDB2Vp7X51PQzu-29" value="Top" style="swimlane;" parent="pjel9fzDB2Vp7X51PQzu-1" vertex="1">
                    <mxGeometry x="60" y="350" width="130" height="110" as="geometry"/>
                </mxCell>
                <mxCell id="pjel9fzDB2Vp7X51PQzu-30" value="AutoTweet" style="swimlane;" parent="pjel9fzDB2Vp7X51PQzu-1" vertex="1">
                    <mxGeometry x="60" y="490" width="130" height="110" as="geometry"/>
                </mxCell>
                <mxCell id="pjel9fzDB2Vp7X51PQzu-31" style="edgeStyle=elbowEdgeStyle;rounded=0;elbow=vertical;html=1;labelBackgroundColor=none;startFill=1;startSize=4;endArrow=blockThin;endFill=1;endSize=4;jettySize=auto;orthogonalLoop=1;strokeColor=#4284F3;strokeWidth=2;fontSize=12;fontColor=#000000;align=left;dashed=0;entryX=0;entryY=0.5;entryDx=0;entryDy=0;" parent="pjel9fzDB2Vp7X51PQzu-1" target="pjel9fzDB2Vp7X51PQzu-9" edge="1">
                    <mxGeometry relative="1" as="geometry">
                        <mxPoint x="190" y="290" as="sourcePoint"/>
                        <mxPoint x="135" y="228" as="targetPoint"/>
                        <Array as="points">
                            <mxPoint x="270" y="290"/>
                        </Array>
                    </mxGeometry>
                </mxCell>
                <mxCell id="pjel9fzDB2Vp7X51PQzu-32" style="edgeStyle=elbowEdgeStyle;rounded=0;elbow=vertical;html=1;labelBackgroundColor=none;startFill=1;startSize=4;endArrow=blockThin;endFill=1;endSize=4;jettySize=auto;orthogonalLoop=1;strokeColor=#4284F3;strokeWidth=2;fontSize=12;fontColor=#000000;align=left;dashed=0;exitX=0.5;exitY=1;exitDx=0;exitDy=0;" parent="pjel9fzDB2Vp7X51PQzu-1" source="pjel9fzDB2Vp7X51PQzu-29" edge="1">
                    <mxGeometry relative="1" as="geometry">
                        <mxPoint x="562.5925" y="414" as="sourcePoint"/>
                        <mxPoint x="125" y="490" as="targetPoint"/>
                        <Array as="points">
                            <mxPoint x="125" y="480"/>
                        </Array>
                    </mxGeometry>
                </mxCell>
                <mxCell id="pjel9fzDB2Vp7X51PQzu-33" value="" style="edgeStyle=orthogonalEdgeStyle;fontSize=12;html=1;endArrow=blockThin;endFill=1;rounded=0;strokeWidth=2;endSize=4;startSize=4;dashed=0;strokeColor=#4284F3;exitX=1;exitY=0.5;exitDx=0;exitDy=0;entryX=0;entryY=0.5;entryDx=0;entryDy=0;" parent="pjel9fzDB2Vp7X51PQzu-1" source="pjel9fzDB2Vp7X51PQzu-30" target="pjel9fzDB2Vp7X51PQzu-14" edge="1">
                    <mxGeometry width="100" relative="1" as="geometry">
                        <mxPoint x="300" y="530" as="sourcePoint"/>
                        <mxPoint x="640" y="520" as="targetPoint"/>
                    </mxGeometry>
                </mxCell>
                <mxCell id="pjel9fzDB2Vp7X51PQzu-34" value="" style="edgeStyle=orthogonalEdgeStyle;fontSize=12;html=1;endArrow=blockThin;endFill=1;rounded=0;strokeWidth=2;endSize=4;startSize=4;dashed=0;strokeColor=#4284F3;exitX=0.5;exitY=0;exitDx=0;exitDy=0;entryX=1;entryY=0.5;entryDx=0;entryDy=0;" parent="pjel9fzDB2Vp7X51PQzu-1" source="pjel9fzDB2Vp7X51PQzu-24" target="pjel9fzDB2Vp7X51PQzu-29" edge="1">
                    <mxGeometry width="100" relative="1" as="geometry">
                        <mxPoint x="200" y="555" as="sourcePoint"/>
                        <mxPoint x="560" y="587.1599999999999" as="targetPoint"/>
                        <Array as="points">
                            <mxPoint x="1025" y="405"/>
                        </Array>
                    </mxGeometry>
                </mxCell>
                <mxCell id="pjel9fzDB2Vp7X51PQzu-35" style="edgeStyle=orthogonalEdgeStyle;rounded=0;elbow=vertical;html=1;labelBackgroundColor=none;startFill=1;startSize=4;endArrow=blockThin;endFill=1;endSize=4;jettySize=auto;orthogonalLoop=1;strokeColor=#4284F3;strokeWidth=2;fontSize=12;fontColor=#000000;align=left;dashed=0;exitX=1;exitY=0.5;exitDx=0;exitDy=0;startArrow=none;" parent="pjel9fzDB2Vp7X51PQzu-1" source="pjel9fzDB2Vp7X51PQzu-4" target="pjel9fzDB2Vp7X51PQzu-25" edge="1">
                    <mxGeometry relative="1" as="geometry">
                        <mxPoint x="759.9999999999995" y="587.1599999999999" as="sourcePoint"/>
                        <mxPoint x="1041.3529411764707" y="507.15999999999985" as="targetPoint"/>
                        <Array as="points">
                            <mxPoint x="910" y="473"/>
                            <mxPoint x="910" y="248"/>
                        </Array>
                    </mxGeometry>
                </mxCell>
                <mxCell id="pjel9fzDB2Vp7X51PQzu-36" style="edgeStyle=orthogonalEdgeStyle;rounded=0;elbow=vertical;html=1;labelBackgroundColor=none;startFill=1;startSize=4;endArrow=blockThin;endFill=1;endSize=4;jettySize=auto;orthogonalLoop=1;strokeColor=#4284F3;strokeWidth=2;fontSize=12;fontColor=#000000;align=left;dashed=0;exitX=0.5;exitY=0;exitDx=0;exitDy=0;entryX=0.5;entryY=1;entryDx=0;entryDy=0;" parent="pjel9fzDB2Vp7X51PQzu-1" source="pjel9fzDB2Vp7X51PQzu-24" target="pjel9fzDB2Vp7X51PQzu-12" edge="1">
                    <mxGeometry relative="1" as="geometry">
                        <mxPoint x="580.3699999999999" y="300" as="sourcePoint"/>
                        <mxPoint x="740" y="200" as="targetPoint"/>
                    </mxGeometry>
                </mxCell>
            </root>
        </mxGraphModel>
    </diagram>
    <diagram id="o5W7lz3Q3g58z5eQqJp2" name="ページ2">
        <mxGraphModel dx="1293" dy="807" grid="1" gridSize="10" guides="1" tooltips="1" connect="1" arrows="1" fold="1" page="1" pageScale="1" pageWidth="827" pageHeight="1169" math="0" shadow="0">
            <root>
                <mxCell id="qt5LeI9TZ5jhbXtWLAMe-0"/>
                <mxCell id="qt5LeI9TZ5jhbXtWLAMe-1" parent="qt5LeI9TZ5jhbXtWLAMe-0"/>
            </root>
        </mxGraphModel>
    </diagram>
</mxfile>